<svg
  class="tile"
   viewBox="0 0 7.9374995 7.9374995">
  <defs
     id="defs2" />
  <g

     class="layer1">
    <rect
       style="fill-opacity:1;stroke:#757575;stroke-width:0.155658;stroke-linecap:square"
       id="tile-back"
       width="7.9369998"
       height="7.9375"
       x="0.077829003"
       y="0.077829003" />
    <path
       id="path871"
       d="m 4.0070247,4.9635462 c -0.292115,-0.0032 -0.598381,0.0311 -0.781864,0.267684 -0.208152,0.490175 0.481285,0.49718 0.657324,0.797884 0.107769,0.446754 -0.474893,0.406973 -0.737423,0.274402 -0.01628,0.191633 0.489706,0.524315 0.790133,0.487825 0.327879,0.02485 0.687644,-0.05652 0.915189,-0.309025 0.342565,-0.37524 -0.303307,0.02881 -0.499194,-0.107487 -0.445272,-0.286637 0.101873,-0.601445 0.382922,-0.698665 0.414607,-0.292677 -0.0643,-0.762656 -0.444934,-0.703316 -0.08924,-0.0033 -0.184781,-0.0083 -0.282153,-0.0093 z"
       style="display:inline;fill:#ffffff;fill-opacity:1;stroke-width:0.0110368" />
    <path
       id="path869"
       d="m 5.3294247,2.9926062 c 0.278657,0.01866 0.508781,0.47193 0.235644,0.67076 -0.338408,0.19541 -0.688945,-0.349604 -0.430981,-0.605648 0.06387,-0.05046 0.131031,-0.06942 0.195337,-0.06511 z"
       style="display:inline;fill:#ffffff;fill-opacity:1;stroke-width:0.0110368" />
    <path
       id="path867"
       d="m 2.7719577,2.9869062 c 0.283334,0.0097 0.384074,0.572808 0.0155,0.688846 -0.401988,0.167049 -0.521036,-0.394929 -0.237195,-0.594795 0.08135,-0.06898 0.156307,-0.0963 0.221692,-0.09405 z"
       style="display:inline;fill:#ffffff;fill-opacity:1;stroke-width:0.0110368" />
    <path
       id="path865"
       d="m 5.1754287,2.7409262 c -0.05617,0.0049 -0.113309,0.01849 -0.171049,0.04134 -0.396273,0.206079 -0.151286,0.721307 0.0248,1.001489 0.42188,0.597698 0.681009,1.414038 0.357084,2.112533 -0.166745,0.309444 0.302306,-0.184422 0.296106,-0.274402 0.299818,-0.362686 -0.12958,-1.039618 0.425814,-1.152385 0.327742,-0.27424 0.156523,-0.750584 -0.02274,-1.059367 -0.171499,-0.3286 -0.516862,-0.703203 -0.910022,-0.669209 z"
       style="display:inline;fill:#ffffff;fill-opacity:1;stroke-width:0.0110368" />
    <path
       id="path863"
       d="m 2.8148497,2.7409262 c -0.145985,0.0081 -0.293253,0.06303 -0.391191,0.157613 -0.355659,0.300331 -0.641362,0.755403 -0.630453,1.232483 -0.04247,0.334523 0.412447,0.348695 0.473357,0.55087 -0.01589,0.464064 0.01398,1.001497 0.427364,1.299146 -0.02093,-0.0028 0.04379,0.03521 0.05478,0.02429 -0.237286,-0.419775 -0.24323,-0.932584 -0.108521,-1.386479 0.12133,-0.539588 0.612757,-0.929105 0.653707,-1.490348 0.0033,-0.283973 -0.235732,-0.401038 -0.47904,-0.387573 z"
       style="display:inline;fill:#ffffff;fill-opacity:1;stroke-width:0.0110368" />
    <path
       id="path861"
       d="m 4.0364797,0.65578186 c 0.966727,-0.022585 2.017643,0.39135974 2.482536,1.28570934 0.278802,0.397794 -0.253061,-0.02073 -0.420646,0.06925 0.835194,0.372613 1.314132,1.251902 1.433504,2.128035 0.113089,0.27721 -0.03841,0.323897 -0.274402,0.230477 -0.0074,0.228419 0.02151,0.46064 -0.02946,0.68523 -0.304552,1.27106 -1.561657,2.123377 -2.817916,2.246374 -0.638494,0.06379 -1.29414,-0.04182 -1.877405,-0.311092 -0.939633,-0.426048 -1.76182696,-1.35703 -1.71255696,-2.438094 0.09836,-0.284537 -0.153868,-0.115889 -0.298173,-0.155029 0.06565,-0.945328 0.52517096,-1.947589 1.42316896,-2.363164 0.12256,-0.16331 -0.723731,0.297403 -0.383956,-0.08785 0.461198,-0.8923804 1.50899,-1.31259464 2.475301,-1.28984334 z"
       style="display:inline;fill:#ffffff;fill-opacity:1;stroke-width:0.0110368" />
    <path
       id="path932-5"
       d="m 6.8202897,0.13436666 c -0.119287,0.00185 -0.239755,0.026709 -0.356568,0.078548 -0.338425,0.075341 -0.492598,0.5182965 -0.676444,0.6604248 -1.078425,-0.5757336 -2.454936,-0.5743157 -3.524849,0.0206721 -0.145901,-0.2664015 -0.34858,-0.5789874 -0.665593,-0.6914306 -0.60756098,-0.2439201 -1.29906496,0.2074471 -1.44745696,0.81752104 -0.2089843,0.6358682 0.144685,1.4435612 0.83199098,1.5843992 -0.49392798,0.589853 -0.83108198,1.324255 -0.87384898,2.09858 -0.08657,0.304933 0.101169,0.232127 0.33383,0.163298 0.07709,0.565609 0.30967,1.104409 0.64233796,1.566312 0.590932,0.842901 1.595923,1.31835 2.609143,1.379761 0.520383,0.01318 1.045869,0.0039 1.547709,-0.150895 1.180228,-0.317443 2.094738,-1.347456 2.355929,-2.530078 -0.04077,-0.307494 0.168985,-0.281008 0.388607,-0.183968 0.0025,-0.849881 -0.321703,-1.702113 -0.887285,-2.340426 0.666785,-0.144517 1.029142,-0.914228 0.842326,-1.5440916 C 7.8343957,0.54900156 7.3371967,0.12638396 6.8202897,0.13436796 Z"
       style="display:inline;fill:#ffffff;fill-opacity:1;stroke-width:0.0110368" />
    <path
       id="path932"
       d="m 3.6927217,7.8124002 c -0.01819,-0.0024 -0.102648,-0.01211 -0.187628,-0.02141 -0.529722,-0.05799 -0.97032,-0.198904 -1.439856,-0.460494 -0.08236,-0.04587 -0.276302,-0.181153 -0.381225,-0.265892 -0.453908,-0.366577 -0.8011946,-0.843775 -1.0377671,-1.425985 -0.091435,-0.225018 -0.1723993,-0.520483 -0.188134,-0.686551 -0.0043,-0.04417 -0.011842,-0.08289 -0.017049,-0.0861 -0.00963,-0.006 -0.2584126,0.05169 -0.3137277,0.07273 l -0.030601,0.01159 0.00742,-0.179733 c 0.029741,-0.723508 0.3037346,-1.443205 0.7706458,-2.024274 0.060913,-0.07583 0.1089315,-0.139722 0.1066703,-0.141986 -0.00212,-0.0024 -0.038802,-0.01387 -0.081213,-0.02587 -0.5324267,-0.15034 -0.8700349,-0.714495 -0.7969596,-1.331755 0.049217,-0.41544 0.2755387,-0.773186 0.613682,-0.9699 0.097726,-0.05687 0.1820351,-0.08943 0.3050182,-0.117848 0.090807,-0.02096 0.1253231,-0.02348 0.2512091,-0.01804 0.274668,0.01175 0.474557,0.09958 0.670694,0.294598 0.136286,0.135514 0.234111,0.285457 0.290311,0.444996 0.0081,0.02292 0.0383,0.01765 0.08444,-0.01478 0.03552,-0.02492 0.26016,-0.132684 0.353179,-0.169374 0.287843,-0.113538 0.601264,-0.188553 0.954693,-0.2285 0.17804,-0.02011 0.250523,-0.02288 0.480098,-0.01818 0.601193,0.01228 1.090815,0.127617 1.565671,0.368732 0.08716,0.04422 0.162899,0.07773 0.168313,0.07439 0.0057,-0.0036 0.0098,-0.01351 0.0098,-0.02257 0,-0.02454 0.07958,-0.179431 0.1364,-0.265538 0.06006,-0.09104 0.202657,-0.234932 0.290568,-0.293215 0.237671,-0.157585 0.5244373,-0.212228 0.7912383,-0.150779 0.322766,0.07434 0.614895,0.314661 0.773442,0.636288 0.167306,0.339385 0.188591,0.749693 0.05685,1.095989 -0.127977,0.336398 -0.412652,0.60611 -0.72683,0.688629 -0.04094,0.01078 -0.0745,0.02218 -0.0745,0.02541 0,0.0028 0.02653,0.03617 0.05906,0.07328 0.262258,0.299623 0.506006,0.73123 0.642705,1.138018 0.08945,0.266198 0.160802,0.616685 0.175245,0.860864 0.0036,0.06071 0.0096,0.147164 0.01327,0.192131 0.0064,0.07693 0.0057,0.08128 -0.01405,0.0736 -0.05036,-0.01976 -0.317465,-0.08437 -0.329598,-0.07971 -0.0081,0.0028 -0.01641,0.04081 -0.0209,0.09499 -0.02247,0.269663 -0.188562,0.745816 -0.382231,1.095915 -0.507497,0.91739 -1.3329013,1.504314 -2.3838643,1.695106 -0.272714,0.04952 -0.401254,0.05997 -0.772578,0.06291 -0.197286,0.0018 -0.3736,3.47e-4 -0.39181,-0.0018 z m 0.717392,-0.511806 c 0.728684,-0.08058 1.385033,-0.360062 1.920412,-0.817737 0.4571753,-0.390831 0.7650893,-0.880858 0.8976023,-1.428467 0.02789,-0.115166 0.02939,-0.135914 0.02946,-0.40339 l 9.9e-5,-0.281982 0.05521,0.0079 c 0.03038,0.0042 0.09152,0.01583 0.135922,0.02534 0.04444,0.0096 0.08787,0.01748 0.09657,0.01748 0.02168,0 0.02047,-0.04434 -0.0064,-0.234383 -0.142092,-1.004848 -0.61839,-1.756988 -1.3445063,-2.123185 -0.115087,-0.05805 -0.116684,-0.05936 -0.07201,-0.05943 0.112768,-1.74e-4 0.30322,0.04964 0.425226,0.111231 0.06562,0.03317 0.06619,0.03317 0.05849,0.008 -0.03117,-0.102078 -0.214389,-0.408135 -0.3225,-0.538689 -0.08271,-0.09989 -0.278,-0.288529 -0.374628,-0.36187 -0.169431,-0.128564 -0.43803,-0.280383 -0.599387,-0.338764 -0.02732,-0.0099 -0.07699,-0.02801 -0.110373,-0.04022 -0.148347,-0.05434 -0.364712,-0.109674 -0.55184,-0.14113 -0.360234,-0.06056 -0.864507,-0.06071 -1.215752,-2.58e-4 -0.505927,0.08695 -0.90604,0.252197 -1.259846,0.520342 -0.177941,0.134862 -0.397253,0.375353 -0.531363,0.582692 -0.05656,0.08743 -0.173869,0.32487 -0.162399,0.328686 0.0064,0.0024 0.03509,-0.0082 0.06434,-0.02271 0.119738,-0.05929 0.30825,-0.107775 0.415976,-0.106949 l 0.04572,2.53e-4 -0.0883,0.04499 c -0.465676,0.237411 -0.796751,0.573149 -1.0417116,1.056422 -0.1881909,0.371266 -0.2922867,0.740482 -0.3496767,1.240317 -0.00571,0.04917 -0.00356,0.06464 0.0082,0.06926 0.00849,0.0028 0.078532,-0.0066 0.155587,-0.02194 0.077063,-0.01534 0.1418279,-0.02787 0.1439252,-0.02787 0.00212,0 -6.918e-4,0.03352 -0.00641,0.07449 -0.00571,0.04099 -0.00785,0.166381 -0.005,0.278683 0.0043,0.164725 0.010627,0.228708 0.033308,0.331098 0.1407864,0.634562 0.5377821,1.20152 1.1432261,1.632646 0.479243,0.34127 1.091919,0.565443 1.689944,0.618352 0.07588,0.0067 0.152856,0.01411 0.171072,0.01657 0.05842,0.0077 0.437753,-0.0028 0.551841,-0.01583 z m -0.475135,-0.50942 c -0.246394,-0.017341 -0.441611,-0.088037 -0.607269,-0.219852 -0.06705,-0.053338 -0.17267,-0.180241 -0.207122,-0.248802 l -0.01719,-0.03422 0.07392,0.02636 c 0.129025,0.04605 0.302451,0.08067 0.403965,0.08067 0.102484,0 0.188261,-0.02531 0.237057,-0.06981 0.04643,-0.0424 0.07834,-0.126346 0.07835,-0.206114 7e-6,-0.131958 -0.07163,-0.213902 -0.261857,-0.29956 -0.205695,-0.0926 -0.277644,-0.131762 -0.33171,-0.180509 -0.09002,-0.08115 -0.107063,-0.121569 -0.107063,-0.253881 0,-0.100786 0.0029,-0.114191 0.02917,-0.154511 0.03987,-0.06039 0.09308,-0.112304 0.146685,-0.143109 0.141807,-0.08149 0.380305,-0.127094 0.665344,-0.127223 0.482097,-1.98e-4 0.786566,0.116932 0.843336,0.324457 0.01555,0.05669 0.01541,0.154103 -1.99e-4,0.211239 -0.02774,0.101365 -0.13799,0.195528 -0.321238,0.274355 -0.29347,0.126241 -0.374406,0.20082 -0.375012,0.345573 -5.44e-4,0.123871 0.05785,0.214082 0.167199,0.258472 0.105993,0.04299 0.338629,0.01783 0.552711,-0.05996 0.04094,-0.01489 0.0745,-0.02509 0.0745,-0.02271 0,0.01899 -0.07784,0.134461 -0.12809,0.189989 -0.20394,0.225358 -0.532011,0.336147 -0.915447,0.309134 z m -1.241094,-0.81037 c -0.149667,-0.105338 -0.278014,-0.287033 -0.349314,-0.494516 -0.06405,-0.186461 -0.07446,-0.265629 -0.0766,-0.584491 l -0.0021,-0.296061 -0.08681,-0.03012 c -0.368526,-0.127831 -0.481594,-0.443909 -0.31625,-0.884048 0.103689,-0.276019 0.322972,-0.601715 0.505585,-0.750929 0.29143,-0.238136 0.615429,-0.271621 0.819198,-0.08466 0.07758,0.07119 0.105993,0.144135 0.1061,0.272467 1.74e-4,0.19941 -0.09019,0.421814 -0.31698,0.780149 -0.281773,0.445205 -0.409592,0.824694 -0.423094,1.256157 -0.005,0.160154 -0.0021,0.207543 0.01776,0.323686 0.02853,0.164309 0.07372,0.308549 0.133239,0.425664 0.02432,0.04787 0.0443,0.08889 0.0443,0.09104 0,0.0095 -0.01926,0.0011 -0.05521,-0.02436 z m 0.09335,-2.305353 c 0.165159,-0.07304 0.273619,-0.279913 0.240402,-0.458532 -0.03046,-0.163826 -0.168319,-0.255808 -0.323714,-0.215995 -0.229988,0.05892 -0.371274,0.328455 -0.2875,0.548465 0.01747,0.04593 0.08003,0.110442 0.128361,0.132397 0.06548,0.02977 0.166857,0.0271 0.24245,-0.0063 z m 2.598766,2.220493 c 0.104331,-0.22365 0.133518,-0.35443 0.141015,-0.63186 0.005,-0.181832 0.0021,-0.228768 -0.0184,-0.353175 -0.0597,-0.355482 -0.185438,-0.669058 -0.402788,-1.00435 -0.220431,-0.340059 -0.316031,-0.577317 -0.316031,-0.78433 0,-0.109726 0.02646,-0.181415 0.09484,-0.257111 0.07937,-0.08786 0.24501,-0.143625 0.380026,-0.127946 0.315126,0.03658 0.587448,0.259866 0.820754,0.672926 0.335703,0.594354 0.264318,1.024669 -0.19409,1.170008 -0.04679,0.01489 -0.07949,0.03134 -0.07947,0.04005 2.7e-5,0.0082 0.0043,0.08188 0.0087,0.163836 0.0271,0.467461 -0.08994,0.870756 -0.319248,1.10006 -0.05785,0.05787 -0.145473,0.125023 -0.163076,0.125023 -0.0029,0 0.01876,-0.05087 0.04779,-0.113124 z m 0.179068,-2.232578 c 0.02618,-0.01836 0.06255,-0.05769 0.08091,-0.08742 0.03138,-0.05081 0.03338,-0.06064 0.03338,-0.165936 0,-0.105391 -0.0021,-0.116072 -0.03688,-0.182941 -0.06248,-0.120305 -0.151201,-0.196415 -0.262942,-0.225604 -0.150552,-0.03934 -0.287729,0.04311 -0.3241,0.194698 -0.04322,0.180102 0.06355,0.398136 0.234854,0.479571 0.04907,0.02334 0.07097,0.02706 0.14262,0.02436 0.07352,-0.0024 0.0909,-0.0076 0.132184,-0.03664 z"
       style="fill:#333333;fill-opacity:1;stroke-width:0.0110368" />
  </g>
</svg>
