<svg
   class="tile"
   viewBox="0 0 7.9374995 7.9374995">
  
  <g
     id="layer1">
    <rect
       y="0.077829003"
       x="0.077829003"
       height="7.9375"
       width="7.9369998"
       id="tile-back"
       style="fill-opacity:1;stroke:#757575;stroke-width:0.155658;stroke-linecap:square" />
    <path
       class="white-part"
       d="m 3.2159652,7.0398737 c -0.01202,-0.04485 -0.02208,-0.156979 -0.02235,-0.249176 l -4.93e-4,-0.167631 -0.308674,-0.148112 c -0.16977,-0.08146 -0.36687,-0.192501 -0.438,-0.246755 l -0.129328,-0.09864 -0.215881,0.118682 c -0.326214,0.179336 -0.397042,0.113682 -0.230951,-0.214081 0.04983,-0.09834 0.09061,-0.192975 0.09061,-0.2103 0,-0.01732 -0.05757,-0.105389 -0.127926,-0.195698 -0.07036,-0.09031 -0.184409,-0.276461 -0.253442,-0.413671 l -0.125516,-0.249471 -0.23759,-7.13e-4 c -0.168958,-5.06e-4 -0.247068,-0.01605 -0.270399,-0.0538 -0.04069,-0.06584 0.06856,-0.190029 0.263642,-0.299672 0.09838,-0.05529 0.130234,-0.09307 0.11241,-0.133298 -0.01368,-0.03088 -0.0269,-0.259767 -0.02939,-0.508644 l -0.0045,-0.452502 -0.138409,-0.07764 c -0.07612,-0.0427 -0.172838,-0.112068 -0.214919,-0.154149 -0.108844,-0.108844 -0.0428,-0.157383 0.249069,-0.183046 l 0.240161,-0.02112 0.09096,-0.217452 c 0.05003,-0.119599 0.154504,-0.313087 0.232169,-0.429974 0.07767,-0.116887 0.141209,-0.218573 0.141209,-0.225968 0,-0.0074 -0.04893,-0.09296 -0.108726,-0.190149 -0.189372,-0.307768 -0.117314,-0.402931 0.185959,-0.245587 0.100733,0.05226 0.20247,0.09502 0.226083,0.09502 0.02361,0 0.124849,-0.06116 0.224968,-0.135908 0.100118,-0.07475 0.283155,-0.183756 0.406747,-0.242237 l 0.224714,-0.106329 4.93e-4,-0.183607 c 0.0011,-0.40467901 0.113046,-0.45612001 0.320723,-0.147365 0.07594,0.112895 0.144251,0.177396 0.18121,0.171092 0.03263,-0.0056 0.262701,-0.01378 0.511274,-0.01826 l 0.45195,-0.0081 0.07478,-0.133312 c 0.04113,-0.07332 0.105758,-0.16754201 0.143621,-0.20938001 0.06121,-0.06764 0.07487,-0.07004 0.123235,-0.02168 0.03169,0.03169 0.06102,0.146023 0.07027,0.27389001 l 0.01588,0.219497 0.26466,0.122281 c 0.145563,0.06725 0.341671,0.175265 0.435796,0.240024 0.145112,0.09984 0.181753,0.111113 0.240962,0.07414 0.295489,-0.184536 0.463172,-0.220839 0.463172,-0.100275 0,0.02772 -0.04789,0.140138 -0.106417,0.249819 l -0.106416,0.199421 0.146751,0.195283 c 0.08071,0.107405 0.202649,0.306268 0.270969,0.441917 l 0.124219,0.246635 0.152565,-0.02278 c 0.190212,-0.0284 0.3618643,0.03056 0.3451223,0.118549 -0.0066,0.03482 -0.09343,0.118124 -0.1929083,0.185109 -0.13167,0.08867 -0.178922,0.14288 -0.173738,0.199331 0.0039,0.04265 0.0086,0.273413 0.01036,0.512812 l 0.0032,0.435273 0.168151,0.09024 c 0.3228223,0.17324 0.2994433,0.292648 -0.06242,0.318823 l -0.218938,0.01584 -0.12335,0.266976 c -0.06784,0.146837 -0.176165,0.340518 -0.240715,0.430402 l -0.117364,0.163427 0.113042,0.219184 c 0.108437,0.210255 0.119466,0.325002 0.03116,0.324247 -0.02278,-1.78e-4 -0.128666,-0.04097 -0.235294,-0.0906 -0.106628,-0.04964 -0.208418,-0.09025 -0.226199,-0.09025 -0.01778,0 -0.108743,0.05833 -0.202137,0.129617 -0.09339,0.07129 -0.281087,0.185656 -0.417096,0.25415 l -0.24729,0.124533 v 0.236255 c 0,0.179116 -0.01347,0.241426 -0.05571,0.257634 -0.07003,0.02687 -0.178552,-0.06982 -0.279043,-0.24862 -0.07344,-0.130673 -0.08464,-0.136738 -0.206686,-0.111926 -0.07097,0.01443 -0.303242,0.02483 -0.51616,0.02311 l -0.387125,-0.0031 -0.04373,0.105575 c -0.107453,0.259415 -0.292042,0.370195 -0.337043,0.202274 z" />
  </g>
</svg>
