<svg id="panda-dinner"
                 viewBox="0 0 210 297">
	<g id="layer1">
		<g transform="matrix(2.1719971,0,0,2.1719971,72.270743,-688.37911)"
		   id="g1667">
			<path id="path1683"
				  d="M -39.844635,381.66088 V 333.7713 H 10.69078 61.226195 v 47.88958 47.88959 H 10.69078 -39.844635 Z m 60.899792,36.57865 c 0.207224,-0.58536 0.351248,-2.13911 0.351248,-3.78931 0,-2.58778 -0.05951,-2.91347 -0.795142,-4.35161 -1.520002,-2.97157 -3.639849,-3.2557 -5.359852,-0.71841 -0.778367,1.14821 -0.879721,1.5231 -1.029896,3.80928 l -0.166566,2.53572 1.534697,1.20454 c 1.458635,1.14483 3.713586,2.24766 4.671761,2.28482 0.27981,0.0108 0.57164,-0.34763 0.79375,-0.97503 z m -8.561795,-1.05833 c -0.135173,-0.69123 -0.209097,-2.31724 -0.164279,-3.61337 l 0.08149,-2.35659 -2.910417,-2.08874 c -4.0707467,-2.92149 -9.44560613,-6.80682 -13.2052426,-9.54569 l -3.1910998,-2.3247 -0.2289783,0.7372 c -0.125939,0.40546 -0.2452026,2.4636 -0.2650305,4.57366 -0.03156,3.35827 0.038854,4.0544 0.5649145,5.58497 1.2595198,3.66459 3.202633,5.77114 7.06502038,7.6593 3.62579962,1.7725 6.72969272,2.58678 9.95386032,2.61134 l 2.54553,0.0194 -0.245767,-1.25677 z m -30.227159,-1.31026 c 0.344636,-2.75838 -0.586165,-6.04562 -2.116283,-7.47391 -1.91293,-1.78563 -4.667123,0.34347 -5.092709,3.93688 -0.140824,1.18904 -0.08744,1.33753 0.856457,2.38231 0.553653,0.61283 1.461328,1.3462 2.017056,1.62971 1.106133,0.56431 3.68149,1.29803 3.968102,1.13052 0.09896,-0.0578 0.264276,-0.78031 0.367377,-1.60551 z m 60.296522,-7.42099 c -0.634047,-1.51837 -4.019684,-6.99363 -5.168264,-8.35814 -0.10287,-0.12221 -0.386684,0.37888 -0.630696,1.11353 -0.244012,0.73466 -0.733382,1.76267 -1.08749,2.28447 -0.810596,1.19449 -0.808403,1.45441 0.01228,1.45441 1.552252,0 4.211177,1.48769 6.090771,3.40784 0.582084,0.59464 1.089697,1.08317 1.12803,1.08562 0.03833,0.002 -0.116747,-0.44203 -0.344625,-0.98773 z M 26.849881,388.98802 c 5.326695,-1.38457 9.130546,-3.51712 12.791516,-7.1713 3.361656,-3.35542 4.041254,-4.52577 4.793142,-8.25432 1.083796,-5.37448 0.785373,-9.70574 -0.982433,-14.25881 -1.108217,-2.85427 -2.30229,-4.6221 -4.835569,-7.15908 -6.726492,-6.73632 -18.727843,-10.87953 -28.7552522,-9.92713 -3.0393771,0.28868 -7.6511518,1.63461 -9.72329693,2.83772 -2.67468077,1.55296 -5.50618267,4.10064 -7.19787297,6.4764 l -0.5300635,0.74441 0.7398437,0.14992 c 4.6355528,0.93937 9.1664443,3.29637 10.6109846,5.51991 0.6150689,0.94676 0.7084033,1.3592 0.6964759,3.07764 -0.00984,1.41675 -0.1693703,2.32495 -0.557731,3.175 -0.6643979,1.45424 -2.4124602,3.46239 -3.71438744,4.26702 -0.53087586,0.3281 -0.82508722,0.64326 -0.65380127,0.70036 0.17128595,0.0571 0.3114278,0.43653 0.3114278,0.84319 0,1.21167 0.70746935,2.54101 1.89182371,3.55478 0.6126136,0.52437 1.1923633,0.9534 1.2883303,0.9534 0.2022501,0 0.7885959,-1.21282 0.7885959,-1.63116 0,-0.15585 -0.3571875,-0.69017 -0.79375,-1.18738 -0.5553101,-0.63247 -0.79375,-1.17945 -0.79375,-1.82087 0,-0.85382 0.057819,-0.91684 0.8412427,-0.91684 0.8800279,0 4.0782292,0.96261 4.6488613,1.39924 0.6180772,0.47293 0.3818784,1.47114 -0.4498816,1.90126 -0.4293367,0.22202 -0.9539261,0.40367 -1.1657541,0.40367 -0.3597381,0 -1.3677477,2.33033 -1.1166316,2.58145 0.1532863,0.15328 3.5187465,0.57436 4.6747613,0.58489 0.8753104,0.008 0.9743154,-0.0715 1.2544874,-1.0066 0.167299,-0.55839 0.534392,-1.2236 0.815766,-1.47824 0.473654,-0.42865 0.483632,-0.54222 0.134578,-1.53155 -0.547979,-1.55314 -0.4801,-4.85049 0.127391,-6.18816 0.581134,-1.27963 2.013424,-2.78135 3.233063,-3.38979 2.451976,-1.2232 6.413555,-1.68519 9.359408,-1.09147 5.101319,1.02815 8.91214,4.07593 10.59898,8.47676 1.078309,2.81322 0.315277,6.96982 -1.686121,9.18513 -4.507661,4.98944 -12.014678,4.82642 -17.522491,-0.3805 -1.158568,-1.09528 -2.674442,-3.09673 -2.961256,-3.90984 -0.09786,-0.27741 -0.236688,-0.15794 -0.461222,0.39688 -0.411967,1.01797 -0.217236,4.02075 0.332166,5.12205 0.467384,0.93689 0.341998,1.04701 -0.419073,0.36805 -0.503177,-0.44889 -0.512707,-0.44283 -0.312288,0.19844 0.413745,1.32382 0.21644,4.82834 -0.368205,6.54009 -0.30907,0.90491 -0.561948,1.70859 -0.561948,1.78594 0,0.25358 1.023127,0.14707 1.190625,-0.12395 0.266115,-0.43058 1.002318,-0.31582 0.831397,0.1296 -0.270917,0.70599 1.460016,0.908 6.841519,0.79841 3.461229,-0.0705 4.69533,-0.20629 6.766393,-0.74462 z M 7.049362,386.73769 c -0.3983143,-0.7525 -0.7837381,-1.36844 -0.8564985,-1.36874 -0.1728444,-8e-4 -1.0583333,1.55686 -1.0583333,1.86162 0,0.20325 2.4056048,1.06924 2.5762901,0.92744 0.03451,-0.0287 -0.2631466,-0.66782 -0.6614583,-1.42032 z m -7.66291513,-2.18135 c -0.0889053,-0.33998 -0.28627122,-0.48889 -0.52603667,-0.39688 -0.2110581,0.081 -0.5228325,0.15104 -0.6928326,0.15567 -0.4048654,0.011 0.6201701,0.78534 1.0396273,0.78534 0.19422003,0 0.26519187,-0.21546 0.17924197,-0.54413 z M -4.143735,382.1239 c 0.5081693,-1.729 1.7860883,-4.13716 3.1064093,-5.85384 l 1.19548276,-1.55435 -0.51352978,-0.6946 c -0.93961478,-1.27092 -1.38926358,-2.37736 -1.38926358,-3.41852 v -1.03041 l -1.5213541,0.52859 c -2.2997503,0.79904 -5.6301162,0.88764 -7.5840376,0.20177 -0.860621,-0.3021 -1.586621,-0.5192 -1.613334,-0.48245 -0.02671,0.0368 -0.184176,0.76336 -0.349919,1.61467 -0.16574,0.8513 -0.672441,2.30163 -1.125999,3.22293 l -0.82465,1.6751 0.712253,0.93382 c 0.391739,0.51359 1.624537,1.51901 2.739549,2.23427 2.5320148,1.62421 6.1656143,3.68965 6.5490484,3.72265 0.1588665,0.0137 0.4375732,-0.48116 0.6193446,-1.09963 z m -10.889043,-12.46187 1.346878,-0.90638 -0.679811,-0.62499 c -0.373896,-0.34374 -1.007035,-1.07025 -1.406976,-1.61446 l -0.727164,-0.98947 -0.295309,1.17278 c -0.468152,1.85921 -0.331795,4.33076 0.220113,3.98966 0.107464,-0.0664 0.801485,-0.52863 1.542269,-1.02714 z m 20.4318915,0.51779 c 0,-0.0572 -0.1785937,-0.17252 -0.396875,-0.25628 -0.2182812,-0.0838 -0.396875,-0.037 -0.396875,0.10398 0,0.14095 0.1785938,0.25628 0.396875,0.25628 0.2182813,0 0.396875,-0.0468 0.396875,-0.10398 z"
				  style="display:none;fill:#a6d0fd;" />
			<path id="path1681"
				  d="m 13.204322,426.89556 c -3.7086596,-0.18557 -9.0864109,-0.83183 -10.5896966,-1.2726 -0.4874207,-0.14291 -1.4697392,-0.12705 -2.51354161,0.0406 -0.94238495,0.15135 -5.40436579,0.28416 -9.91551149,0.29512 -8.5282223,0.0207 -9.9303203,-0.11679 -12.0385413,-1.18069 -3.517559,-1.77511 -5.383066,-6.57376 -4.787072,-12.31379 0.456839,-4.39982 2.167724,-7.3064 4.522357,-7.68292 0.879411,-0.14063 1.088933,-0.29155 1.198894,-0.86362 0.07329,-0.38127 0.309797,-1.24498 0.525577,-1.91935 0.21578,-0.67437 0.392327,-1.28723 0.392327,-1.3619 0,-0.0747 -0.803672,-0.2716 -1.785937,-0.43761 -2.246259,-0.37965 -4.564625,-1.03072 -4.562255,-1.28122 0.0045,-0.47834 4.064306,-2.68665 5.651612,-3.07419 l 0.758629,-0.18522 -1.750816,-1.81353 c -0.962949,-0.99745 -1.750816,-1.94417 -1.750816,-2.10384 0,-0.15968 0.429457,-0.29031 0.954349,-0.29031 0.809542,0 0.923669,-0.0703 0.752153,-0.46302 -0.111208,-0.25467 -0.272774,-1.44474 -0.359036,-2.64462 l -0.156841,-2.18159 -2.910416,-2.05947 -2.910417,-2.05947 -0.07843,-1.1949 c -0.06743,-1.02726 0.05492,-1.36955 0.872016,-2.43967 0.850558,-1.11394 1.060625,-1.24476 1.998797,-1.24476 0.870096,0 1.452515,0.29242 3.425327,1.71979 1.307338,0.94588 2.43747,1.71979 2.511405,1.71979 0.07394,0 0.134428,-0.47383 0.134428,-1.05296 0,-0.95371 -0.09521,-1.10153 -1.010235,-1.56834 -1.409735,-0.71919 -2.852391,-2.4058 -3.864803,-4.51835 -0.819979,-1.71101 -1.695482,-4.89886 -1.420838,-5.1735 0.174381,-0.17438 2.026851,0.61268 2.897137,1.23092 0.386266,0.27439 0.759515,0.4989 0.829441,0.4989 0.06993,0 0.326959,-0.61092 0.571183,-1.35759 0.929468,-2.84168 2.527282,-5.66347 2.527282,-4.46325 0,0.64946 0.462189,0.13645 1.252338,-1.39004 0.470504,-0.90896 1.700159,-2.60516 2.732567,-3.76933 2.074011,-2.3387 3.5637,-4.40588 4.480727,-6.21771 0.3314381,-0.65484 0.9445597,-1.68985 1.3624928,-2.30002 l 0.759878,-1.1094 -1.0238475,-1.46159 c -1.2613773,-1.80067 -1.7250943,-3.37863 -1.5804643,-5.37808 0.199562,-2.75892 2.0368415,-5.43419 4.4517252,-6.48217 0.9413213,-0.40851 1.6122782,-0.49337 3.2043687,-0.40527 3.11660632,0.17245 5.3992196,1.60376 6.7394347,4.22595 l 0.636135,1.24462 1.2584694,-0.41753 c 0.8976148,-0.29782 2.7073965,-0.45391 6.31159,-0.54436 4.381725,-0.10998 5.438365,-0.0531 7.952547,0.42789 5.481605,1.04875 11.055098,3.28269 15.637925,6.26794 2.417974,1.57506 5.88845,4.74877 7.092105,6.48565 l 0.704131,1.01606 0.962377,-0.41907 c 2.037294,-0.88714 4.276971,-1.21268 6.134898,-0.89171 3.533244,0.61038 6.156481,2.75927 7.027984,5.75714 0.367287,1.26342 0.382609,1.70149 0.1035,2.95898 -0.410882,1.85118 -1.312002,3.4137 -2.683057,4.65237 -1.386457,1.25258 -3.062949,1.95265 -5.542346,2.31439 l -2.006809,0.29279 -0.458311,2.92907 c -0.928249,5.9324 -2.868936,11.12164 -5.425742,14.50798 -1.105498,1.46416 -3.520091,3.50427 -5.13738,4.3406 -0.738934,0.38212 -0.762664,0.45159 -0.592492,1.7344 0.23241,1.75199 0.909309,3.03975 4.162523,7.91895 4.415242,6.62202 5.776481,9.81688 5.776481,13.55755 0,3.40381 -1.552165,6.30516 -4.556231,8.51663 -2.806086,2.06572 -4.804785,2.74664 -11.186477,3.81105 -1.79887,0.30003 -10.172514,0.81832 -12.038541,0.74512 -0.509323,-0.02 -2.592917,-0.11973 -4.630208,-0.22167 z m 7.850835,-8.65603 c 0.207224,-0.58536 0.351248,-2.13911 0.351248,-3.78931 0,-2.58778 -0.05951,-2.91347 -0.795142,-4.35161 -1.520002,-2.97157 -3.639849,-3.2557 -5.359852,-0.71841 -0.778367,1.14821 -0.879721,1.5231 -1.029896,3.80928 l -0.166566,2.53572 1.534697,1.20454 c 1.458635,1.14483 3.713586,2.24766 4.671761,2.28482 0.27981,0.0108 0.57164,-0.34763 0.79375,-0.97503 z m -8.561795,-1.05833 c -0.135173,-0.69123 -0.209097,-2.31724 -0.164279,-3.61337 l 0.08149,-2.35659 -2.910417,-2.08874 c -4.0707467,-2.92149 -9.44560613,-6.80682 -13.2052426,-9.54569 l -3.1910998,-2.3247 -0.2289783,0.7372 c -0.125939,0.40546 -0.2452026,2.4636 -0.2650305,4.57366 -0.03156,3.35827 0.038854,4.0544 0.5649145,5.58497 1.2595198,3.66459 3.202633,5.77114 7.06502038,7.6593 3.62579962,1.7725 6.72969272,2.58678 9.95386032,2.61134 l 2.54553,0.0194 -0.245767,-1.25677 z m -30.227159,-1.31026 c 0.344636,-2.75838 -0.586165,-6.04562 -2.116283,-7.47391 -1.91293,-1.78563 -4.667123,0.34347 -5.092709,3.93688 -0.140824,1.18904 -0.08744,1.33753 0.856457,2.38231 0.553653,0.61283 1.461328,1.3462 2.017056,1.62971 1.106133,0.56431 3.68149,1.29803 3.968102,1.13052 0.09896,-0.0578 0.264276,-0.78031 0.367377,-1.60551 z m 60.296522,-7.42099 c -0.634047,-1.51837 -4.019684,-6.99363 -5.168264,-8.35814 -0.10287,-0.12221 -0.386684,0.37888 -0.630696,1.11353 -0.244012,0.73466 -0.733382,1.76267 -1.08749,2.28447 -0.810596,1.19449 -0.808403,1.45441 0.01228,1.45441 1.552252,0 4.211177,1.48769 6.090771,3.40784 0.582084,0.59464 1.089697,1.08317 1.12803,1.08562 0.03833,0.002 -0.116747,-0.44203 -0.344625,-0.98773 z m -55.079149,-3.77032 c 0.645425,-0.43252 1.075309,-0.97682 1.242041,-1.57262 0.140243,-0.50114 0.22845,-0.92995 0.196014,-0.95292 -0.03244,-0.023 -0.75566,-0.35603 -1.607163,-0.74013 l -1.54819,-0.69837 -1.097644,0.94093 c -0.603705,0.51751 -1.968923,1.37199 -3.033819,1.89884 l -1.936173,0.9579 1.194491,0.3033 c 1.297375,0.32941 3.281092,1.52015 3.505125,2.10397 0.09982,0.26012 0.419208,0.0867 1.118976,-0.60771 0.538608,-0.53445 1.423462,-1.26938 1.966342,-1.63319 z m 39.366305,-15.69161 c 5.326695,-1.38457 9.130546,-3.51712 12.791516,-7.1713 3.361656,-3.35542 4.041254,-4.52577 4.793142,-8.25432 1.083796,-5.37448 0.785373,-9.70574 -0.982433,-14.25881 -1.108217,-2.85427 -2.30229,-4.6221 -4.835569,-7.15908 -6.726492,-6.73632 -18.727843,-10.87953 -28.7552522,-9.92713 -3.0393771,0.28868 -7.6511518,1.63461 -9.72329693,2.83772 -2.67468077,1.55296 -5.50618267,4.10064 -7.19787297,6.4764 l -0.5300635,0.74441 0.7398437,0.14992 c 4.6355528,0.93937 9.1664443,3.29637 10.6109846,5.51991 0.6150689,0.94676 0.7084033,1.3592 0.6964759,3.07764 -0.00984,1.41675 -0.1693703,2.32495 -0.557731,3.175 -0.6643979,1.45424 -2.4124602,3.46239 -3.71438744,4.26702 -0.53087586,0.3281 -0.82508722,0.64326 -0.65380127,0.70036 0.17128595,0.0571 0.3114278,0.43653 0.3114278,0.84319 0,1.21167 0.70746935,2.54101 1.89182371,3.55478 0.6126136,0.52437 1.1923633,0.9534 1.2883303,0.9534 0.2022501,0 0.7885959,-1.21282 0.7885959,-1.63116 0,-0.15585 -0.3571875,-0.69017 -0.79375,-1.18738 -0.5553101,-0.63247 -0.79375,-1.17945 -0.79375,-1.82087 0,-0.85382 0.057819,-0.91684 0.8412427,-0.91684 0.8800279,0 4.0782292,0.96261 4.6488613,1.39924 0.6180772,0.47293 0.3818784,1.47114 -0.4498816,1.90126 -0.4293367,0.22202 -0.9539261,0.40367 -1.1657541,0.40367 -0.3597381,0 -1.3677477,2.33033 -1.1166316,2.58145 0.1532863,0.15328 3.5187465,0.57436 4.6747613,0.58489 0.8753104,0.008 0.9743154,-0.0715 1.2544874,-1.0066 0.167299,-0.55839 0.534392,-1.2236 0.815766,-1.47824 0.473654,-0.42865 0.483632,-0.54222 0.134578,-1.53155 -0.547979,-1.55314 -0.4801,-4.85049 0.127391,-6.18816 0.581134,-1.27963 2.013424,-2.78135 3.233063,-3.38979 2.451976,-1.2232 6.413555,-1.68519 9.359408,-1.09147 5.101319,1.02815 8.91214,4.07593 10.59898,8.47676 1.078309,2.81322 0.315277,6.96982 -1.686121,9.18513 -4.507661,4.98944 -12.014678,4.82642 -17.522491,-0.3805 -1.158568,-1.09528 -2.674442,-3.09673 -2.961256,-3.90984 -0.09786,-0.27741 -0.236688,-0.15794 -0.461222,0.39688 -0.411967,1.01797 -0.217236,4.02075 0.332166,5.12205 0.467384,0.93689 0.341998,1.04701 -0.419073,0.36805 -0.503177,-0.44889 -0.512707,-0.44283 -0.312288,0.19844 0.413745,1.32382 0.21644,4.82834 -0.368205,6.54009 -0.30907,0.90491 -0.561948,1.70859 -0.561948,1.78594 0,0.25358 1.023127,0.14707 1.190625,-0.12395 0.266115,-0.43058 1.002318,-0.31582 0.831397,0.1296 -0.270917,0.70599 1.460016,0.908 6.841519,0.79841 3.461229,-0.0705 4.69533,-0.20629 6.766393,-0.74462 z m -31.6791037,-0.24879 c 0.4575545,-0.80358 0.4596579,-0.87209 0.034467,-1.1228 -4.1375672,-2.43969 -9.2722173,-6.66843 -10.8686793,-8.9511 -0.43191,-0.61755 -0.646078,-0.71548 -1.239178,-0.56662 -0.695969,0.17467 -0.717009,0.23544 -0.71655,2.0695 l 4.77e-4,1.88955 1.124006,0.72599 c 0.6182,0.39929 2.969471,2.0856 5.225044,3.74735 3.3144616,2.44185 4.2786562,3.02543 5.027083,3.04264 0.7774093,0.0179 1.0042525,-0.11606 1.4133303,-0.83451 z M 7.049362,386.73769 c -0.3983143,-0.7525 -0.7837381,-1.36844 -0.8564985,-1.36874 -0.1728444,-8e-4 -1.0583333,1.55686 -1.0583333,1.86162 0,0.20325 2.4056048,1.06924 2.5762901,0.92744 0.03451,-0.0287 -0.2631466,-0.66782 -0.6614583,-1.42032 z m -7.66291513,-2.18135 c -0.0889053,-0.33998 -0.28627122,-0.48889 -0.52603667,-0.39688 -0.2110581,0.081 -0.5228325,0.15104 -0.6928326,0.15567 -0.4048654,0.011 0.6201701,0.78534 1.0396273,0.78534 0.19422003,0 0.26519187,-0.21546 0.17924197,-0.54413 z M -4.143735,382.1239 c 0.5081693,-1.729 1.7860883,-4.13716 3.1064093,-5.85384 l 1.19548276,-1.55435 -0.51352978,-0.6946 c -0.93961478,-1.27092 -1.38926358,-2.37736 -1.38926358,-3.41852 v -1.03041 l -1.5213541,0.52859 c -2.2997503,0.79904 -5.6301162,0.88764 -7.5840376,0.20177 -0.860621,-0.3021 -1.586621,-0.5192 -1.613334,-0.48245 -0.02671,0.0368 -0.184176,0.76336 -0.349919,1.61467 -0.16574,0.8513 -0.672441,2.30163 -1.125999,3.22293 l -0.82465,1.6751 0.712253,0.93382 c 0.391739,0.51359 1.624537,1.51901 2.739549,2.23427 2.5320148,1.62421 6.1656143,3.68965 6.5490484,3.72265 0.1588665,0.0137 0.4375732,-0.48116 0.6193446,-1.09963 z m -10.889043,-12.46187 1.346878,-0.90638 -0.679811,-0.62499 c -0.373896,-0.34374 -1.007035,-1.07025 -1.406976,-1.61446 l -0.727164,-0.98947 -0.295309,1.17278 c -0.468152,1.85921 -0.331795,4.33076 0.220113,3.98966 0.107464,-0.0664 0.801485,-0.52863 1.542269,-1.02714 z m 20.4318915,0.51779 c 0,-0.0572 -0.1785937,-0.17252 -0.396875,-0.25628 -0.2182812,-0.0838 -0.396875,-0.037 -0.396875,0.10398 0,0.14095 0.1785938,0.25628 0.396875,0.25628 0.2182813,0 0.396875,-0.0468 0.396875,-0.10398 z"
				  style="fill:#b4b5b5;" />
			<path id="path1679"
				  d="m 13.07203,426.88416 c -2.110052,-0.11273 -5.3842707,-0.46488 -7.2760415,-0.78255 -4.145645,-0.69614 -3.8730157,-0.68748 -8.4481376,-0.2684 -2.3343843,0.21383 -5.9235127,0.29186 -9.7895829,0.21283 -5.384033,-0.11006 -6.320009,-0.19454 -7.935891,-0.71626 -4.617033,-1.49073 -6.980066,-6.42523 -6.233387,-13.01659 0.426192,-3.76224 1.627816,-6.16544 3.54741,-7.09471 0.612215,-0.29636 1.311384,-0.53885 1.553709,-0.53885 0.266596,0 0.501936,-0.28733 0.595932,-0.7276 0.08544,-0.40018 0.377177,-1.34189 0.648308,-2.09267 l 0.492966,-1.36507 -1.767746,-0.30081 c -2.250573,-0.38297 -4.810454,-1.08588 -4.810454,-1.32089 0,-0.30826 3.226551,-2.11488 4.820449,-2.6991 l 1.513158,-0.55462 -1.70037,-1.86305 c -0.935203,-1.02467 -1.638863,-1.96256 -1.563689,-2.0842 0.07518,-0.12163 0.49958,-0.22115 0.943124,-0.22115 0.666214,0 0.772408,-0.0805 0.610716,-0.46302 -0.107649,-0.25467 -0.253847,-1.43513 -0.324884,-2.62325 l -0.129158,-2.16022 -2.679986,-1.91716 c -1.473992,-1.05443 -2.828814,-2.09939 -3.010715,-2.32212 -0.788395,-0.96535 -0.04744,-3.18769 1.490681,-4.471 1.050486,-0.87647 2.653875,-0.13213 6.843694,3.17701 0.255341,0.20168 0.330729,-0.0412 0.330729,-1.06541 0,-1.20658 -0.06199,-1.34219 -0.685009,-1.49856 -1.078041,-0.27057 -3.108525,-2.50429 -3.989963,-4.38933 -0.856659,-1.83204 -1.851729,-5.19719 -1.608673,-5.44024 0.162996,-0.163 2.06459,0.748 3.135826,1.50228 l 0.688639,0.48489 0.331666,-1.11475 c 0.182417,-0.61311 0.752301,-2.03748 1.26641,-3.16527 0.884097,-1.93942 1.390271,-2.54148 1.390271,-1.65364 0,0.79912 0.416631,0.32562 1.247055,-1.41726 0.504459,-1.05876 1.580373,-2.58679 2.645833,-3.75767 2.227064,-2.44741 3.500615,-4.187 4.443728,-6.06987 0.4008937,-0.80036 1.0876568,-1.95713 1.5261401,-2.5706 l 0.7972372,-1.1154 -0.7099591,-0.93081 c -1.9462192,-2.55162 -2.4817412,-5.29487 -1.5521302,-7.95089 0.6067396,-1.73354 2.9424865,-4.12648 4.4650842,-4.57441 3.6219287,-1.06555 7.5486337,0.52678 9.4033654,3.81319 0.4416002,0.78247 0.8361045,1.42267 0.8766783,1.42267 0.040574,0 0.5947542,-0.20173 1.2315137,-0.44828 1.7535815,-0.679 11.6366524,-0.67246 14.7837864,0.01 5.533882,1.19963 11.662185,3.80195 15.975806,6.78396 1.850107,1.27897 5.172958,4.50813 6.388541,6.20839 0.535464,0.74897 0.537462,0.74939 1.413169,0.29654 1.633686,-0.84481 4.386239,-1.25859 6.19297,-0.93097 3.854973,0.69904 6.363083,2.91985 7.081662,6.27046 0.243486,1.13534 0.218178,1.64203 -0.144288,2.88887 -1.063577,3.65858 -3.81904,5.88242 -8.05335,6.49957 l -2.076651,0.30268 -0.17549,1.32291 c -0.816197,6.1528 -2.655512,11.6819 -5.066329,15.22974 -1.066088,1.56889 -3.058866,3.46594 -4.910859,4.67495 l -1.763361,1.15115 0.341201,1.39461 c 0.529932,2.16601 0.973474,2.99826 3.935111,7.38368 2.986561,4.42232 4.525785,7.27059 5.456621,10.09721 0.83212,2.52687 0.697645,5.77085 -0.326702,7.88109 -0.740953,1.52643 -2.281068,3.31904 -3.895135,4.53375 -3.222122,2.42487 -8.474522,3.67326 -17.582332,4.17897 -4.903197,0.27224 -4.631962,0.27289 -10.198917,-0.0245 z m 4.404492,-2.1282 c -1.323962,-0.69842 -3.172685,-2.55725 -3.824496,-3.84541 -0.784799,-1.55097 -1.108745,-3.52519 -1.113348,-6.78509 l -0.0042,-2.96353 -9.5458699,-6.87917 c -5.2502248,-3.78354 -9.716341,-6.97615 -9.9246977,-7.09468 -0.7007728,-0.39865 -2.3185305,4.1628 -3.0192371,8.51306 -0.5810963,3.60769 0.1372632,8.01354 1.7572989,10.77793 1.5031164,2.56487 4.7401479,5.11266 8.21184888,6.46334 3.50475272,1.36354 9.69418482,2.29008 15.57173392,2.33105 l 2.910417,0.0203 -1.019466,-0.53779 z m 1.54876,-3.62911 c 0.436634,-0.26628 1.147259,-1.12904 1.579171,-1.91724 0.695134,-1.26857 0.797311,-1.74508 0.889979,-4.15056 0.08977,-2.33014 0.02029,-2.94313 -0.487461,-4.30084 -1.499468,-4.00954 -4.719685,-4.2475 -6.3452,-0.46889 -0.54256,1.26121 -0.586314,1.69396 -0.477094,4.71864 0.103963,2.87915 0.205168,3.48117 0.74739,4.44593 0.668477,1.18939 1.90143,2.14794 2.770171,2.15363 0.291042,0.002 0.886412,-0.2144 1.323044,-0.48067 z m -39.017202,-0.31402 c 0.413661,-0.29455 1.086885,-1.21728 1.496052,-2.05052 0.674717,-1.374 0.743121,-1.77347 0.735129,-4.29309 -0.0073,-2.3137 -0.110433,-3.00599 -0.616696,-4.14116 -0.855087,-1.91732 -1.663316,-2.60572 -3.05931,-2.60572 -1.326814,0 -1.786374,0.32875 -2.74451,1.96328 -0.625236,1.06663 -0.721828,1.54843 -0.806665,4.0237 -0.120454,3.51448 0.346244,5.36188 1.695368,6.71101 1.088602,1.0886 2.146397,1.21439 3.300632,0.3925 z M 42.494873,408.0816 c -0.838726,-1.83043 -4.940268,-8.16447 -5.286817,-8.16447 -0.117575,0 -0.362312,0.55537 -0.543856,1.23414 -0.181546,0.67878 -0.688081,1.7646 -1.125635,2.41293 -0.437552,0.64833 -0.760193,1.20385 -0.716981,1.23449 0.04321,0.0306 0.755152,0.20173 1.582086,0.38019 1.796838,0.38777 4.170003,1.86441 5.640234,3.50947 0.582083,0.65131 1.095105,1.15972 1.140047,1.12981 0.04494,-0.0299 -0.265141,-0.81137 -0.689078,-1.73656 z m -54.529676,-3.66655 c 0.244761,0 1.02975,-1.56511 1.02975,-2.05311 0,-0.11992 -0.713044,-0.54532 -1.584539,-0.94535 l -1.584542,-0.72732 -1.427161,1.07752 c -0.784938,0.59263 -2.244786,1.48661 -3.244105,1.98661 -1.588216,0.79464 -1.717022,0.9109 -1.023194,0.92347 1.128809,0.0204 2.874842,0.87728 3.719476,1.82523 l 0.721909,0.81023 1.564701,-1.44864 c 0.860587,-0.79675 1.683052,-1.44864 1.827705,-1.44864 z m 19.8151664,-1.95867 c 0,-0.19701 -4.5533044,-3.3658 -4.6694776,-3.24963 -0.063164,0.0632 0.8723312,0.83475 2.0788788,1.71463 2.0277296,1.47873 2.5905988,1.81224 2.5905988,1.535 z m 1.2512596,-1.64077 c -0.087921,-0.0879 -0.3161242,-0.0973 -0.507119,-0.0209 -0.211066,0.0845 -0.148373,0.14715 0.1598533,0.15985 0.2789132,0.0115 0.435184,-0.051 0.3472657,-0.13897 z m -6.8075094,-2.48598 c -0.518152,-0.33485 -0.8684101,-0.33485 -0.6614583,0 0.089937,0.14552 0.3648551,0.26276 0.6109282,0.26054 0.3855693,-0.003 0.3925543,-0.0395 0.05053,-0.26054 z m -1.46843744,-1.01565 c -0.43035271,-0.37993 -5.78582346,-4.18131 -6.20447896,-4.40402 -0.3527769,-0.18766 -0.3527769,-0.16425 0,0.21074 0.5708809,0.60681 5.90524316,4.39482 6.20447896,4.40589 0.15875,0.006 0.15875,-0.0725 0,-0.21261 z m -7.52739556,-5.46664 c -0.1811576,-0.21828 -0.4484397,-0.39687 -0.5939605,-0.39687 -0.1475925,0 -0.1189408,0.17548 0.064794,0.39687 0.1811576,0.21828 0.4484397,0.39688 0.5939605,0.39688 0.1475925,0 0.1189408,-0.17549 -0.064794,-0.39688 z m 36.1334034,-0.50121 c 7.869306,-2.14299 11.545914,-5.71376 14.094695,-13.68895 2.152142,-6.73409 2.167885,-12.87746 0.04753,-18.54462 -2.80605,-7.49984 -11.88303,-13.85333 -23.420419,-16.39328 -2.196737,-0.48361 -3.454207,-0.58091 -7.408333,-0.57322 -4.6035144,0.009 -4.854686,0.0377 -7.5239667,0.86152 -3.3551493,1.0355 -5.36603552,2.00797 -7.3661346,3.56229 -2.1987907,1.70873 -5.3505231,5.10045 -5.3505231,5.75794 0,0.1259 0.3098588,0.22891 0.6885781,0.22891 1.1613065,0 5.4299933,1.55589 7.29369708,2.65847 2.24744752,1.32961 3.54317022,2.8249 3.90340312,4.50461 0.3278875,1.52888 0.030612,3.43219 -0.7861115,5.0331 -0.6376829,1.24996 -2.58843718,3.24083 -3.77857531,3.85628 -0.68737425,0.35545 -0.74713568,0.46162 -0.40262967,0.71528 0.22250399,0.16384 0.47257227,0.80836 0.55570435,1.43227 0.1731301,1.29931 1.19566793,2.78443 2.31605393,3.36381 1.0182119,0.52653 0.9922272,0.53653 1.4492658,-0.55732 0.3909986,-0.93579 0.3838125,-0.9677 -0.3781716,-1.6795 -1.2406551,-1.15894 -1.430184,-2.92284 -0.3140551,-2.92284 0.8387608,0 4.1022692,1.08023 4.6002361,1.52269 0.2546615,0.22628 0.4630209,0.5531 0.4630209,0.72627 0,0.44003 -0.7853812,1.07647 -1.6840253,1.36466 -0.5693965,0.18261 -0.8736409,0.54779 -1.2228512,1.46775 -0.4603803,1.21282 -0.4594489,1.22624 0.096523,1.38829 0.3087687,0.09 1.6480075,0.23557 2.9760861,0.32349 l 2.4146906,0.15987 0.312351,-0.94644 c 0.171794,-0.52053 0.532725,-1.22659 0.802071,-1.56901 0.455856,-0.57952 0.462791,-0.72246 0.10029,-2.06705 -0.508367,-1.88564 -0.339727,-4.55534 0.37537,-5.94239 1.070038,-2.07553 2.686611,-3.20426 5.635982,-3.93522 5.13135,-1.27171 10.531205,0.0946 14.16522,3.58414 2.266061,2.17598 3.364346,4.41908 3.499,7.14622 0.218178,4.41869 -2.02421,7.80642 -6.304041,9.52395 -2.192981,0.88007 -5.87906,0.82528 -8.151199,-0.12114 -3.065766,-1.277 -6.113372,-3.81587 -7.504805,-6.25205 -0.33873,-0.59306 -0.695709,-1.0792 -0.793284,-1.08032 -0.609757,-0.007 -0.701974,3.59119 -0.134269,5.23896 0.405832,1.17794 0.323163,1.40461 -0.235595,0.64598 -0.283607,-0.38506 -0.316267,-0.0398 -0.193979,2.05052 0.208438,3.56286 -0.864873,7.38137 -2.144607,7.62983 -0.6331899,0.12294 -2.2680529,-1.65834 -3.0675179,-3.34224 -0.3596084,-0.75745 -0.7150232,-1.37638 -0.7898103,-1.3754 -0.1437799,0.002 -2.1203496,3.53965 -2.1203496,3.79512 0,0.17739 2.9953319,1.08719 4.9596858,1.50646 l 1.387811,0.29621 1.258022,-1.07718 1.258022,-1.07719 0.0783,1.41705 0.07829,1.41706 1.906082,0.30076 c 1.048342,0.16543 2.263267,0.35072 2.699829,0.41176 0.436563,0.0611 2.69875,0.0651 5.027083,0.009 3.456411,-0.0832 4.673616,-0.22182 6.632363,-0.75523 z m -37.7209034,-0.52435 c 0,-0.21013 -7.4715166,-5.48174 -7.5947176,-5.35854 -0.07152,0.0715 0.501676,0.5847 1.273765,1.1404 0.772089,0.5557 2.420862,1.74869 3.663938,2.65109 2.0600961,1.4955 2.6570146,1.84755 2.6570146,1.56705 z m 3.6267812,-2.13186 0.584073,-0.90191 -1.1132396,-0.57902 c -3.1954548,-1.66203 -7.3981412,-5.08049 -9.9364802,-8.08231 -1.051621,-1.24364 -1.204685,-1.33517 -1.783873,-1.06673 -0.579918,0.26878 -0.633613,0.45043 -0.634306,2.14573 l -7.67e-4,1.85208 2.427644,1.71351 c 1.335204,0.94243 3.6861,2.63679 5.2242127,3.76526 3.346106,2.45492 4.259482,2.65625 5.2327253,1.15339 z m 4.38211108,-3.12643 c -0.0786553,-0.90951 -0.16869832,-1.68553 -0.20009643,-1.7245 -0.0313981,-0.039 -0.58083185,0.16678 -1.22096205,0.45721 -0.6401329,0.29044 -1.5602876,0.53068 -2.0447952,0.53387 -0.8553582,0.006 -0.8756623,-0.0191 -0.6998494,-0.85408 0.6161379,-2.92605 1.7706948,-5.37694 3.72579097,-7.90907 1.04490041,-1.3533 1.11209928,-1.52652 0.71851042,-1.85209 -0.66042115,-0.54628 -1.66741209,-2.89338 -1.67032249,-3.89319 -0.00212,-0.73977 -0.079968,-0.85718 -0.4656058,-0.70259 -1.5052648,0.60343 -3.0799801,0.95375 -4.8286456,1.07419 -1.6271187,0.11208 -2.2939983,0.028 -3.7041663,-0.46711 l -1.719792,-0.60379 -0.461068,1.85209 c -0.253587,1.01864 -0.808244,2.5323 -1.232571,3.36367 l -0.771503,1.5116 1.100279,1.25947 c 1.56923,1.79627 4.1729415,4.21577 5.989142,5.56541 1.5734188,1.16922 6.756331,4.02635 7.3230261,4.03688 0.21407966,0.004 0.26279739,-0.48971 0.16262878,-1.64797 z M -17.095776,384.43261 c -0.184075,-0.22179 -0.38917,-0.34878 -0.455766,-0.28218 -0.183488,0.18349 0.189321,0.68545 0.509085,0.68545 0.175443,0 0.155371,-0.15181 -0.05332,-0.40327 z m -1.339658,-1.00525 c -1.813282,-1.40803 -6.648855,-4.70877 -6.750061,-4.60756 -0.07667,0.0767 1.376965,1.22256 3.230301,2.54643 1.853335,1.32387 3.428268,2.34847 3.499851,2.27689 0.07158,-0.0716 0.08054,-0.16868 0.01991,-0.21576 z m 3.299334,-13.57837 c 1.384597,-0.89867 1.834382,-1.41727 1.229202,-1.41727 -0.140807,0 -0.762632,-0.67102 -1.381835,-1.49114 l -1.125822,-1.49115 -0.326024,0.76354 c -0.374329,0.87667 -0.467666,4.6 -0.115313,4.6 0.129018,0 0.902924,-0.43379 1.719792,-0.96398 z m 20.7997968,0.46312 c 0,-0.25449 -0.6434666,-0.56275 -1.1461194,-0.54906 -0.1699974,0.005 -0.077973,0.18322 0.2045018,0.39687 0.5830331,0.44099 0.9416176,0.49894 0.9416176,0.15219 z"
				  style="fill:#7494a2;" />
			<path id="path1677"
				  d="m 10.170233,426.62627 c -1.3777061,-0.1314 -3.8780185,-0.47065 -5.5562493,-0.75388 -2.4246681,-0.4092 -3.4588661,-0.4666 -5.03570333,-0.27949 -1.09140617,0.1295 -4.48468737,0.31384 -7.54062477,0.40964 -11.3977326,0.3573 -15.1927616,-0.72492 -17.2950436,-4.93196 -1.137358,-2.27605 -1.446338,-4.10827 -1.291706,-7.6597 0.24859,-5.70934 2.309149,-8.73607 5.942355,-8.72866 1.475321,0.003 3.599829,0.91006 4.551111,1.94308 l 0.637965,0.69279 1.214118,-1.13406 c 0.667765,-0.62374 1.591585,-1.35652 2.052934,-1.62841 0.591883,-0.34882 0.888987,-0.76178 1.009248,-1.40283 0.09374,-0.49966 0.113768,-0.96514 0.04451,-1.0344 -0.06925,-0.0692 -0.825132,-0.45659 -1.679726,-0.86075 l -1.553806,-0.73484 -1.155501,1.02542 c -1.23728,1.09799 -4.935279,3.06392 -5.222706,2.77649 -0.145464,-0.14546 0.19299,-1.55515 0.883528,-3.67997 0.125667,-0.38668 -0.01819,-0.46369 -0.87257,-0.46708 -1.012761,-0.004 -5.079791,-0.92178 -5.369735,-1.21173 -0.32081,-0.32081 3.251665,-2.3247 5.368354,-3.01125 l 1.021666,-0.33137 -1.921477,-1.93439 -1.921476,-1.93439 0.899811,-0.0859 c 0.788463,-0.0752 0.889199,-0.16773 0.814057,-0.74734 -0.04716,-0.3638 -0.106697,-1.56808 -0.132292,-2.67616 l -0.04654,-2.01471 -2.736576,-1.95404 c -2.998878,-2.14134 -3.481132,-2.65318 -3.481132,-3.69466 0,-0.90957 1.679881,-3.10088 2.543284,-3.31758 0.859737,-0.21578 1.551759,0.11036 3.889566,1.8331 2.744283,2.02228 2.562983,1.98729 2.562983,0.49468 0,-1.1984 -0.0648,-1.33327 -0.783659,-1.63103 -2.250234,-0.93208 -5.301757,-6.07396 -5.301757,-8.93358 0,-0.5323 0.09237,-0.60195 0.589212,-0.44425 0.324067,0.10285 1.122927,0.5192 1.775245,0.92521 0.652318,0.40601 1.264763,0.68955 1.360989,0.63008 0.09623,-0.0595 0.246216,-0.46443 0.333312,-0.89991 0.207803,-1.03902 2.04053,-5.04007 2.308661,-5.04007 0.1146,0 0.251624,0.20836 0.304498,0.46302 0.06444,0.31038 0.330521,0.002 0.807078,-0.93568 0.99972,-1.96686 1.970219,-3.3157 4.094639,-5.6909 1.014613,-1.13439 2.231429,-2.74173 2.704033,-3.57187 1.5721784,-2.76158 2.3908098,-4.1505 2.7219834,-4.61821 0.2230306,-0.31499 0.2436919,-0.57726 0.064622,-0.82032 -2.6764774,-3.63291 -3.1108654,-6.20727 -1.5765515,-9.34329 2.040583,-4.17081 7.0939578,-5.27588 11.1076313,-2.42902 1.0046255,0.71257 2.7733968,3.03852 2.7733968,3.64705 0,0.38464 0.3398731,0.35478 2.0759446,-0.18239 2.3459545,-0.72587 10.8792194,-0.6368 14.4605134,0.15093 9.055359,1.9918 18.017825,7.06271 21.563541,12.20052 1.028356,1.49011 0.958434,1.47962 3.571875,0.53564 4.298267,-1.55254 9.593963,0.46571 11.235718,4.28207 1.502627,3.49296 -0.403373,7.96553 -4.172701,9.79156 -0.683202,0.33097 -2.254216,0.78673 -3.491143,1.0128 l -2.248958,0.41103 -0.07684,1.05426 c -0.171003,2.34631 -1.480926,7.83108 -2.483747,10.39968 -1.801317,4.61383 -4.348366,7.84759 -7.805417,9.90984 -1.426189,0.85077 -1.429586,0.85594 -1.25554,1.91141 0.288668,1.7506 1.472416,4.03415 4.114659,7.9375 4.685594,6.92197 5.867969,9.65385 5.899446,13.63068 0.01844,2.32956 -0.04483,2.64981 -0.844645,4.27532 -0.582207,1.18325 -1.382434,2.23657 -2.45016,3.2251 -2.999243,2.77677 -5.509326,3.76892 -12.163385,4.80776 -3.276251,0.51149 -15.896381,0.74907 -19.83513,0.3734 z m 8.72263,-1.17329 c 0,-0.0708 -0.417978,-0.30339 -0.928841,-0.51684 -1.525407,-0.63736 -3.681452,-2.88543 -4.526349,-4.71955 -0.707935,-1.53679 -0.761981,-1.89239 -0.812318,-5.34448 l -0.05393,-3.69814 -9.8330378,-7.08363 c -5.4081705,-3.89599 -9.9260207,-7.08362 -10.0396672,-7.08362 -0.3326633,0 -2.0921821,5.23787 -2.5186639,7.49775 -1.0325651,5.47147 0.097523,10.69736 3.0252457,13.98967 2.434074,2.7372 6.98372713,5.01918 11.7105717,5.87371 2.3518071,0.42516 7.8597815,0.91984 12.9847975,1.16618 0.545703,0.0262 0.992187,-0.0102 0.992187,-0.081 z m 0.807731,-4.88112 c 1.355931,-1.42538 1.943727,-3.29202 1.921695,-6.10264 -0.03112,-3.96951 -1.706229,-6.87917 -3.960384,-6.87917 -1.237279,0 -2.820858,1.5183 -3.251457,3.11743 -0.330546,1.22756 -0.411731,5.90541 -0.123279,7.10335 0.540631,2.24521 1.964872,3.77926 3.522183,3.79375 0.710105,0.007 1.110575,-0.21207 1.891242,-1.03272 z m -39.320427,-0.0834 c 0.471517,-0.47294 1.126591,-1.57427 1.455721,-2.4474 0.844832,-2.2412 0.689734,-5.97053 -0.331777,-7.97754 -1.381632,-2.71456 -3.224275,-3.25551 -4.94124,-1.4506 -1.202634,1.26423 -1.658649,2.79956 -1.683074,5.66666 -0.02572,3.01895 0.454971,4.75487 1.670482,6.03264 1.317651,1.38514 2.567302,1.44264 3.829888,0.17624 z m 61.779209,-9.03107 c -0.727123,-1.23238 -3.097966,-3.42633 -4.44545,-4.11377 -2.858822,-1.45846 -6.405681,-1.18229 -10.685126,0.83197 -1.898187,0.89345 -2.315104,1.19653 -2.315104,1.68299 0,0.56423 0.132173,0.52642 2.696842,-0.77148 l 2.696843,-1.36479 h 3.062075 c 2.940339,0 3.133937,0.0354 4.86944,0.88911 1.112734,0.54739 2.33136,1.43303 3.170766,2.30437 0.749874,0.7784 1.389158,1.4201 1.42063,1.426 0.03148,0.006 -0.180438,-0.39208 -0.470916,-0.8844 z m -54.553491,-3.42355 c 0.345239,-0.27966 0.595312,-0.77563 0.595312,-1.18068 0,-0.67428 -0.0458,-0.65335 -1.322916,0.60457 -0.976315,0.96163 -1.322917,1.50158 -1.322917,2.06087 v 0.75785 l 0.727604,-0.88019 c 0.400183,-0.48411 0.995495,-1.0972 1.322917,-1.36242 z m 54.857939,-0.10004 c -0.812588,-1.75534 -5.019566,-8.26724 -5.347041,-8.27658 -0.09054,-0.003 -0.236331,0.44374 -0.323974,0.99183 -0.08764,0.5481 -0.579112,1.69362 -1.09215,2.5456 -0.513038,0.85199 -0.932796,1.57895 -0.932796,1.61549 0,0.0365 0.498734,0.14616 1.108299,0.24364 1.671924,0.26735 4.135266,1.69905 5.76743,3.35204 0.802254,0.81249 1.502381,1.44344 1.555837,1.40211 0.05346,-0.0413 -0.277566,-0.88468 -0.735605,-1.87413 z m -20.846631,-0.46732 c -1.007851,-1.38383 -3.156773,-1.77655 -4.46932,-0.81679 -0.373756,0.27329 -0.208392,0.31056 0.978333,0.22044 1.145956,-0.087 1.663354,0.0186 2.61874,0.53479 0.654844,0.35377 1.22595,0.65921 1.269122,0.67875 0.04317,0.0195 -0.135419,-0.2582 -0.396875,-0.61719 z m -11.36369,-4.38559 c 1.446953,-0.85373 2.439607,-1.05671 6.340012,-1.29645 4.70277,-0.28905 5.340363,-0.59854 7.648731,-3.71278 0.91414,-1.23328 2.178587,-2.6025 2.809883,-3.04271 1.078515,-0.75207 1.297344,-0.80039 3.624955,-0.80039 h 2.477148 l -0.84683,-0.45193 c -1.03146,-0.55046 -1.95488,-0.56977 -3.991015,-0.0835 -1.811054,0.43255 -2.770785,1.22738 -3.920469,3.24687 -1.034843,1.81776 -2.814851,3.36612 -4.299497,3.73996 -0.645314,0.16249 -2.579878,0.29544 -4.299029,0.29544 -3.475072,0 -4.620218,0.22987 -5.570149,1.11816 -0.6395188,0.59801 -1.2578633,1.52767 -1.0161029,1.52767 0.069562,0 0.5386255,-0.24317 1.0423629,-0.54038 z m -2.4731396,-0.63444 c 0,-0.0641 -1.4585155,-1.16371 -3.2411457,-2.44366 -8.6372671,-6.20167 -10.4340286,-7.49745 -11.0463538,-7.96632 -0.3638021,-0.27858 -2.983177,-2.17355 -5.8208329,-4.21104 -2.837656,-2.0375 -6.816516,-4.91289 -8.84191,-6.38977 -2.025395,-1.47687 -3.80708,-2.68522 -3.959301,-2.68522 -0.152221,0 -0.102424,0.16899 0.110661,0.37554 0.497222,0.48197 6.313121,4.65154 6.488173,4.65154 0.07267,0 0.872858,0.57294 1.778191,1.2732 1.914656,1.48095 8.3609713,6.13513 8.4975228,6.13513 0.051049,0 1.5685637,1.10133 3.3722573,2.4474 1.803691,1.34607 3.9321686,2.8948 4.72994288,3.44164 2.14892462,1.47297 2.53645182,1.7514 5.14666952,3.69781 2.191848,1.63443 2.7861259,1.99144 2.7861259,1.67375 z m 1.3229167,-1.75121 c 0,-0.13693 -0.1785938,-0.24897 -0.396875,-0.24897 -0.4091543,0 -0.5256477,0.3122 -0.2276793,0.61017 0.2113836,0.21138 0.6245543,-0.0276 0.6245543,-0.3612 z m 20.1083329,-9.21495 c 4.518252,-1.2254 8.261887,-3.37284 10.331031,-5.92614 2.902172,-3.58124 4.833623,-9.20001 5.659173,-16.46307 0.17099,-1.50433 -0.207933,-5.04998 -0.791504,-7.40627 -0.535821,-2.16347 -2.164757,-5.47933 -3.668013,-7.46658 -3.851275,-5.09127 -11.87582,-9.60424 -20.456128,-11.50444 -3.534934,-0.78285 -11.5279536,-0.85604 -13.9610169,-0.12784 -5.019606,1.50233 -8.0478733,3.14827 -10.8301389,5.88644 -1.4314937,1.4088 -3.0604856,3.43905 -3.0604856,3.81435 0,0.0989 0.9360561,0.38098 2.0801276,0.62683 4.50014964,0.96703 9.2825594,4.10468 9.7073082,6.36878 0.6637655,3.53818 -0.9650174,6.98485 -4.32874192,9.16004 -1.01483848,0.65626 -1.08032278,0.75639 -0.59531248,0.91033 0.40056593,0.12713 0.54495169,0.39716 0.54495169,1.01915 0,1.2118 0.80123239,2.55257 2.14092621,3.5826 l 1.1609123,0.89258 0.491363,-1.12679 0.491363,-1.1268 -0.6621489,-0.55953 c -1.2060026,-1.0191 -1.6568737,-2.66558 -0.8180837,-2.98745 0.2326931,-0.0893 1.3340212,0.11376 2.4473957,0.45124 3.2660563,0.98999 3.7653382,1.9296 1.533644,2.88621 -0.9880599,0.42354 -1.2249678,0.67947 -1.5721514,1.6984 l -0.4087839,1.19971 1.4079802,0.2923 c 0.7743877,0.16076 2.1558249,0.25654 3.0698597,0.21284 1.5555381,-0.0744 1.6740771,-0.12531 1.8525331,-0.79611 0.104862,-0.39417 0.449273,-1.07986 0.765358,-1.52376 0.521099,-0.73181 0.543237,-0.89941 0.23736,-1.79688 -0.470681,-1.38102 -0.422709,-4.74043 0.08431,-5.90382 1.404107,-3.22182 5.385361,-4.96139 10.664621,-4.65982 5.327007,0.3043 9.771205,3.12674 11.857307,7.53039 0.757322,1.59867 0.841597,2.02012 0.831879,4.16013 -0.0097,2.13152 -0.100734,2.56741 -0.868209,4.15629 -1.81253,3.75243 -6.362779,5.95964 -10.846844,5.26153 -3.655417,-0.56909 -7.798753,-3.31007 -9.804617,-6.48613 -0.604769,-0.95758 -1.148829,-1.74106 -1.209019,-1.74106 -0.06019,0 -0.246084,0.65822 -0.413096,1.46271 -0.291558,1.40442 -0.146762,2.92929 0.426444,4.491 0.187796,0.51165 0.1767,0.51341 -0.346434,0.0549 -0.536782,-0.47043 -0.538959,-0.46594 -0.320972,0.66145 0.330049,1.70698 0.279265,4.14902 -0.117141,5.63301 -0.468604,1.75426 -1.415598,3.57188 -1.860976,3.57188 -0.5330378,0 -2.4612179,-2.2011 -3.124949,-3.56727 -0.3193812,-0.65738 -0.6462633,-1.1939 -0.7264082,-1.19226 -0.080142,0.002 -0.6382782,0.86484 -1.2403005,1.91823 -1.2850838,2.24858 -1.540285,1.96683 2.8143781,3.10722 l 2.7781246,0.72754 0.529167,-0.5727 c 0.291042,-0.31498 0.868593,-0.86593 1.283449,-1.22433 l 0.754282,-0.65164 -0.09282,1.43754 c -0.09242,1.43136 -0.08906,1.43852 0.781603,1.66498 2.119596,0.55129 4.197879,0.69681 8.650573,0.60568 3.732908,-0.0764 5.191495,-0.21381 6.746875,-0.63564 z m -34.6100841,-1.94808 c 0.2288302,-0.1819 0.6145688,-0.6461 0.857197,-1.03155 l 0.4411451,-0.70082 -1.5342314,-0.86683 c -2.6951092,-1.52272 -4.9096876,-3.22212 -7.3861216,-5.66787 -1.326767,-1.31033 -2.591266,-2.65478 -2.809999,-2.98767 -0.353122,-0.53741 -0.475674,-0.56972 -1.093425,-0.28826 -0.657363,0.29952 -0.69573,0.42192 -0.69573,2.21964 v 1.90263 l 5.357813,3.87152 c 2.9467964,2.12933 5.6029457,3.87341 5.9025546,3.87573 0.2996088,0.002 0.7319671,-0.14462 0.9607973,-0.32652 z m 5.0802353,-3.83646 c -0.0967105,-0.98227 -0.19641873,-1.81288 -0.22157531,-1.84581 -0.0251619,-0.0329 -0.66499839,0.17544 -1.42187079,0.46303 -1.8416349,0.69976 -2.429629,0.68221 -2.425647,-0.0724 0.01016,-1.92575 1.478735,-5.2984 3.43743745,-7.89424 1.24739396,-1.65315 1.26810025,-1.71055 0.80294954,-2.22607 -0.7601135,-0.84242 -1.32872689,-2.14312 -1.50769099,-3.44881 -0.1211819,-0.88412 -0.2648136,-1.17093 -0.534543,-1.06743 -3.1769155,1.2191 -6.801805,1.40548 -8.9229111,0.45878 -0.713711,-0.31854 -1.322202,-0.54796 -1.352201,-0.50981 -0.03,0.0381 -0.25727,0.911 -0.505044,1.93969 -0.247775,1.02869 -0.791685,2.54675 -1.208689,3.37346 l -0.758188,1.50312 0.994009,1.25675 c 1.226076,1.55016 4.3879054,4.42773 6.5090223,5.92383 1.2974981,0.91518 6.81250728,3.93188 7.18810183,3.93188 0.0564727,0 0.0235479,-0.80368 -0.0731599,-1.78594 z M -15.102024,369.84947 c 0.798126,-0.52993 1.44577,-1.03595 1.43921,-1.12448 -0.0066,-0.0885 -0.647248,-0.84929 -1.423749,-1.69055 -1.561282,-1.6915 -1.565752,-1.69007 -2.010079,0.64186 -0.251794,1.32148 -0.07272,3.13667 0.309445,3.13667 0.12872,0 0.887048,-0.43358 1.685173,-0.9635 z m 20.7657208,0.45216 c 0,-0.30872 -1.037709,-0.65581 -1.2690474,-0.42448 -0.1982946,0.1983 0.4527761,0.66123 0.9383183,0.66718 0.181901,0.002 0.3307291,-0.10699 0.3307291,-0.2427 z"
				  style="fill:#6c9337;" />
			<path id="path1675"
				  d="m 10.170233,426.62627 c -1.3777061,-0.1314 -3.8780185,-0.47065 -5.5562493,-0.75388 -2.4246681,-0.4092 -3.4588661,-0.4666 -5.03570333,-0.27949 -1.09140617,0.1295 -4.48468737,0.31384 -7.54062477,0.40964 -11.3977326,0.3573 -15.1927616,-0.72492 -17.2950436,-4.93196 -1.137358,-2.27605 -1.446338,-4.10827 -1.291706,-7.6597 0.24859,-5.70934 2.309149,-8.73607 5.942355,-8.72866 1.475321,0.003 3.599829,0.91006 4.551111,1.94308 l 0.637965,0.69279 1.214118,-1.13406 c 0.667765,-0.62374 1.591585,-1.35652 2.052934,-1.62841 0.591883,-0.34882 0.888987,-0.76178 1.009248,-1.40283 0.09374,-0.49966 0.113768,-0.96514 0.04451,-1.0344 -0.06925,-0.0692 -0.825132,-0.45659 -1.679726,-0.86075 l -1.553806,-0.73484 -1.112083,0.98689 c -1.104762,0.98039 -4.997122,3.08402 -5.245959,2.83518 -0.195646,-0.19564 0.45403,-2.63296 0.860926,-3.22984 0.548729,-0.80493 0.443494,-0.93309 -0.7687,-0.93618 -0.618464,-0.002 -1.691598,-0.17494 -2.384743,-0.38527 -0.693144,-0.21032 -1.320204,-0.3786 -1.393467,-0.37395 -0.07326,0.005 -0.496661,-0.0714 -0.940886,-0.16895 -0.790843,-0.1737 -0.797646,-0.18854 -0.326325,-0.71175 0.437727,-0.48591 3.512531,-2.10672 4.212005,-2.22025 0.160085,-0.026 0.603587,-0.211 0.985561,-0.41113 l 0.694498,-0.36389 -1.827912,-1.84816 -1.827911,-1.84816 0.84235,-0.13279 c 0.717689,-0.11314 0.82966,-0.23061 0.756597,-0.79375 -0.04716,-0.36353 -0.106697,-1.57369 -0.132292,-2.68925 l -0.04654,-2.02829 -1.413834,-1.01442 c -0.777609,-0.55793 -1.643299,-1.20913 -1.923755,-1.44712 -0.280456,-0.23798 -0.921698,-0.71423 -1.424982,-1.05833 -1.063356,-0.72702 -1.584172,-1.78198 -1.311539,-2.65665 0.304429,-0.97667 1.648381,-2.52674 2.341616,-2.70073 0.740312,-0.18581 2.159734,0.35433 2.993827,1.13924 0.321337,0.30239 0.655902,0.5498 0.743477,0.5498 0.08757,0 0.704987,0.41672 1.372028,0.92604 0.667039,0.50932 1.314741,0.92604 1.439335,0.92604 0.124595,0 0.226536,-0.58608 0.226536,-1.30239 0,-1.23919 -0.04244,-1.31641 -0.874348,-1.59096 -1.601951,-0.52869 -4.397583,-4.13052 -4.7837,-6.16321 -0.06276,-0.3304 -0.244125,-0.9359 -0.403031,-1.34556 -0.158907,-0.40965 -0.288921,-1.02359 -0.288921,-1.36429 0,-0.51023 0.104973,-0.59315 0.595312,-0.47024 0.327422,0.0821 1.093015,0.48765 1.701317,0.90127 0.608303,0.41363 1.227986,0.75205 1.377074,0.75205 0.149088,0 0.35083,-0.44648 0.448317,-0.99219 0.22451,-1.25674 1.84357,-4.82864 2.188715,-4.82864 0.142863,0 0.308813,0.14718 0.368777,0.32708 0.05997,0.17989 0.424342,-0.3007 0.809726,-1.06799 0.978675,-1.94849 1.949582,-3.30042 4.084396,-5.68724 1.014613,-1.13439 2.231429,-2.74173 2.704033,-3.57187 1.5721784,-2.76158 2.3908098,-4.1505 2.7219834,-4.61821 0.2230306,-0.31499 0.2436919,-0.57726 0.064622,-0.82032 -2.6764774,-3.63291 -3.1108654,-6.20727 -1.5765515,-9.34329 2.040583,-4.17081 7.0939578,-5.27588 11.1076313,-2.42902 1.0046255,0.71257 2.7733968,3.03852 2.7733968,3.64705 0,0.38464 0.3398731,0.35478 2.0759446,-0.18239 2.3459545,-0.72587 10.8792194,-0.6368 14.4605134,0.15093 9.055359,1.9918 18.017825,7.06271 21.563541,12.20052 1.028356,1.49011 0.958434,1.47962 3.571875,0.53564 4.298267,-1.55254 9.593963,0.46571 11.235718,4.28207 1.502627,3.49296 -0.403373,7.96553 -4.172701,9.79156 -0.683202,0.33097 -2.254216,0.78673 -3.491143,1.0128 l -2.248958,0.41103 -0.07684,1.05426 c -0.171003,2.34631 -1.480926,7.83108 -2.483747,10.39968 -1.801317,4.61383 -4.348366,7.84759 -7.805417,9.90984 -1.426189,0.85077 -1.429586,0.85594 -1.25554,1.91141 0.288668,1.7506 1.472416,4.03415 4.114659,7.9375 4.685594,6.92197 5.867969,9.65385 5.899446,13.63068 0.01844,2.32956 -0.04483,2.64981 -0.844645,4.27532 -0.582207,1.18325 -1.382434,2.23657 -2.45016,3.2251 -2.999243,2.77677 -5.509326,3.76892 -12.163385,4.80776 -3.276251,0.51149 -15.896381,0.74907 -19.83513,0.3734 z m 8.72263,-1.17329 c 0,-0.0708 -0.417978,-0.30339 -0.928841,-0.51684 -1.525407,-0.63736 -3.681452,-2.88543 -4.526349,-4.71955 -0.709178,-1.53949 -0.761605,-1.88672 -0.807876,-5.3505 l -0.04948,-3.70416 -0.87862,-0.695 c -0.483243,-0.38224 -3.200342,-2.36803 -6.0379982,-4.41286 -2.8376561,-2.04484 -6.885781,-4.96627 -8.995833,-6.49209 -2.110052,-1.52582 -3.920302,-2.69468 -4.0227804,-2.59748 -0.410546,0.38942 -2.0555558,5.40404 -2.4433238,7.44819 -1.0558966,5.56623 0.052559,10.76297 3.0035472,14.08145 2.434074,2.7372 6.98372713,5.01918 11.7105717,5.87371 2.3518071,0.42516 7.8597815,0.91984 12.9847975,1.16618 0.545703,0.0262 0.992187,-0.0102 0.992187,-0.081 z m 0.807731,-4.88112 c 1.355931,-1.42538 1.943727,-3.29202 1.921695,-6.10264 -0.03112,-3.96951 -1.706229,-6.87917 -3.960384,-6.87917 -1.237279,0 -2.820858,1.5183 -3.251457,3.11743 -0.330546,1.22756 -0.411731,5.90541 -0.123279,7.10335 0.540631,2.24521 1.964872,3.77926 3.522183,3.79375 0.710105,0.007 1.110575,-0.21207 1.891242,-1.03272 z m -39.320427,-0.0834 c 0.471517,-0.47294 1.126591,-1.57427 1.455721,-2.4474 0.844832,-2.2412 0.689734,-5.97053 -0.331777,-7.97754 -1.381632,-2.71456 -3.224275,-3.25551 -4.94124,-1.4506 -1.202634,1.26423 -1.658649,2.79956 -1.683074,5.66666 -0.02572,3.01895 0.454971,4.75487 1.670482,6.03264 1.317651,1.38514 2.567302,1.44264 3.829888,0.17624 z m 61.779209,-9.03107 c -0.727123,-1.23238 -3.097966,-3.42633 -4.44545,-4.11377 -2.858822,-1.45846 -6.405681,-1.18229 -10.685126,0.83197 -1.898187,0.89345 -2.315104,1.19653 -2.315104,1.68299 0,0.56423 0.132173,0.52642 2.696842,-0.77148 l 2.696843,-1.36479 h 3.062075 c 2.940339,0 3.133937,0.0354 4.86944,0.88911 1.112734,0.54739 2.33136,1.43303 3.170766,2.30437 0.749874,0.7784 1.389158,1.4201 1.42063,1.426 0.03148,0.006 -0.180438,-0.39208 -0.470916,-0.8844 z m -54.553491,-3.42355 c 0.345239,-0.27966 0.595312,-0.77563 0.595312,-1.18068 0,-0.67428 -0.0458,-0.65335 -1.322916,0.60457 -0.976315,0.96163 -1.322917,1.50158 -1.322917,2.06087 v 0.75785 l 0.727604,-0.88019 c 0.400183,-0.48411 0.995495,-1.0972 1.322917,-1.36242 z m 54.857939,-0.10004 c -0.812588,-1.75534 -5.019566,-8.26724 -5.347041,-8.27658 -0.09054,-0.003 -0.236331,0.44374 -0.323974,0.99183 -0.08764,0.5481 -0.579112,1.69362 -1.09215,2.5456 -0.513038,0.85199 -0.932796,1.57895 -0.932796,1.61549 0,0.0365 0.498734,0.14616 1.108299,0.24364 1.671924,0.26735 4.135266,1.69905 5.76743,3.35204 0.802254,0.81249 1.502381,1.44344 1.555837,1.40211 0.05346,-0.0413 -0.277566,-0.88468 -0.735605,-1.87413 z m -20.846631,-0.46732 c -1.007851,-1.38383 -3.156773,-1.77655 -4.46932,-0.81679 -0.373756,0.27329 -0.208392,0.31056 0.978333,0.22044 1.145956,-0.087 1.663354,0.0186 2.61874,0.53479 0.654844,0.35377 1.22595,0.65921 1.269122,0.67875 0.04317,0.0195 -0.135419,-0.2582 -0.396875,-0.61719 z m -13.9739975,-3.57207 -0.00487,-1.84193 -10.1815844,-7.33309 c -5.5998743,-4.0332 -12.7443891,-9.1981 -15.8767031,-11.47754 -3.132313,-2.27945 -5.953476,-4.28272 -6.26925,-4.45172 -0.507003,-0.27134 -0.653184,-0.20362 -1.250197,0.5791 -0.371834,0.4875 -0.676062,1.064 -0.676062,1.28112 0,0.21711 1.449568,1.4266 3.221262,2.68774 l 3.221262,2.29299 0.7016,-0.84041 c 0.487224,-0.58361 0.840061,-0.78727 1.154749,-0.66651 0.414973,0.15924 0.402213,0.26239 -0.151453,1.22441 -0.435685,0.75702 -0.524173,1.13095 -0.316724,1.3384 0.20745,0.20745 0.465867,0.0265 0.924946,-0.64752 0.694994,-1.02045 0.729932,-1.03965 1.269875,-0.69773 0.303461,0.19216 0.268558,0.37314 -0.198437,1.02897 -0.311665,0.4377 -0.566663,0.91509 -0.566663,1.06088 0,0.14578 0.565546,0.67342 1.25677,1.17252 0.691224,0.4991 2.367836,1.71034 3.725805,2.69163 2.673146,1.93167 2.5848599,1.92285 3.4996673,0.34979 0.2143919,-0.36865 0.3802777,-0.40802 0.7916386,-0.18787 0.5088387,0.27232 0.5057246,0.30014 -0.1399593,1.25035 -0.4658545,0.68556 -0.577043,1.05265 -0.3774704,1.2462 0.197395,0.19144 0.5039227,0.0122 1.0141399,-0.59286 0.4910878,-0.58242 0.8735007,-0.81264 1.1644259,-0.701 0.384519,0.14756 0.3613679,0.28958 -0.2060813,1.26411 l -0.6392703,1.09787 2.774725,1.98438 c 1.5260981,1.0914 2.9312737,2.09299 3.1226097,2.22575 0.2440887,0.16936 0.57545025,-0.0133 1.11057796,-0.61222 0.52364215,-0.58606 0.9039304,-0.7994 1.21331827,-0.68068 0.40410867,0.15508 0.37854997,0.28185 -0.24757062,1.22798 -0.55787394,0.843 -0.62606764,1.09963 -0.33929901,1.27686 0.24419718,0.15092 0.52791253,-0.004 0.8877247,-0.48346 0.8787526,-1.17197 0.9251791,-1.202 1.33391,-0.86278 0.3369601,0.27965 0.3022442,0.45051 -0.259834,1.27878 -0.3568197,0.5258 -0.5565537,1.04651 -0.4438571,1.15713 0.1556967,0.15283 5.7030433,4.20694 5.7511975,4.20309 0.00548,-5.3e-4 0.00775,-0.82966 0.00508,-1.84273 z m 2.6103075,-0.81352 c 1.446953,-0.85373 2.439607,-1.05671 6.340012,-1.29645 4.70277,-0.28905 5.340363,-0.59854 7.648731,-3.71278 0.91414,-1.23328 2.178587,-2.6025 2.809883,-3.04271 1.078515,-0.75207 1.297344,-0.80039 3.624955,-0.80039 h 2.477148 l -0.84683,-0.45193 c -1.03146,-0.55046 -1.95488,-0.56977 -3.991015,-0.0835 -1.811054,0.43255 -2.770785,1.22738 -3.920469,3.24687 -1.034843,1.81776 -2.814851,3.36612 -4.299497,3.73996 -0.645314,0.16249 -2.579878,0.29544 -4.299029,0.29544 -3.475072,0 -4.620218,0.22987 -5.570149,1.11816 -0.6395188,0.59801 -1.2578633,1.52767 -1.0161029,1.52767 0.069562,0 0.5386255,-0.24317 1.0423629,-0.54038 z m -27.041568,-2.34779 c 3.135971,-2.24562 3.878386,-5.01479 1.704644,-6.35823 -0.949533,-0.58685 -4.571557,-1.50645 -4.847309,-1.2307 -0.224569,0.22457 1.389557,1.61476 2.667463,2.2974 0.559805,0.29903 0.961639,0.59989 0.892964,0.66856 -0.06867,0.0687 -0.991541,0.37013 -2.050814,0.66989 -1.059272,0.29977 -2.473137,0.78988 -3.141922,1.08913 l -1.215972,0.5441 1.058334,0.20751 c 0.582083,0.11413 1.863023,0.21437 2.846532,0.22276 l 1.7882,0.0152 -0.821269,1.45521 c -0.451697,0.80037 -0.710223,1.45521 -0.5745,1.45521 0.135722,0 0.897864,-0.46624 1.693649,-1.03609 z m 25.8913451,-0.0379 c 0,-0.13693 -0.1785938,-0.24897 -0.396875,-0.24897 -0.4091543,0 -0.5256477,0.3122 -0.2276793,0.61017 0.2113836,0.21138 0.6245543,-0.0276 0.6245543,-0.3612 z m 3.4577069,-5.46189 1.437085,-0.45041 -1.051021,-0.1449 c -0.95886,-0.13219 -1.077126,-0.23769 -1.348774,-1.20323 l -0.297759,-1.05833 -0.701744,1.38027 c -0.385958,0.75914 -0.701744,1.50328 -0.701744,1.65364 0,0.40238 1.03469,0.33362 2.663957,-0.17704 z m 16.650626,-3.75306 c 4.518252,-1.2254 8.261887,-3.37284 10.331031,-5.92614 2.902172,-3.58124 4.833623,-9.20001 5.659173,-16.46307 0.17099,-1.50433 -0.207933,-5.04998 -0.791504,-7.40627 -0.535821,-2.16347 -2.164757,-5.47933 -3.668013,-7.46658 -3.851275,-5.09127 -11.87582,-9.60424 -20.456128,-11.50444 -3.534934,-0.78285 -11.5279536,-0.85604 -13.9610169,-0.12784 -5.019606,1.50233 -8.0478733,3.14827 -10.8301389,5.88644 -1.4314937,1.4088 -3.0604856,3.43905 -3.0604856,3.81435 0,0.0989 0.9360561,0.38098 2.0801276,0.62683 4.50014964,0.96703 9.2825594,4.10468 9.7073082,6.36878 0.6637655,3.53818 -0.9650174,6.98485 -4.32874192,9.16004 -1.01483848,0.65626 -1.08032278,0.75639 -0.59531248,0.91033 0.40056593,0.12713 0.54495169,0.39716 0.54495169,1.01915 0,1.2118 0.80123239,2.55257 2.14092621,3.5826 l 1.1609123,0.89258 0.491363,-1.12679 0.491363,-1.1268 -0.6621489,-0.55953 c -1.2060026,-1.0191 -1.6568737,-2.66558 -0.8180837,-2.98745 0.2326931,-0.0893 1.3340212,0.11376 2.4473957,0.45124 3.2660563,0.98999 3.7653382,1.9296 1.533644,2.88621 -0.9880599,0.42354 -1.2249678,0.67947 -1.5721514,1.6984 L 4.6473,375.282 l 1.4079802,0.2923 c 0.7743877,0.16076 2.1558249,0.25654 3.0698597,0.21284 1.5555381,-0.0744 1.6740771,-0.12531 1.8525331,-0.79611 0.104862,-0.39417 0.449273,-1.07986 0.765358,-1.52376 0.521099,-0.73181 0.543237,-0.89941 0.23736,-1.79688 -0.470681,-1.38102 -0.422709,-4.74043 0.08431,-5.90382 1.404107,-3.22182 5.385361,-4.96139 10.664621,-4.65982 5.327007,0.3043 9.771205,3.12674 11.857307,7.53039 0.757322,1.59867 0.841597,2.02012 0.831879,4.16013 -0.0097,2.13152 -0.100734,2.56741 -0.868209,4.15629 -1.81253,3.75243 -6.362779,5.95964 -10.846844,5.26153 -3.655417,-0.56909 -7.798753,-3.31007 -9.804617,-6.48613 -0.604769,-0.95758 -1.148829,-1.74106 -1.209019,-1.74106 -0.06019,0 -0.246084,0.65822 -0.413096,1.46271 -0.291558,1.40442 -0.146762,2.92929 0.426444,4.491 0.192458,0.52436 0.189334,0.52447 -0.391345,0.0143 l -0.585353,-0.51427 0.209761,1.17573 c 0.548847,3.07636 -0.07303,6.97491 -1.372565,8.60468 l -0.5900318,0.73997 -1.2091511,-1.24412 c -0.6650355,-0.68427 -1.4773989,-1.83767 -1.8052573,-2.56311 -0.3278584,-0.72544 -0.6641782,-1.31622 -0.7473791,-1.31285 -0.1293733,0.005 -2.12657,3.37084 -2.3431155,3.94854 -0.084093,0.22434 1.7256918,0.82478 4.7053842,1.56111 l 1.9843746,0.49038 1.118569,-1.01871 c 0.615211,-0.56027 1.179861,-1.01869 1.254776,-1.01869 0.07492,0 0.107341,0.55514 0.07206,1.23364 -0.06198,1.19184 -0.03453,1.24152 0.810273,1.46653 2.080683,0.5542 4.181472,0.70262 8.650573,0.61116 3.732908,-0.0764 5.191495,-0.21381 6.746875,-0.63564 z m -34.6100841,-1.94808 c 0.2288302,-0.1819 0.6145688,-0.6461 0.857197,-1.03155 l 0.4411451,-0.70082 -1.5342314,-0.86683 c -3.4906319,-1.97219 -8.3780306,-6.07477 -9.8938606,-8.30509 -0.417685,-0.61457 -0.772523,-0.88183 -1.033081,-0.7781 -0.218282,0.0869 -0.575469,0.18727 -0.79375,0.22305 -0.304518,0.0499 -0.414875,0.53747 -0.474223,2.09511 -0.0668,1.75315 -0.01266,2.05355 0.396875,2.20232 0.260822,0.0947 1.025902,0.59896 1.700177,1.12048 0.674274,0.52151 1.491407,1.12679 1.81585,1.34507 0.324443,0.21828 1.02292,0.73853 1.552172,1.1561 0.529251,0.41757 1.410218,1.04506 1.957705,1.39443 0.5474861,0.34936 1.2023298,0.805 1.4552079,1.01252 0.2528782,0.20752 0.7574333,0.61786 1.1212354,0.91187 0.7544805,0.60974 1.8209286,0.70686 2.4315816,0.22144 z m 8.4794087,-2.24896 c 1.2483491,-2.03766 2.2954535,-4.14716 2.8564918,-5.75469 0.4992741,-1.43056 0.4928235,-1.43703 1.186135,1.19063 0.5333841,2.02153 1.4357905,3.9003 2.2089745,4.59898 0.5443616,0.49191 0.5545878,0.4887 0.8441291,-0.26458 0.837647,-2.17926 0.806283,-5.24824 -0.08485,-8.30315 -0.3233417,-1.10845 -0.4150939,-1.1963 -1.3293828,-1.27275 -1.0797486,-0.0903 -1.1320806,0.0184 -0.7402009,1.53733 0.1314026,0.50932 0.3100255,1.40229 0.3969385,1.98438 0.1235048,0.82714 -0.039576,0.57496 -0.7465404,-1.15438 -1.0074592,-2.46441 -1.0687526,-2.5484 -2.023147,-2.77222 -0.6461839,-0.15154 -0.7078212,-0.0597 -1.4122743,2.10339 -0.4051327,1.24402 -0.774573,2.22269 -0.8209809,2.17482 -0.046408,-0.0479 0.07769,-1.09538 0.2757699,-2.32781 0.3741393,-2.32783 0.2940156,-2.64016 -0.6798098,-2.64996 -0.2214007,-0.002 -1.0522849,0.82938 -1.846408,1.84803 -0.79412302,1.01865 -1.47923508,1.85208 -1.52247329,1.85208 -0.1065477,0 0.57543963,-1.30424 1.51698589,-2.90111 0.9799134,-1.66193 0.6212945,-1.94831 -0.58809734,-0.46961 -1.68662606,2.06219 -3.75107716,6.28114 -3.07354276,6.28114 0.3892444,0 1.75993418,-0.96657 2.96670666,-2.09202 l 1.01937344,-0.95069 -0.2256235,1.19063 c -0.34243164,1.80704 -0.200099,4.83367 0.2978124,6.33273 0.2448242,0.7371 0.4781761,1.34018 0.5185568,1.34018 0.040381,0 0.4928394,-0.68461 1.005459,-1.52135 z m -3.0861581,-0.24271 c -0.09310687,-0.24263 -0.24124972,-1.12968 -0.3292078,-1.97122 l -0.15992475,-1.53008 -1.01147555,0.51601 c -1.2586732,0.64213 -2.8846409,0.6983 -2.8846409,0.0996 0,-0.81852 1.376,-4.50223 2.1670168,-5.80134 0.4430315,-0.7276 1.2221818,-1.8362 1.73144651,-2.46354 l 0.92593315,-1.14063 -0.52916665,-0.57917 c -0.80630974,-0.88249 -1.37598141,-2.16065 -1.55939321,-3.4988 -0.1211819,-0.88412 -0.2648136,-1.17093 -0.534543,-1.06743 -3.1719863,1.21721 -6.8022018,1.40532 -8.9156561,0.46199 -0.709721,-0.31678 -1.317128,-0.57596 -1.349793,-0.57596 -0.03266,0 -0.273251,0.80367 -0.534641,1.78594 -0.26139,0.98226 -0.810938,2.49955 -1.221218,3.37174 l -0.745963,1.5858 0.698229,1.00754 c 0.929404,1.34113 4.544758,4.69843 6.6890762,6.21162 1.6712511,1.17936 6.95982465,4.02903 7.47729672,4.02903 0.14074774,0 0.1797288,-0.19852 0.08662458,-0.44115 z M -17.214224,376.40715 c 1.199189,-0.73129 3.32872,-5.06502 2.488879,-5.06502 -0.159935,0 -0.981374,0.69059 -1.825421,1.53463 l -1.53463,1.53463 -0.178147,-1.86535 c -0.09798,-1.02595 -0.323105,-2.56787 -0.500276,-3.4265 -0.299047,-1.44927 -0.343206,-1.51487 -0.61628,-0.91554 -0.161783,0.35508 -0.505396,1.53384 -0.763585,2.61947 -0.258188,1.08563 -0.504582,2.01779 -0.547541,2.07146 -0.04296,0.0537 -0.587967,-0.33882 -1.211127,-0.87223 -1.314566,-1.12521 -1.549939,-0.88945 -0.75383,0.75509 0.898386,1.85582 2.088258,3.33546 3.001717,3.73273 1.1271,0.49018 1.492292,0.47471 2.440241,-0.10337 z m 2.113723,-6.43148 1.675956,-1.10187 -1.502233,-1.65165 c -1.668937,-1.83492 -1.737628,-1.82025 -2.176211,0.46494 -0.24707,1.28732 -0.127485,3.39046 0.192782,3.39046 0.07356,0 0.88793,-0.49584 1.809706,-1.10188 z m 20.7641978,0.32596 c 0,-0.30872 -1.037709,-0.65581 -1.2690474,-0.42448 -0.1982946,0.1983 0.4527761,0.66123 0.9383183,0.66718 0.181901,0.002 0.3307291,-0.10699 0.3307291,-0.2427 z"
				  style="fill:#5b5e5f;" />
			<path id="path1673"
				  d="m 11.087655,426.61171 c -1.6007291,-0.12008 -4.3986978,-0.46132 -6.2177081,-0.75832 -2.8052474,-0.45801 -3.7089476,-0.50144 -5.9532651,-0.28607 -7.8439272,0.75272 -16.2286748,0.56969 -19.3144428,-0.42162 -2.545188,-0.81764 -4.570833,-2.91358 -5.58781,-5.78169 -0.359856,-1.01488 -0.469711,-2.15462 -0.471789,-4.89479 -0.003,-3.96184 0.499568,-6.0423 1.904625,-7.88443 1.829637,-2.39878 5.716095,-2.47319 8.172527,-0.15647 0.523192,0.49343 0.993999,0.89715 1.046237,0.89715 0.05224,0 0.601131,-0.49408 1.219761,-1.09795 0.618631,-0.60387 1.476284,-1.31373 1.905899,-1.57747 0.511839,-0.31422 0.891431,-0.85315 1.101121,-1.56332 0.305676,-1.03526 0.291598,-1.09459 -0.314468,-1.32501 -0.348959,-0.13268 -1.127349,-0.47936 -1.729758,-0.77042 l -1.09529,-0.52918 -1.091152,0.93447 c -1.274825,1.09176 -5.275669,3.16491 -5.398226,2.79724 -0.07486,-0.22457 0.587653,-2.32432 1.119803,-3.54909 0.167664,-0.38589 0.0615,-0.46302 -0.637299,-0.46302 -1.264743,0 -5.832787,-1.10876 -5.667812,-1.3757 0.339966,-0.55007 2.800574,-1.82233 5.535638,-2.8622 l 0.705722,-0.26832 -1.808264,-1.91408 -1.808264,-1.91408 1.008061,-0.0834 c 0.799266,-0.0661 0.974313,-0.17136 0.845124,-0.50802 -0.441397,-1.15026 -0.693643,-2.96064 -0.548807,-3.93881 l 0.161492,-1.09065 -2.904903,-2.08435 c -2.678639,-1.92199 -3.467376,-2.74975 -3.467376,-3.63893 0,-0.66471 1.610733,-2.75646 2.362305,-3.06777 0.919928,-0.38105 1.112472,-0.29445 4.189128,1.88403 1.202194,0.85124 2.309744,1.5477 2.461223,1.5477 0.166013,0 0.243647,-0.55177 0.195442,-1.38906 -0.06882,-1.19542 -0.160287,-1.4005 -0.656082,-1.47109 -0.942818,-0.13425 -2.842306,-2.01733 -3.746922,-3.71457 -0.886132,-1.66255 -1.894677,-4.52078 -1.894677,-5.36954 0,-0.46829 0.05661,-0.4746 0.941389,-0.10492 0.517764,0.21634 1.280284,0.63466 1.69449,0.9296 0.414205,0.29493 0.869414,0.53625 1.011576,0.53625 0.142161,0 0.397007,-0.55016 0.566325,-1.22258 0.417574,-1.65834 1.772767,-4.59825 2.119626,-4.59825 0.154647,0 0.281177,0.11906 0.281177,0.26458 0,0.65416 0.496703,0.16134 0.898947,-0.89192 0.53244,-1.39417 1.617939,-2.9501 3.701621,-5.3058 2.200142,-2.48737 2.332825,-2.67215 3.718069,-5.17807 0.6833661,-1.23621 1.5378538,-2.63491 1.8988619,-3.10822 l 0.6563756,-0.86055 -0.7946654,-0.99282 c -3.1973251,-3.99462 -2.3138391,-9.53446 1.8920407,-11.86392 1.1773058,-0.65206 1.673844,-0.76747 3.2422913,-0.75359 2.2345808,0.0198 3.81159535,0.65205 5.4938214,2.20268 0.6421411,0.5919 1.383448,1.55501 1.6473487,2.14024 0.5420386,1.20203 0.5924418,1.21439 2.7016498,0.66286 3.5882949,-0.9383 10.29182,-0.76011 15.292596,0.4065 4.883962,1.13936 10.040675,3.37534 14.228386,6.1695 2.272798,1.51648 5.251649,4.3002 6.588154,6.15658 l 0.782294,1.0866 1.635998,-0.68606 c 1.346829,-0.56479 2.056897,-0.6867 4.01725,-0.68972 2.032445,-0.003 2.602024,0.0998 3.888449,0.70282 4.247137,1.99081 5.827731,6.20807 3.754432,10.01741 -1.605534,2.94989 -3.699285,4.13581 -8.635068,4.89099 -0.908428,0.13899 -0.992222,0.22338 -0.992598,0.99971 -7.93e-4,1.4342 -1.046128,6.45264 -1.868365,8.96878 -1.696345,5.19101 -4.296741,8.94541 -7.747513,11.18569 -2.301566,1.49421 -2.35036,1.62948 -1.454844,4.03299 0.641221,1.72099 0.932448,2.21405 4.237951,7.175 5.461272,8.19636 6.573202,12.53853 4.396602,17.16905 -1.313326,2.79398 -5.423151,5.86314 -9.072795,6.77543 -6.111915,1.52779 -15.793616,2.11327 -24.341666,1.472 z m 6.746875,-1.84073 c -3.917961,-2.15699 -5.493745,-5.5073 -5.230567,-11.1208 l 0.119029,-2.53884 -1.74371,-1.21721 c -0.959041,-0.66946 -5.4346477,-3.89414 -9.9457933,-7.16594 -7.0665021,-5.12513 -8.2460304,-5.89189 -8.5195011,-5.53815 -0.5580988,0.7219 -1.9642401,4.90513 -2.3841286,7.09272 -0.288753,1.50438 -0.367355,3.0385 -0.27173,5.30341 0.118433,2.80513 0.2351514,3.42842 0.9746538,5.20478 1.533308,3.68317 5.0452072,6.7851 9.53840881,8.42491 3.51637059,1.28332 10.31137039,2.22298 16.80187939,2.32349 l 2.116667,0.0328 z m 0.930029,-3.30993 c 2.574549,-1.2217 3.81876,-6.43134 2.481625,-10.39082 -1.448375,-4.28887 -4.575413,-4.88277 -6.454362,-1.22583 -0.759312,1.47783 -0.792557,1.68341 -0.766239,4.73848 0.03016,3.50138 0.356058,4.70655 1.64017,6.06539 1.178402,1.24698 1.825903,1.41681 3.098806,0.81278 z m -38.897608,-0.3342 c 2.656092,-1.6198 3.492169,-7.87347 1.533709,-11.47181 -1.156562,-2.12498 -2.886999,-2.73889 -4.49426,-1.59442 -2.991392,2.13006 -2.811855,11.1601 0.259116,13.03257 1.056994,0.64448 1.686954,0.65233 2.701435,0.0337 z m 62.428495,-9.59327 c -0.709369,-1.37177 -3.023373,-3.50985 -4.668361,-4.31344 -2.975287,-1.45346 -6.581185,-1.12958 -10.796722,0.96973 -1.830081,0.91137 -2.231954,1.21853 -2.157659,1.64914 0.05022,0.29104 0.115126,0.55439 0.144243,0.58521 0.02912,0.0308 1.119129,-0.47453 2.422242,-1.12302 1.303115,-0.64849 3.083674,-1.31127 3.956799,-1.47284 3.666085,-0.67839 7.136241,0.43447 9.871662,3.16578 0.827981,0.82674 1.543965,1.48166 1.591077,1.45537 0.04711,-0.0263 -0.116367,-0.43845 -0.363281,-0.91593 z m -54.684873,-3.45241 c 0.578927,-0.41128 1.026261,-1.81404 0.578488,-1.81404 -0.519732,0 -2.937059,2.69232 -2.781441,3.09785 0.08126,0.21176 0.147744,0.57174 0.147744,0.79995 0,0.22821 0.348776,-0.0665 0.775057,-0.655 0.426281,-0.58847 1.00235,-1.23141 1.280152,-1.42876 z m 55.225795,0.56416 c -0.381474,-0.90635 -0.999098,-2.13964 -1.372494,-2.74065 -1.43891,-2.31605 -4.154077,-6.25213 -4.312806,-6.25213 -0.09157,0 -0.314177,0.5762 -0.494668,1.28045 -0.180493,0.70424 -0.732388,1.88067 -1.226431,2.61429 l -0.898263,1.33384 1.099026,0.17574 c 2.340496,0.37426 5.308396,2.27289 6.952403,4.44761 0.410954,0.54361 0.792105,0.94347 0.847006,0.88857 0.0549,-0.0549 -0.212297,-0.84138 -0.593773,-1.74772 z m -20.753231,-0.76216 c -0.908277,-1.69713 -2.873076,-2.30707 -4.675912,-1.45157 -1.395778,0.66234 -1.267005,0.77601 0.780833,0.68927 1.629317,-0.069 2.044017,0.0105 2.953763,0.56638 0.582084,0.35567 1.092288,0.65789 1.133787,0.67161 0.0415,0.0137 -0.04511,-0.20034 -0.192471,-0.47569 z m -14.4399415,-3.98873 -0.00487,-1.84193 -10.1815844,-7.33309 c -5.5998743,-4.0332 -12.7443891,-9.1981 -15.8767031,-11.47754 -3.132313,-2.27945 -5.953476,-4.28272 -6.26925,-4.45172 -0.507003,-0.27134 -0.653184,-0.20362 -1.250197,0.5791 -0.371834,0.4875 -0.676062,1.064 -0.676062,1.28112 0,0.21711 1.449568,1.4266 3.221262,2.68774 l 3.221262,2.29299 0.7016,-0.84041 c 0.487224,-0.58361 0.840061,-0.78727 1.154749,-0.66651 0.414973,0.15924 0.402213,0.26239 -0.151453,1.22441 -0.435685,0.75702 -0.524173,1.13095 -0.316724,1.3384 0.20745,0.20745 0.465867,0.0265 0.924946,-0.64752 0.694994,-1.02045 0.729932,-1.03965 1.269875,-0.69773 0.303461,0.19216 0.268558,0.37314 -0.198437,1.02897 -0.311665,0.4377 -0.566663,0.91509 -0.566663,1.06088 0,0.14578 0.565546,0.67342 1.25677,1.17252 0.691224,0.4991 2.367836,1.71034 3.725805,2.69163 2.673146,1.93167 2.5848599,1.92285 3.4996673,0.34979 0.2143919,-0.36865 0.3802777,-0.40802 0.7916386,-0.18787 0.5088387,0.27232 0.5057246,0.30014 -0.1399593,1.25035 -0.4658545,0.68556 -0.577043,1.05265 -0.3774704,1.2462 0.197395,0.19144 0.5039227,0.0122 1.0141399,-0.59286 0.4910878,-0.58242 0.8735007,-0.81264 1.1644259,-0.701 0.384519,0.14756 0.3613679,0.28958 -0.2060813,1.26411 l -0.6392703,1.09787 2.774725,1.98438 c 1.5260981,1.0914 2.9312737,2.09299 3.1226097,2.22575 0.2440887,0.16936 0.57545025,-0.0133 1.11057796,-0.61222 0.52364215,-0.58606 0.9039304,-0.7994 1.21331827,-0.68068 0.40410867,0.15508 0.37854997,0.28185 -0.24757062,1.22798 -0.55787394,0.843 -0.62606764,1.09963 -0.33929901,1.27686 0.24419718,0.15092 0.52791253,-0.004 0.8877247,-0.48346 0.8787526,-1.17197 0.9251791,-1.202 1.33391,-0.86278 0.3369601,0.27965 0.3022442,0.45051 -0.259834,1.27878 -0.3568197,0.5258 -0.5565537,1.04651 -0.4438571,1.15713 0.1556967,0.15283 5.7030433,4.20694 5.7511975,4.20309 0.00548,-5.3e-4 0.00775,-0.82966 0.00508,-1.84273 z m 3.6211695,-1.18608 c 0.670237,-0.26818 2.761252,-0.58305 5.258773,-0.79189 2.280365,-0.19067 4.484304,-0.51017 4.897647,-0.70999 0.413342,-0.19982 1.269227,-1.01815 1.901962,-1.81851 2.838027,-3.58989 3.676571,-4.38665 5.100796,-4.84662 1.598065,-0.51612 2.384386,-0.54986 3.780404,-0.1622 1.670473,0.46387 1.7374,0.0892 0.119224,-0.66741 l -1.518653,-0.71009 -1.92093,0.46112 c -1.056513,0.25361 -2.191965,0.64874 -2.523228,0.87805 -0.331261,0.22932 -1.251686,1.38945 -2.045391,2.57808 -2.343745,3.50993 -3.547075,4.05657 -8.929899,4.05657 -2.613826,0 -3.638259,0.10182 -4.330771,0.43043 -1.1316864,0.53702 -1.9510189,1.55291 -1.9510189,2.41906 v 0.66145 l 0.5242136,-0.66643 c 0.2883165,-0.36653 1.0249083,-0.86677 1.6368713,-1.11162 z m -28.05243,-1.97523 c 3.135971,-2.24562 3.878386,-5.01479 1.704644,-6.35823 -0.949533,-0.58685 -4.571557,-1.50645 -4.847309,-1.2307 -0.224569,0.22457 1.389557,1.61476 2.667463,2.2974 0.559805,0.29903 0.961639,0.59989 0.892964,0.66856 -0.06867,0.0687 -0.991541,0.37013 -2.050814,0.66989 -1.059272,0.29977 -2.473137,0.78988 -3.141922,1.08913 l -1.215972,0.5441 1.058334,0.20751 c 0.582083,0.11413 1.863023,0.21437 2.846532,0.22276 l 1.7882,0.0152 -0.821269,1.45521 c -0.451697,0.80037 -0.710223,1.45521 -0.5745,1.45521 0.135722,0 0.897864,-0.46624 1.693649,-1.03609 z m 25.8913451,0.11005 c 0.279175,-0.33639 0.2186834,-0.39688 -0.396875,-0.39688 -0.6155584,0 -0.6760501,0.0605 -0.396875,0.39688 0.1811575,0.21828 0.3597513,0.39687 0.396875,0.39687 0.037124,0 0.2157174,-0.17859 0.396875,-0.39687 z m 3.4577069,-5.6098 1.437085,-0.45041 -1.051021,-0.1449 c -0.95886,-0.13219 -1.077126,-0.23769 -1.348774,-1.20323 l -0.297759,-1.05833 -0.701744,1.38027 c -0.385958,0.75914 -0.701744,1.50328 -0.701744,1.65364 0,0.40238 1.03469,0.33362 2.663957,-0.17704 z m 15.327709,-3.41601 c 9.167556,-1.77944 13.772766,-6.42703 16.355954,-16.50649 1.877629,-7.32641 1.1621,-13.54095 -2.224355,-19.31906 -3.130425,-5.34126 -11.06824,-10.60702 -19.095679,-12.66763 -4.602274,-1.18138 -4.917239,-1.21858 -10.249461,-1.21032 l -5.2916666,0.008 -3.22485,1.09773 c -4.68372016,1.59433 -8.1478461,4.01532 -10.8069376,7.5527 l -1.2324821,1.63956 1.4144254,0.33211 c 4.343683,1.01992 7.6484054,2.65982 9.5987708,4.76321 2.4881363,2.68334 0.9391491,8.11675 -3.05107961,10.70233 -1.13509689,0.73552 -1.27156099,0.90903 -0.91815441,1.16745 0.22830366,0.16694 0.41576359,0.40947 0.41657586,0.53894 0.009287,1.4813 1.48646616,3.73316 2.94296036,4.48635 0.7387827,0.38203 0.7548244,0.37402 1.1513502,-0.575 0.5095451,-1.21951 0.5365141,-1.07177 -0.3877972,-2.1245 -1.4928902,-1.70031 -1.3052927,-2.92965 0.3930518,-2.57569 1.6306905,0.33985 3.9271865,1.30505 4.2076448,1.76844 0.2355427,0.38917 0.172503,0.57624 -0.3343513,0.99219 -0.3435456,0.28192 -0.8944292,0.51259 -1.22419,0.51259 -0.4661614,0 -0.7245535,0.29054 -1.1613144,1.30582 -0.3089619,0.7182 -0.5617475,1.36745 -0.5617475,1.44277 0,0.33046 2.1617781,0.68816 4.1671874,0.68951 1.8591181,0.001 2.1828121,-0.0637 2.1828121,-0.43829 0,-0.24188 0.299482,-0.9508 0.665512,-1.57539 0.589402,-1.00574 0.635532,-1.2656 0.403344,-2.27221 -0.347996,-1.50867 -0.34096,-4.06377 0.01471,-5.34479 0.182557,-0.65751 0.7927,-1.53904 1.677966,-2.4243 1.921748,-1.92175 3.784859,-2.49562 8.102214,-2.49562 2.620205,0 3.413849,0.10118 4.83241,0.61609 3.729921,1.35389 6.298896,3.54314 7.814387,6.65933 0.805339,1.65597 0.887984,2.04519 0.881319,4.15069 -0.006,1.90422 -0.126272,2.58311 -0.66653,3.76319 -0.927878,2.02675 -2.512888,3.63526 -4.589558,4.6576 -1.495774,0.73637 -2.132372,0.88781 -4.166791,0.99121 -2.880685,0.14642 -4.889259,-0.4173 -7.495198,-2.10358 -1.868225,-1.20891 -4.323641,-3.72956 -4.979612,-5.11192 -0.240789,-0.50744 -0.530558,-0.92261 -0.643929,-0.92261 -0.640572,0 -0.927484,3.18528 -0.447551,4.96869 0.368057,1.36769 0.365392,1.3873 -0.127847,0.94093 -0.49027,-0.44369 -0.498133,-0.42444 -0.293981,0.71985 0.548847,3.07636 -0.07303,6.97491 -1.372565,8.60469 l -0.5900318,0.73997 -1.2091511,-1.24413 c -0.6650355,-0.68427 -1.4773989,-1.83767 -1.8052573,-2.56311 -0.3278584,-0.72543 -0.6641782,-1.31622 -0.7473791,-1.31285 -0.1332759,0.005 -2.1341688,3.38664 -2.3515266,3.97377 -0.082794,0.22365 3.2245642,1.31578 5.4953242,1.81463 1.1485717,0.25232 1.2070287,0.23249 2.3091937,-0.78345 0.621932,-0.57328 1.19708,-1.04233 1.278104,-1.04233 0.08102,0 0.06985,0.584 -0.02485,1.29778 l -0.172156,1.29777 1.510202,0.31352 c 3.95392,0.82083 9.712195,0.86462 13.63255,0.10367 z M -4.7119806,388.9233 c 0.3324913,-0.51322 0.540848,-1.03616 0.4630129,-1.1621 -0.077835,-0.12594 -0.8261244,-0.61085 -1.6628639,-1.07758 -2.9766999,-1.6604 -7.8800034,-5.81008 -9.6475804,-8.16479 -0.605397,-0.80649 -0.744207,-0.86857 -1.431461,-0.64022 -0.737911,0.24518 -0.76338,0.31323 -0.837532,2.23783 l -0.07648,1.98497 1.399394,0.94595 c 0.769666,0.52028 3.185331,2.25843 5.368144,3.86256 4.6312848,3.4035 5.373986,3.63622 6.4253634,2.01338 z m 7.7929182,-1.64002 c 1.2483491,-2.03766 2.2954535,-4.14716 2.8564918,-5.75469 0.4992741,-1.43056 0.4928235,-1.43703 1.186135,1.19063 0.5333841,2.02153 1.4357905,3.9003 2.2089745,4.59898 0.5443616,0.49191 0.5545878,0.4887 0.8441291,-0.26458 0.837647,-2.17926 0.806283,-5.24824 -0.08485,-8.30315 -0.3233417,-1.10845 -0.4150939,-1.1963 -1.3293828,-1.27275 -1.0797486,-0.0903 -1.1320806,0.0184 -0.7402009,1.53733 0.1314026,0.50932 0.3100255,1.40229 0.3969385,1.98438 0.1235048,0.82714 -0.039576,0.57496 -0.7465404,-1.15438 -1.0074592,-2.46441 -1.0687526,-2.5484 -2.023147,-2.77222 -0.6461839,-0.15154 -0.7078212,-0.0597 -1.4122743,2.10339 -0.4051327,1.24402 -0.774573,2.22269 -0.8209809,2.17482 -0.046408,-0.0479 0.07769,-1.09538 0.2757699,-2.32781 0.3741393,-2.32783 0.2940156,-2.64016 -0.6798098,-2.64996 -0.2214007,-0.002 -1.0522849,0.82938 -1.846408,1.84803 -0.79412302,1.01865 -1.47923508,1.85208 -1.52247329,1.85208 -0.1065477,0 0.57543963,-1.30424 1.51698589,-2.90111 0.9799134,-1.66193 0.6212945,-1.94831 -0.58809734,-0.46961 -1.68662606,2.06219 -3.75107716,6.28114 -3.07354276,6.28114 0.3892444,0 1.75993418,-0.96657 2.96670666,-2.09202 l 1.01937344,-0.95069 -0.2256235,1.19063 c -0.34243164,1.80704 -0.200099,4.83367 0.2978124,6.33273 0.2448242,0.7371 0.4781761,1.34018 0.5185568,1.34018 0.040381,0 0.4928394,-0.68461 1.005459,-1.52135 z m -3.0861581,-0.24271 c -0.09310687,-0.24263 -0.24052741,-1.12278 -0.32760707,-1.95589 l -0.15832137,-1.51476 -1.08976576,0.49488 c -1.3775425,0.62556 -2.8095548,0.6715 -2.8095548,0.0901 0,-0.229 0.3063399,-1.33033 0.6807517,-2.4474 0.7245456,-2.16168 1.7299358,-3.98454 3.18985363,-5.78349 l 0.89807782,-1.10663 -0.80151814,-1.18763 c -0.44083286,-0.65319 -0.93491051,-1.85184 -1.09794931,-2.66368 -0.1630389,-0.81182 -0.3692949,-1.47451 -0.4583457,-1.47264 -0.089051,0.002 -0.9166595,0.24001 -1.8391293,0.52917 -2.2656508,0.71021 -5.379606,0.70873 -7.1863242,-0.003 -0.738378,-0.29104 -1.379958,-0.52917 -1.425733,-0.52917 -0.04578,0 -0.297469,0.80367 -0.559322,1.78594 -0.26185,0.98226 -0.824437,2.53117 -1.250193,3.44202 l -0.7741,1.65609 0.79115,0.99891 c 2.521683,3.18388 7.0021659,6.70303 11.3351518,8.90308 2.55109915,1.29531 3.14723713,1.45339 2.8828787,0.76448 z M -17.214224,376.40715 c 1.199189,-0.73129 3.32872,-5.06502 2.488879,-5.06502 -0.159935,0 -0.981374,0.69059 -1.825421,1.53463 l -1.53463,1.53463 -0.178147,-1.86535 c -0.09798,-1.02595 -0.323105,-2.56787 -0.500276,-3.4265 -0.299047,-1.44927 -0.343206,-1.51487 -0.61628,-0.91554 -0.161783,0.35508 -0.505396,1.53384 -0.763585,2.61947 -0.258188,1.08563 -0.504582,2.01779 -0.547541,2.07146 -0.04296,0.0537 -0.587967,-0.33882 -1.211127,-0.87223 -1.314566,-1.12521 -1.549939,-0.88945 -0.75383,0.75509 0.898386,1.85582 2.088258,3.33546 3.001717,3.73273 1.1271,0.49018 1.492292,0.47471 2.440241,-0.10337 z m 2.121619,-6.43667 1.683852,-1.10707 -0.983526,-1.07574 c -0.54094,-0.59166 -1.237943,-1.42912 -1.548896,-1.86103 l -0.565369,-0.78528 -0.424254,1.42862 c -0.23334,0.78574 -0.424254,1.74931 -0.424254,2.14127 0,0.87678 0.286196,2.3663 0.454662,2.3663 0.06816,0 0.881666,-0.49818 1.807785,-1.10707 z m 20.6914816,0.24717 c -0.1307889,-0.39713 -1.2580964,-0.61118 -1.2580964,-0.23888 0,0.27833 0.4365678,0.51452 1.0142352,0.54872 0.1940295,0.0115 0.3037655,-0.12793 0.2438612,-0.30984 z m 48.7651994,-13.5423 c -2.008743,-2.0725 -5.677517,-2.68591 -8.839118,-1.47788 -1.117047,0.42682 -1.4659,0.67086 -1.257247,0.87951 0.20865,0.20865 0.637633,0.16956 1.546026,-0.14088 2.904456,-0.9926 5.761022,-0.68813 7.871833,0.83904 1.440921,1.04251 1.742652,0.99813 0.678506,-0.0998 z M 2.6698175,341.56268 C 2.8728508,340.95277 1.06998,338.75431 -0.25768591,337.99282 -1.4011462,337.33698 -1.880468,337.22061 -3.3321362,337.24637 l -1.7197916,0.0305 1.3809662,0.20169 c 0.7595314,0.11093 1.916594,0.51559 2.5712472,0.89924 1.11489063,0.65337 2.7946614,2.65605 2.7946614,3.3319 0,0.36927 0.8454442,0.24175 0.9748705,-0.14705 z"
				  style="fill:#356301;" />
			<path id="path1671"
				  d="m 11.087655,426.61171 c -1.6007291,-0.12008 -4.3986978,-0.46132 -6.2177081,-0.75832 -2.8052474,-0.45801 -3.7089476,-0.50144 -5.9532651,-0.28607 -7.8439272,0.75272 -16.2286748,0.56969 -19.3144428,-0.42162 -2.545188,-0.81764 -4.570833,-2.91358 -5.58781,-5.78169 -0.359856,-1.01488 -0.469711,-2.15462 -0.471789,-4.89479 -0.003,-3.96184 0.499568,-6.0423 1.904625,-7.88443 1.829637,-2.39878 5.716095,-2.47319 8.172527,-0.15647 0.523192,0.49343 0.992044,0.89715 1.041894,0.89715 0.04985,0 0.658274,-0.54644 1.352053,-1.21431 0.69378,-0.66786 1.5748,-1.37803 1.957824,-1.57816 0.58947,-0.30798 1.118208,-1.53616 1.066115,-2.47642 -0.0033,-0.0602 -0.580203,-0.35788 -1.28192,-0.66145 -2.028605,-0.87761 -2.012141,-0.84804 -1.141523,-2.04989 0.429524,-0.59295 0.854609,-1.47069 0.944628,-1.95054 0.174757,-0.93153 0.306975,-0.99994 2.5610451,-1.32515 0.9340161,-0.13476 1.4190609,-0.0754 1.8866193,0.23098 l 0.629367,0.41238 -0.8841052,2.20189 c -1.601499,3.98859 -1.8318532,5.22033 -1.8203172,9.73358 0.01029,4.03141 0.02519,4.13551 0.8759505,6.13082 2.1911283,5.13885 7.3143743,8.50545 14.8332424,9.74726 3.0394565,0.502 9.5394461,1.05968 12.2434451,1.05046 l 1.405628,-0.005 -1.455208,-0.80114 c -4.067456,-2.2393 -5.514877,-5.4965 -5.193289,-11.68671 l 0.161295,-3.10473 -1.0678,-0.54475 c -2.4233215,-1.23629 -4.2189559,-3.54458 -4.2189559,-5.42348 0,-1.10233 0.3202913,-1.81654 1.2724553,-2.83742 l 0.6786298,-0.7276 H 8.7061325 c -0.7060141,0 -2.5073635,-0.97574 -2.5114619,-1.36038 -0.00106,-0.0934 0.3256147,-0.25146 0.725797,-0.35133 0.4001823,-0.0999 1.0847917,-0.45283 1.5213541,-0.78437 0.503817,-0.38262 1.3736161,-0.67385 2.3812503,-0.79731 2.011489,-0.24646 4.882014,-1.35158 6.706269,-2.58185 l 1.4146,-0.95399 -1.943767,-0.15969 c -1.069073,-0.0878 -2.420019,-0.18836 -3.002102,-0.2234 -0.993929,-0.0598 -1.06353,-0.11809 -1.143744,-0.95713 -0.07818,-0.81776 -0.03337,-0.88053 0.529167,-0.74125 3.688088,0.91318 10.647351,1.0661 14.372909,0.31583 9.402159,-1.89344 13.887648,-6.39316 16.488246,-16.54055 1.877629,-7.32641 1.1621,-13.54095 -2.224355,-19.31906 -3.130425,-5.34126 -11.06824,-10.60702 -19.095679,-12.66763 -4.602274,-1.18138 -4.917239,-1.21858 -10.249461,-1.21032 l -5.2916666,0.008 -3.22485,1.09773 c -4.68372016,1.59433 -8.1478461,4.01532 -10.8069376,7.5527 l -1.2324821,1.63956 1.4144254,0.33211 c 4.343683,1.01992 7.6484054,2.65982 9.5987708,4.76321 2.4881363,2.68334 0.9391491,8.11675 -3.05107961,10.70233 -1.13509689,0.73552 -1.27156099,0.90903 -0.91815441,1.16745 0.22830366,0.16694 0.41576359,0.40947 0.41657586,0.53894 0.009287,1.4813 1.48646616,3.73316 2.94296036,4.48635 0.7387827,0.38203 0.7548244,0.37402 1.1513502,-0.575 0.5095451,-1.21951 0.5365141,-1.07177 -0.3877972,-2.1245 -1.4928902,-1.70031 -1.3052927,-2.92965 0.3930518,-2.57569 1.6306905,0.33985 3.9271865,1.30505 4.2076448,1.76844 0.2355427,0.38917 0.172503,0.57624 -0.3343513,0.99219 -0.3435456,0.28192 -0.8944292,0.51259 -1.22419,0.51259 -0.4661614,0 -0.7245535,0.29054 -1.1613144,1.30582 -0.3089619,0.7182 -0.5617475,1.36745 -0.5617475,1.44277 0,0.33046 2.1617781,0.68816 4.1671874,0.68951 1.8591181,0.001 2.1828121,-0.0637 2.1828121,-0.43829 0,-0.24188 0.299482,-0.9508 0.665512,-1.57539 0.589402,-1.00574 0.635532,-1.2656 0.403344,-2.27221 -0.347996,-1.50867 -0.34096,-4.06377 0.01471,-5.34479 0.182557,-0.65751 0.7927,-1.53904 1.677966,-2.4243 1.921748,-1.92175 3.784859,-2.49562 8.102214,-2.49562 2.620205,0 3.413849,0.10118 4.83241,0.61609 3.729921,1.35389 6.298896,3.54314 7.814387,6.65933 0.805339,1.65597 0.887984,2.04519 0.881319,4.15069 -0.006,1.90422 -0.126272,2.58311 -0.66653,3.76319 -0.927878,2.02675 -2.512888,3.63526 -4.589558,4.6576 -1.495774,0.73637 -2.132372,0.88781 -4.166791,0.99121 -2.880685,0.14642 -4.889259,-0.4173 -7.495198,-2.10358 -1.868225,-1.20891 -4.323641,-3.72956 -4.979612,-5.11192 -0.240789,-0.50744 -0.530558,-0.92261 -0.643929,-0.92261 -0.640572,0 -0.927484,3.18528 -0.447551,4.96869 0.354674,1.31795 0.350163,1.37352 -0.07988,0.98434 -0.250674,-0.22686 -0.668938,-0.88519 -0.929478,-1.46296 l -0.473705,-1.05049 H 9.3165263 c -3.3520406,0 -7.7024148,-1.40746 -9.11843304,-2.95004 -0.82352882,-0.89714 -1.60573236,-2.56546 -1.81118666,-3.86298 -0.09793,-0.61846 -0.2568866,-1.12294 -0.3532372,-1.12107 -0.096348,0.002 -0.9299284,0.24001 -1.8523982,0.52917 -2.3103019,0.7242 -5.339728,0.70813 -7.2912632,-0.0387 -1.321932,-0.50588 -1.458637,-0.6294 -1.317775,-1.19063 0.171291,-0.68248 -0.130054,-0.81795 -0.657241,-0.29547 -0.267531,0.26515 -0.528039,0.12087 -1.313731,-0.7276 -0.539015,-0.58208 -1.234813,-1.41313 -1.546218,-1.84678 l -0.56619,-0.78844 -0.455992,1.56855 -0.455991,1.56856 -0.479178,-1.5487 -0.479177,-1.54871 0.731675,-1.61266 c 0.683189,-1.50579 2.160145,-3.53261 4.163608,-5.7137 1.386663,-1.5096 1.820757,-2.13385 3.12687,-4.49662 0.6833661,-1.23621 1.5378538,-2.63491 1.8988619,-3.10822 l 0.6563756,-0.86055 -0.7946654,-0.99282 c -3.1973251,-3.99462 -2.3138391,-9.53446 1.8920407,-11.86392 1.1773058,-0.65206 1.673844,-0.76747 3.2422913,-0.75359 2.2345808,0.0198 3.81159535,0.65205 5.4938214,2.20268 0.6421411,0.5919 1.383448,1.55501 1.6473487,2.14024 0.5420386,1.20203 0.5924418,1.21439 2.7016498,0.66286 3.5882949,-0.9383 10.29182,-0.76011 15.292596,0.4065 4.883962,1.13936 10.040675,3.37534 14.228386,6.1695 2.272798,1.51648 5.251649,4.3002 6.588154,6.15658 l 0.782294,1.0866 1.635998,-0.68606 c 1.346829,-0.56479 2.056897,-0.6867 4.01725,-0.68972 2.032445,-0.003 2.602024,0.0998 3.888449,0.70282 4.247137,1.99081 5.827731,6.20807 3.754432,10.01741 -1.605534,2.94989 -3.699285,4.13581 -8.635068,4.89099 -0.908428,0.13899 -0.992222,0.22338 -0.992598,0.99971 -7.93e-4,1.4342 -1.046128,6.45264 -1.868365,8.96878 -1.696345,5.19101 -4.296741,8.94541 -7.747513,11.18569 -2.301566,1.49421 -2.35036,1.62948 -1.454844,4.03299 0.641221,1.72099 0.932448,2.21405 4.237951,7.175 5.461272,8.19636 6.573202,12.53853 4.396602,17.16905 -1.313326,2.79398 -5.423151,5.86314 -9.072795,6.77543 -6.111915,1.52779 -15.793616,2.11327 -24.341666,1.472 z m 7.676904,-5.15066 c 2.574549,-1.2217 3.81876,-6.43134 2.481625,-10.39082 -1.448375,-4.28887 -4.575413,-4.88277 -6.454362,-1.22583 -0.759312,1.47783 -0.792557,1.68341 -0.766239,4.73848 0.03016,3.50138 0.356058,4.70655 1.64017,6.06539 1.178402,1.24698 1.825903,1.41681 3.098806,0.81278 z m -38.897608,-0.3342 c 2.656092,-1.6198 3.492169,-7.87347 1.533709,-11.47181 -1.156562,-2.12498 -2.886999,-2.73889 -4.49426,-1.59442 -2.991392,2.13006 -2.811855,11.1601 0.259116,13.03257 1.056994,0.64448 1.686954,0.65233 2.701435,0.0337 z m 62.428495,-9.59327 c -0.709369,-1.37177 -3.023373,-3.50985 -4.668361,-4.31344 -2.975287,-1.45346 -6.581185,-1.12958 -10.796722,0.96973 -1.830081,0.91137 -2.231954,1.21853 -2.157659,1.64914 0.05022,0.29104 0.115126,0.55439 0.144243,0.58521 0.02912,0.0308 1.119129,-0.47453 2.422242,-1.12302 1.303115,-0.64849 3.083674,-1.31127 3.956799,-1.47284 3.666085,-0.67839 7.136241,0.43447 9.871662,3.16578 0.827981,0.82674 1.543965,1.48166 1.591077,1.45537 0.04711,-0.0263 -0.116367,-0.43845 -0.363281,-0.91593 z m -54.684873,-3.45241 c 0.578927,-0.41128 1.026261,-1.81404 0.578488,-1.81404 -0.519732,0 -2.937059,2.69232 -2.781441,3.09785 0.08126,0.21176 0.147744,0.57174 0.147744,0.79995 0,0.22821 0.348776,-0.0665 0.775057,-0.655 0.426281,-0.58847 1.00235,-1.23141 1.280152,-1.42876 z m 55.225795,0.56416 c -0.381474,-0.90635 -0.999098,-2.13964 -1.372494,-2.74065 -1.43891,-2.31605 -4.154077,-6.25213 -4.312806,-6.25213 -0.09157,0 -0.314177,0.5762 -0.494668,1.28045 -0.180493,0.70424 -0.732388,1.88067 -1.226431,2.61429 l -0.898263,1.33384 1.099026,0.17574 c 2.340496,0.37426 5.308396,2.27289 6.952403,4.44761 0.410954,0.54361 0.792105,0.94347 0.847006,0.88857 0.0549,-0.0549 -0.212297,-0.84138 -0.593773,-1.74772 z m -20.753231,-0.76216 c -0.908277,-1.69713 -2.873076,-2.30707 -4.675912,-1.45157 -1.395778,0.66234 -1.267005,0.77601 0.780833,0.68927 1.629317,-0.069 2.044017,0.0105 2.953763,0.56638 0.582084,0.35567 1.092288,0.65789 1.133787,0.67161 0.0415,0.0137 -0.04511,-0.20034 -0.192471,-0.47569 z m -10.818772,-5.17481 c 0.670237,-0.26818 2.761252,-0.58305 5.258773,-0.79189 2.280365,-0.19067 4.484304,-0.51017 4.897647,-0.70999 0.413342,-0.19982 1.269227,-1.01815 1.901962,-1.81851 2.838027,-3.58989 3.676571,-4.38665 5.100796,-4.84662 1.598065,-0.51612 2.384386,-0.54986 3.780404,-0.1622 1.670473,0.46387 1.7374,0.0892 0.119224,-0.66741 l -1.518653,-0.71009 -1.92093,0.46112 c -1.056513,0.25361 -2.191965,0.64874 -2.523228,0.87805 -0.331261,0.22932 -1.251686,1.38945 -2.045391,2.57808 -2.343745,3.50993 -3.547075,4.05657 -8.929899,4.05657 -2.613826,0 -3.638259,0.10182 -4.330771,0.43043 -1.1316864,0.53702 -1.9510189,1.55291 -1.9510189,2.41906 v 0.66145 l 0.5242136,-0.66643 c 0.2883165,-0.36653 1.0249083,-0.86677 1.6368713,-1.11162 z M 5.5988766,370.21765 c -0.1307889,-0.39713 -1.2580964,-0.61118 -1.2580964,-0.23888 0,0.27833 0.4365678,0.51452 1.0142352,0.54872 0.1940295,0.0115 0.3037655,-0.12793 0.2438612,-0.30984 z m 48.7651994,-13.5423 c -2.008743,-2.0725 -5.677517,-2.68591 -8.839118,-1.47788 -1.117047,0.42682 -1.4659,0.67086 -1.257247,0.87951 0.20865,0.20865 0.637633,0.16956 1.546026,-0.14088 2.904456,-0.9926 5.761022,-0.68813 7.871833,0.83904 1.440921,1.04251 1.742652,0.99813 0.678506,-0.0998 z M 2.6698175,341.56268 C 2.8728508,340.95277 1.06998,338.75431 -0.25768591,337.99282 -1.4011462,337.33698 -1.880468,337.22061 -3.3321362,337.24637 l -1.7197916,0.0305 1.3809662,0.20169 c 0.7595314,0.11093 1.916594,0.51559 2.5712472,0.89924 1.11489063,0.65337 2.7946614,2.65605 2.7946614,3.3319 0,0.36927 0.8454442,0.24175 0.9748705,-0.14705 z m 0.4663148,55.48697 c -9.5263279,-6.8491 -9.9586464,-7.1867 -9.2071769,-7.18996 0.5709073,-0.002 0.901655,-0.23036 1.359064,-0.93639 0.3324913,-0.51322 0.540848,-1.03616 0.4630129,-1.1621 -0.077835,-0.12594 -0.8261244,-0.61253 -1.6628639,-1.08131 -3.0402846,-1.70332 -7.2061174,-5.17249 -9.2216184,-7.67947 l -1.085689,-1.35043 0.529099,-0.59401 0.5291,-0.59401 2.937838,2.96069 c 1.615813,1.62839 3.8537676,3.57108 4.9732329,4.31711 1.9991572,1.33226 6.54170891,3.74195 7.0540216,3.74195 0.14342269,0 0.44958264,0.56554 0.68036015,1.25677 0.23077487,0.69122 0.64232895,1.5944 0.91456665,2.00707 l 0.4949719,0.7503 0.8829066,-1.22943 c 0.5578793,-0.77683 1.032592,-1.18609 1.2895104,-1.11172 0.2236311,0.0647 1.5972286,0.44399 3.0524369,0.8428 1.4552083,0.3988 2.8060491,0.77044 3.0018669,0.82585 0.27201,0.077 0.215069,0.33457 -0.2412865,1.09154 -0.3285252,0.54492 -0.9067641,1.82421 -1.2849754,2.84286 -0.6216226,1.67423 -0.8007455,1.90925 -1.8652965,2.44739 -1.5522495,0.78469 -2.3323391,0.75092 -3.5930813,-0.1555 z m -16.3389673,-2.94271 c -1.254237,-1.40766 -3.881202,-2.38284 -6.434925,-2.38875 -0.838608,-0.002 -1.4744,-0.145 -1.664984,-0.37464 -0.48498,-0.58437 -0.92447,-3.4028 -0.654243,-4.19563 l 0.23631,-0.69333 2.116666,1.52976 c 1.164167,0.84137 3.692285,2.66783 5.61804,4.0588 2.444671,1.76579 3.37638,2.57701 3.087215,2.68797 -0.873855,0.33533 -1.632196,0.1299 -2.304079,-0.62418 z"
				  style="fill:#2d2e2e;" />
			<path id="path1669"
				  d="m 10.955363,426.50858 c -2.1100517,-0.17884 -4.9813152,-0.52287 -6.3805853,-0.76453 -2.3482855,-0.40554 -3.0509553,-0.40778 -9.1281247,-0.0291 -5.1696116,0.32214 -7.379734,0.35046 -10.288164,0.13183 -4.491067,-0.3376 -4.924198,-0.41758 -6.657277,-1.22924 -3.994593,-1.87083 -5.899414,-7.27589 -4.741947,-13.45562 0.658573,-3.51613 2.098897,-5.58656 4.314388,-6.2018 1.285753,-0.35706 1.310839,-0.35592 2.960899,0.13409 0.86282,0.25623 1.824184,0.80921 2.516902,1.44774 l 1.120837,1.03315 0.904557,-0.94383 c 0.497507,-0.51911 1.409568,-1.29468 2.026801,-1.72349 0.687734,-0.4778 1.183849,-1.05705 1.281361,-1.4961 0.08752,-0.39404 0.215609,-0.92479 0.28465,-1.17945 0.06904,-0.25466 -0.0093,-0.46302 -0.17398,-0.46302 -0.63179,0 -2.911149,-1.13954 -2.911149,-1.4554 0,-0.70641 0.712541,-0.98108 1.502349,-0.57912 1.651839,0.84069 1.862965,0.81486 2.209996,-0.27034 0.497149,-1.55465 1.3618947,-3.51689 1.5457563,-3.50756 0.09122,0.005 0.3934565,0.18065 0.6716368,0.39116 0.4769432,0.36093 0.4820258,0.43964 0.089165,1.38065 -1.7344204,4.15438 -2.3121281,6.85641 -2.3064151,10.78748 0.0026,1.74625 0.12801,3.71078 0.2788284,4.36563 0.4853781,2.10749 1.8774118,4.54619 3.5491207,6.21771 4.1836894,4.18319 10.2442456,5.99093 21.2991449,6.3531 l 4.630208,0.1517 -1.466966,-0.78175 c -1.918266,-1.02224 -3.498659,-2.63036 -4.411493,-4.48889 -0.709197,-1.44392 -0.73783,-1.6621 -0.78277,-5.96419 l -0.04665,-4.46544 -1.077222,-0.48229 c -1.569321,-0.7026 -3.6252228,-2.86244 -3.9804577,-4.18167 -0.5549926,-2.06109 0.4804675,-4.02697 2.7697237,-5.25848 0.591222,-0.31805 1.873901,-0.46733 5.027084,-0.58507 5.419735,-0.20238 5.744519,-0.3535 7.506736,-3.49281 l 0.841981,-1.49995 -3.116024,0.12821 c -2.858529,0.11763 -3.073585,0.094 -2.602436,-0.28598 0.282474,-0.22781 0.616923,-0.4142 0.74322,-0.4142 0.126293,0 0.156043,-0.11907 0.06611,-0.26459 -0.09179,-0.14852 -1.352122,-0.26458 -2.873116,-0.26458 -2.818744,0 -3.344592,-0.18013 -3.344592,-1.14566 0,-0.44752 0.139041,-0.49243 1.124479,-0.36321 0.618463,0.0811 2.196041,0.28948 3.505729,0.46308 2.983227,0.39541 8.324463,0.18528 10.978967,-0.43192 4.78496,-1.11256 9.093319,-3.46543 11.246469,-6.1419 2.558965,-3.18092 4.485613,-8.27938 5.419219,-14.34081 1.130694,-7.34103 -1.301853,-14.69194 -6.53475,-19.74734 -1.250572,-1.20816 -5.091345,-4.06516 -5.46494,-4.06516 -0.07895,0 -0.71434,-0.3332 -1.411967,-0.74046 -1.804617,-1.05348 -5.389941,-2.53836 -8.01529,-3.31959 -4.113826,-1.22414 -6.706428,-1.59255 -11.1125,-1.57908 -4.4960929,0.0138 -6.2656949,0.34817 -10.2192974,1.93127 -4.4944902,1.79969 -8.589949,5.49043 -10.6475236,9.59533 -1.2268543,2.4476 -2.26795,3.91317 -5.104093,7.18512 -1.829011,2.11007 -3.160948,4.39153 -3.686308,6.31424 l -0.305584,1.11838 -0.360413,-1.19062 c -0.495877,-1.63813 -0.468043,-1.93675 0.32758,-3.51453 0.808497,-1.6033 1.703327,-2.80222 3.951015,-5.29367 0.891518,-0.9882 2.132015,-2.71461 2.756656,-3.83646 0.624644,-1.12184 1.5547637,-2.67089 2.0669335,-3.44232 l 0.9312169,-1.40261 -0.577985,-0.71406 c -1.2708942,-1.5701 -2.1506424,-3.81296 -2.1481524,-5.47656 0.0061,-4.05559 3.0728077,-7.27431 6.933724,-7.27735 3.121472,-0.002 5.7362326,1.57077 7.0982678,4.27084 0.3202887,0.63494 0.6030278,1.17982 0.6283114,1.21087 0.025294,0.031 0.5826415,-0.10507 1.2385701,-0.30248 0.6559311,-0.19741 2.5324222,-0.50687 4.1699787,-0.68771 8.045193,-0.88842 18.189095,1.76986 25.889004,6.78438 2.58444,1.6831 5.492626,4.36087 6.726785,6.19383 0.574363,0.85303 1.031637,1.27831 1.287563,1.19746 0.218281,-0.069 1.230313,-0.42438 2.248959,-0.78984 2.155875,-0.77346 3.711408,-0.84389 5.686154,-0.25745 2.62422,0.77931 4.738024,2.60615 5.561166,4.8062 0.878091,2.3469 0.577392,4.10757 -1.132932,6.63362 -1.399392,2.06682 -4.917128,3.74992 -7.837474,3.74992 -1.026443,0 -1.08629,0.043 -1.08629,0.78032 0,0.9626 -0.947364,5.97854 -1.501698,7.95093 -1.088731,3.87385 -3.012294,7.57312 -5.159615,9.92263 -1.31581,1.43971 -4.121738,3.57112 -4.701252,3.57112 -0.557464,0 -0.252619,2.03023 0.597022,3.97606 0.478314,1.09543 1.887535,3.47668 3.131603,5.29167 2.907765,4.24218 3.913566,5.9945 5.01742,8.74142 0.82966,2.06458 0.896729,2.44915 0.896729,5.14189 0,2.7319 -0.04816,2.99737 -0.785188,4.32802 -1.531734,2.76544 -5.51747,5.78203 -8.76065,6.63045 -3.883586,1.01597 -12.222207,1.88659 -17.573953,1.83488 -1.81901,-0.0176 -5.033698,-0.17827 -7.14375,-0.35711 z m -16.6026033,-2.15939 c 1.8553906,-0.0946 3.3734374,-0.25363 3.3734374,-0.35334 0,-0.0997 -0.3274219,-0.32901 -0.7276041,-0.50958 -1.4568329,-0.65734 -4.3762929,-3.10165 -5.5251163,-4.62589 -2.3264837,-3.08675 -3.0663567,-5.40083 -3.1087487,-9.72315 -0.03451,-3.5189 -0.0426,-3.52471 -1.980749,-1.42207 -1.067095,1.15766 -1.113855,1.27627 -0.94557,2.39848 0.09737,0.64931 0.08915,1.74612 -0.01826,2.43735 l -0.195304,1.25677 -0.44902,-1.85208 c -0.765745,-3.1585 -1.663789,-4.50554 -3.521119,-5.28158 -3.173078,-1.3258 -5.463819,0.50456 -6.313937,5.04499 -0.975287,5.20895 0.937871,10.17579 4.511782,11.71325 2.186328,0.94053 7.737921,1.28213 14.900215,0.91685 z M 31.007977,424.2411 c 2.998314,-0.32942 6.759935,-1.50655 8.38317,-2.62337 1.527447,-1.05091 3.216425,-3.0078 3.600534,-4.17167 0.494771,-1.49917 0.154977,-4.61319 -0.654005,-5.99361 -0.86347,-1.47341 -3.232885,-3.63696 -4.829397,-4.40982 -1.688076,-0.81718 -4.659934,-0.98277 -6.97375,-0.38857 -2.097854,0.53874 -6.087848,2.41711 -6.078947,2.86178 0.0035,0.17774 0.129778,0.85837 0.28049,1.51251 0.150712,0.65414 0.19273,1.78039 0.09338,2.50278 l -0.180645,1.31344 -0.623501,-2.15968 c -0.863798,-2.99202 -2.05323,-5.3997 -3.021009,-6.11521 -1.032584,-0.76342 -2.483766,-0.79606 -3.848103,-0.0865 -1.261377,0.65596 -2.007224,1.73847 -2.767944,4.01734 -0.790609,2.36841 -0.668943,6.90405 0.235178,8.76726 1.520129,3.1327 3.782343,4.65627 7.389984,4.97706 3.482065,0.30961 6.15293,0.30852 8.994568,-0.004 z m 12.322498,-14.55383 c -0.204229,-0.59278 -0.67705,-1.69411 -1.050714,-2.4474 -0.730511,-1.47268 -4.901123,-7.82808 -5.146775,-7.84293 -0.08163,-0.005 -0.302808,0.59342 -0.491506,1.32968 -0.188698,0.73626 -0.750157,1.94356 -1.247687,2.68289 -0.497531,0.73933 -0.871665,1.36952 -0.831411,1.40044 0.04025,0.0309 0.653328,0.19821 1.362387,0.37179 2.22413,0.54446 3.91424,1.58826 5.854552,3.61573 1.018645,1.0644 1.867924,1.94255 1.88728,1.95143 0.01937,0.009 -0.131897,-0.46885 -0.336126,-1.06163 z m -29.603413,-1.81239 c 0.226433,-0.71342 1.676966,-2.09006 2.826416,-2.68242 2.419511,-1.24689 4.616162,-0.76213 6.44144,1.42149 l 1.008311,1.20626 1.610818,-0.81314 c 2.005004,-1.01212 4.003061,-1.70762 5.588894,-1.94543 1.387205,-0.20803 2.331553,-1.05172 3.424147,-3.05917 1.878052,-3.4506 0.668454,-7.31919 -2.689471,-8.6016 -1.011229,-0.38619 -1.377495,-0.40873 -2.362078,-0.1454 -0.6409,0.17142 -1.439788,0.31166 -1.775306,0.31166 -0.836692,0 -2.618865,1.58585 -3.491696,3.10705 -1.022421,1.78191 -2.185003,2.95087 -3.563591,3.58314 -1.009914,0.46318 -1.801844,0.55615 -5.217689,0.61252 -3.340335,0.0551 -4.166875,0.14876 -4.84692,0.54906 -0.8577951,0.50494 -1.8416403,1.85361 -1.8416403,2.52454 0,0.74023 1.5170203,2.64989 2.8084833,3.5354 1.498851,1.0277 1.857714,1.09603 2.079882,0.39604 z M 33.850034,392.2575 c -0.09739,-0.15757 -0.300617,-0.21014 -0.451618,-0.11682 -0.177765,0.10987 -0.150704,0.24622 0.07677,0.38681 0.424593,0.26241 0.617861,0.12321 0.374852,-0.26999 z m 17.648972,-25.61969 c 1.538846,-0.6807 3.271578,-2.25349 3.951975,-3.58718 0.676717,-1.32648 0.716264,-3.70582 0.08375,-5.03875 -1.341596,-2.8272 -5.607809,-4.30482 -9.280213,-3.21423 -0.720166,0.21386 -1.522177,0.54444 -1.782246,0.7346 -0.448974,0.3283 -0.439941,0.40553 0.178864,1.52939 0.958326,1.74048 1.964912,5.19292 2.318972,7.95375 l 0.310922,2.42444 1.512486,-0.13715 c 0.831868,-0.0754 2.049338,-0.37462 2.705491,-0.66487 z M -2.3127072,344.2649 c 1.0512054,-0.7042 2.5913264,-1.51932 3.4224885,-1.81138 2.0074307,-0.70537 1.9650312,-0.66087 1.4952688,-1.56929 -2.44888271,-4.73562 -8.1629168,-5.21477 -10.8257178,-0.90779 -0.6959652,1.1257 -0.7991025,1.53756 -0.7930276,3.16682 0.00722,1.94055 0.4187031,3.10977 1.5174091,4.31183 l 0.5364507,0.58692 1.3679249,-1.24838 c 0.7523559,-0.6866 2.2279979,-1.82453 3.2792034,-2.52873 z m 10.2253623,48.8606 c -0.838446,-0.19203 -3.8828952,-1.19491 -4.850405,-1.59778 l -0.8816578,-0.36712 0.7286466,-0.97955 c 0.4007564,-0.53875 0.7426907,-1.00411 0.7598569,-1.03413 0.017171,-0.03 0.97899,0.24176 2.1373861,0.60396 1.158396,0.3622 2.6724873,0.78375 3.3646479,0.93677 l 1.2584752,0.27823 -0.6553496,1.10219 c -0.6682792,1.12393 -0.9277323,1.27131 -1.8616003,1.05743 z m -29.4035171,-1.99587 c -0.10906,-0.17647 -0.250761,-1.32053 -0.314891,-2.54238 l -0.116601,-2.22153 0.660494,0.43277 c 0.553727,0.36282 0.683271,0.69894 0.801403,2.07936 0.0775,0.90561 0.225347,1.85493 0.328548,2.1096 0.149504,0.36892 0.05063,0.46302 -0.486513,0.46302 -0.370783,0 -0.763381,-0.14438 -0.87244,-0.32084 z m 15.8850766,-0.41399 -1.0336424,-0.70769 0.7106682,-0.13864 c 0.4300987,-0.0839 0.9706742,-0.52346 1.3692478,-1.11338 l 0.6585823,-0.97474 -0.6323356,-0.41432 c -0.3477842,-0.22788 -0.7074191,-0.41432 -0.7991845,-0.41432 -0.091768,0 -1.1799305,-0.67408 -2.4181382,-1.49795 -2.3141492,-1.53979 -6.0590282,-4.90016 -7.5285032,-6.75553 l -0.82983,-1.04774 0.575083,-0.57491 0.575084,-0.57491 0.699017,0.92604 c 0.915024,1.2122 3.801951,3.97455 5.6359343,5.39273 1.8294614,1.41468 4.0650079,2.76071 6.6121437,3.98118 1.83851011,0.88093 2.02541706,1.04818 2.58280152,2.31115 0.33047516,0.74882 0.54737258,1.41498 0.48199408,1.48036 -0.0653812,0.0654 -0.95636552,-0.33347 -1.97996961,-0.88635 -1.02360409,-0.55287 -1.91036829,-0.95223 -1.97058749,-0.88746 -0.060219,0.0648 -0.4616662,0.67721 -0.8921062,1.36097 l -0.7826163,1.2432 z M 11.779223,379.12552 c -0.295608,-0.3758 -0.609928,-0.91158 -0.698492,-1.19062 -0.08856,-0.27904 -0.301832,-0.5116 -0.473927,-0.51679 -3.8050126,-0.11478 -6.985402,-0.7917 -8.9760053,-1.91049 -1.44822325,-0.81394 -2.8911787,-3.03072 -3.0502277,-4.68598 -0.1150884,-1.19773 -0.074771,-1.33159 0.4010634,-1.33159 0.41686424,0 0.56671895,0.2358 0.70687138,1.11226 0.0978217,0.61175 0.42286501,1.50869 0.72231512,1.99321 0.53052925,0.85842 2.1926523,2.1862 2.7366938,2.1862 0.1492673,0 0.4628885,-0.53253 0.6969363,-1.18339 0.422402,-1.17465 0.4207589,-1.18652 -0.2226204,-1.60808 -0.9081505,-0.59504 -1.558073,-2.18865 -1.0853764,-2.66135 0.2912957,-0.2913 0.5524791,-0.28794 1.5405655,0.0198 0.8001185,0.24919 0.9842156,0.37635 0.5620941,0.38825 -0.5273437,0.0149 -0.5750454,0.0812 -0.2983336,0.41457 0.4474422,0.53914 1.6986752,0.53906 1.4917816,-9e-5 -0.1342469,-0.34985 -0.036629,-0.34863 0.8223171,0.0103 0.5360564,0.22398 1.0680276,0.55145 1.1821583,0.7277 0.2655887,0.41017 -0.9538838,1.51109 -1.6738044,1.51109 -0.3741446,0 -0.6861704,0.35466 -1.0644902,1.20991 -0.2943595,0.66545 -0.4752869,1.36603 -0.4020634,1.55684 0.1547177,0.40319 2.9233838,0.93742 4.8582208,0.93742 1.281642,0 1.340821,-0.0325 1.499029,-0.82356 0.26847,-1.34235 2.623518,-4.20353 3.459937,-4.20353 0.07565,0 -0.337904,0.62508 -0.919001,1.38906 -0.581099,0.76399 -1.173919,1.80578 -1.317379,2.31511 -0.329234,1.16886 -0.33723,3.05471 -0.01767,4.16893 0.297347,1.03679 0.219636,1.06506 -0.480586,0.17487 z m 11.517862,-7.62401 c -0.997632,-1.30796 -2.801471,-2.09753 -4.773591,-2.08948 l -1.615006,0.007 1.322917,-0.62234 c 2.357826,-1.1092 4.146661,-0.74211 5.070567,1.04055 0.400077,0.77194 0.926902,2.56363 0.753806,2.56363 -0.04016,0 -0.381577,-0.40453 -0.758693,-0.89896 z M 0.28382884,363.8358 c -0.97329621,-1.27606 -2.63790364,-2.01654 -4.55939514,-2.02818 l -1.5701115,-0.01 0.79375,-0.65517 c 1.1278499,-0.93093 2.6360357,-1.30093 3.6280115,-0.89004 0.87649313,0.36305 1.84144703,1.70663 2.32382212,3.23562 0.42274328,1.33998 0.22577158,1.45101 -0.61607698,0.34729 z"
				  style="fill:#020203;" />
		</g>
	</g>
</svg>