<svg
   id="panda-playing"
   
   viewBox="0 0 210 297"
  >
	<g
	   id="layer1">
		<path
		   id="path2616"
		   d="m 65.889846,251.53194 c -0.836718,-0.42656 -2.798361,-0.86725 -4.359238,-0.97929 -4.949513,-0.35528 -8.316606,-2.82646 -10.877061,-7.9829 l -1.371998,-2.76305 h -3.22828 c -6.593624,0 -11.909839,-2.24892 -16.738321,-7.08084 -5.045079,-5.04865 -6.910212,-9.95216 -6.577749,-17.29316 0.276413,-6.10346 2.018325,-9.53788 5.832676,-11.49989 1.956021,-1.00615 5.675105,-1.04884 8.334481,-0.0958 l 1.963281,0.70365 0.91214,-1.15961 c 1.427403,-1.81464 2.950938,-3.15037 4.536919,-3.97763 1.269802,-0.66236 1.53078,-1.07639 2.017868,-3.20116 1.667939,-7.2761 5.728574,-17.77652 9.26248,-23.95193 l 2.066501,-3.61112 -3.860747,-3.89812 c -5.597227,-5.6514 -8.143083,-10.5946 -9.515569,-18.47599 l -0.483812,-2.77831 -1.097617,1.02587 c -1.780166,1.66378 -3.597974,2.37107 -6.093858,2.37107 -3.945682,0 -6.922244,-2.17375 -8.257436,-6.03034 -0.486757,-1.406 -0.795739,-1.65675 -2.813843,-2.28364 -5.816296,-1.80673 -10.063258,-6.6301 -11.186137,-12.70433 -0.385049,-2.08298 -0.299689,-3.3361 0.580779,-8.52549 2.825088,-16.65085 3.3066,-18.176041 6.860036,-21.729491 2.919708,-2.919708 5.991898,-4.25804 10.295542,-4.485031 l 3.400228,-0.179341 0.913117,-2.554055 c 3.876764,-10.843602 12.217056,-23.196321 21.01034,-31.118219 2.752972,-2.480157 2.890666,-2.692779 2.927567,-4.520379 0.0715,-3.545441 1.507739,-4.704567 9.86367,-7.960971 16.988842,-6.620749 35.313915,-7.855969 52.449495,-3.535406 6.84345,1.725508 14.5868,4.56545 18.1639,6.661764 1.8897,1.107432 3.08753,3.108853 3.08753,5.158846 0,1.006051 0.42689,1.661332 1.97929,3.038245 5.61533,4.980515 11.31949,11.708104 15.14526,17.862565 2.33064,3.749289 6.0201,11.287674 7.25897,14.831679 l 0.74764,2.138795 3.37299,0.184328 c 2.60096,0.142136 3.91506,0.451821 5.7413,1.353003 3.77334,1.861988 6.95262,5.340009 8.19966,8.970098 0.77374,2.25235 3.80799,19.81303 3.80799,22.03869 0,7.0684 -5.56213,14.028 -12.20757,15.27468 -1.32378,0.24835 -1.59263,0.49758 -1.94722,1.80507 -0.99821,3.68064 -4.26693,6.30893 -7.84621,6.30893 -1.66148,0 -1.78146,0.0887 -2.77523,2.04973 -0.57127,1.12735 -2.02765,3.21398 -3.23641,4.63696 -1.20874,1.42298 -2.89263,3.69355 -3.74196,5.04571 -2.24378,3.57218 -4.24692,5.89055 -6.77444,7.84052 l -2.22946,1.72001 2.85265,5.50045 c 4.29745,8.2863 6.63125,14.142 8.96279,22.48853 0.59188,2.11882 0.8693,2.50469 2.34039,3.25518 0.91791,0.46829 2.57339,1.7997 3.67883,2.95869 l 2.0099,2.10726 1.89285,-0.72288 c 1.35743,-0.5184 2.71751,-0.6763 4.80811,-0.55817 2.49607,0.14111 3.14331,0.34826 4.50134,1.4412 3.39224,2.73003 4.71408,6.10169 4.70636,12.00462 -0.008,6.36529 -1.73947,10.96847 -5.76495,15.32925 -1.2956,1.40353 -3.46603,3.27173 -4.82315,4.15158 -3.02152,1.95889 -8.27265,3.67427 -11.24773,3.67427 h -2.21311 l -1.28958,2.60434 c -2.63474,5.32093 -5.89545,7.75925 -10.85216,8.11515 -1.52092,0.10914 -3.5277,0.55468 -4.45948,0.98994 -0.9318,0.43527 -2.30981,0.79141 -3.06224,0.79141 -3.03701,0 -6.08331,-2.59492 -6.57046,-5.59688 -0.31616,-1.94828 -2.17961,-3.5704 -4.10155,-3.5704 -0.77284,0 -3.71179,0.47276 -6.53097,1.05059 -17.01554,3.48752 -20.66438,3.50948 -36.776159,0.22127 -3.427616,-0.69952 -6.929079,-1.27186 -7.781058,-1.27186 -2.138726,0 -3.921271,1.5496 -4.266586,3.70902 -0.683368,4.27359 -5.593462,6.68735 -9.525521,4.68266 z m 5.416332,-2.14186 c 0.749515,-0.45699 1.525158,-1.25321 1.723659,-1.76939 0.481166,-1.25123 1.288874,-5.70684 1.288874,-7.10986 v -1.12082 h -5.83373 c -3.747181,0 -5.833715,0.1545 -5.833715,0.43178 0,0.23746 0.407492,2.06571 0.905541,4.06276 1.441987,5.78191 4.145633,7.70272 7.749371,5.50553 z m 72.856882,-0.077 c 0.66114,-0.50101 1.27188,-0.96145 1.35716,-1.02319 0.22019,-0.15938 2.13676,-7.62293 2.13676,-8.32098 0,-0.4666 -1.1323,-0.57897 -5.83373,-0.57897 -6.69841,0 -6.20122,-0.4197 -5.37299,4.5356 0.58416,3.49497 1.10661,4.57958 2.66447,5.5315 1.67092,1.02098 3.58294,0.96646 5.04833,-0.14394 z m -81.928499,-1.4709 c 0,-0.16409 -0.394956,-2.14306 -0.877681,-4.3977 -1.246588,-5.82228 -1.371084,-5.72131 7.055702,-5.72131 7.149756,0 7.989608,0.2685 7.989608,2.55442 0,1.08932 0.07811,1.1455 1.068859,0.76881 1.684743,-0.64053 2.802535,-0.51533 11.864403,1.32891 7.934517,1.61481 9.018338,1.73777 15.610328,1.77095 6.76845,0.034 7.48264,-0.0446 16.04274,-1.76769 8.46467,-1.70388 10.82946,-1.91282 12.65311,-1.1179 0.66212,0.28861 0.73419,0.20297 0.4863,-0.57801 -0.18239,-0.57465 -0.0413,-1.29801 0.37821,-1.93816 0.66359,-1.01275 0.72462,-1.02133 7.26214,-1.02133 6.10767,0 6.64957,0.0625 7.36253,0.85039 0.74915,0.82782 0.74534,0.95793 -0.14379,4.90044 -0.50235,2.22752 -0.91337,4.18875 -0.91337,4.35829 0,0.56841 2.27529,0.29748 3.95861,-0.47137 2.26603,-1.03502 4.18469,-3.10503 5.65019,-6.09586 2.97768,-6.07696 2.52975,-11.52084 -1.49008,-18.10923 -0.77476,-1.26985 -1.53242,-2.82446 -1.68366,-3.45471 -0.32403,-1.35032 -0.0206,-1.31335 -3.93489,-0.4794 -3.69557,0.78734 -14.64309,0.92556 -18.68233,0.23586 -3.68235,-0.62878 -5.72224,-1.68109 -5.59429,-2.88593 0.0935,-0.88143 -0.0126,-0.92478 -1.66678,-0.67593 -0.97173,0.14615 -1.89633,0.38253 -2.05465,0.52512 -0.15831,0.14253 0.0126,1.33744 0.38109,2.65523 0.6463,2.31482 0.71687,2.39601 2.08317,2.39601 4.09509,0 11.10134,1.80191 12.21263,3.14093 0.38442,0.46321 1.54577,0.60932 4.84333,0.60932 7.12246,0 8.89008,1.38439 8.89298,6.96497 0.001,2.54679 -0.12159,3.07232 -0.80445,3.43773 -0.47202,0.25261 -3.99046,0.43135 -8.49122,0.43135 -6.27933,0 -7.77891,-0.11292 -8.19742,-0.61716 -0.3418,-0.41185 -0.46209,-1.72032 -0.36159,-3.93326 0.13607,-2.9953 0.26839,-3.43906 1.36836,-4.58717 0.66977,-0.6991 1.13768,-1.3363 1.0398,-1.41602 -0.71986,-0.58621 -4.10957,-1.54038 -6.80322,-1.91504 -5.30783,-0.73824 -5.11787,-0.80443 -5.33884,1.86022 -0.20622,2.48659 -1.18147,4.21395 -2.86875,5.08108 -0.73893,0.37976 -4.8918,0.51634 -15.83678,0.52087 -14.702324,0.006 -14.847594,-0.002 -16.217151,-0.93142 -1.525866,-1.0352 -2.41139,-3.00258 -2.459866,-5.46504 l -0.03166,-1.61061 -2.395988,0.27017 c -3.285764,0.37052 -6.334788,1.07226 -7.732078,1.7796 l -1.169134,0.59184 1.273314,1.45022 c 1.186111,1.35093 1.273298,1.67177 1.273298,4.68594 0,1.96108 -0.196974,3.43269 -0.500034,3.73575 -0.353315,0.35331 -2.789872,0.50003 -8.304116,0.50003 -9.287223,0 -9.114487,0.0776 -9.112156,-4.09253 0.0031,-5.29724 1.876394,-6.74152 8.744572,-6.74152 3.749039,0 4.352544,-0.10757 5.742937,-1.02342 1.852833,-1.2205 5.229831,-2.14972 9.253251,-2.54619 2.730861,-0.26909 2.954466,-0.36626 3.177631,-1.38096 0.131977,-0.60034 0.429415,-1.71349 0.660847,-2.47369 0.231449,-0.7602 0.355237,-1.43849 0.275106,-1.50732 -0.08016,-0.0688 -0.846057,-0.25175 -1.702036,-0.40648 -1.312954,-0.23734 -1.516811,-0.17841 -1.30371,0.37694 0.376766,0.98183 -0.918675,2.14976 -2.952466,2.66188 -5.36321,1.35047 -18.146321,1.38067 -22.728329,0.0537 -2.031696,-0.58839 -2.50116,-0.53095 -2.514657,0.30764 -0.0063,0.40107 -0.42836,1.49144 -0.937559,2.42306 -2.707253,4.95305 -3.292962,6.2417 -3.882025,8.54102 -1.567586,6.1189 2.020561,14.73286 7.12314,17.10038 1.663907,0.77202 3.958596,1.05797 3.958596,0.4933 z m 13.081304,-14.52839 c 0.588512,-1.53365 0.242851,-3.88976 -0.73794,-5.03 -0.977168,-1.13604 -1.059409,-1.15218 -5.953691,-1.16915 -4.006946,-0.0142 -5.173528,0.12049 -6.056737,0.69791 -1.248494,0.81615 -1.787931,2.64559 -1.396047,4.73451 l 0.267498,1.42586 h 6.811986 c 5.827257,0 6.84857,-0.0953 7.064931,-0.65913 z m 73.826175,-1.24832 c 0.58812,-3.92191 -1.3306,-5.28053 -7.26027,-5.14096 -4.11343,0.0969 -5.64432,0.51148 -6.52379,1.76712 -0.6419,0.91643 -0.78999,2.7239 -0.3559,4.34371 0.24754,0.92373 0.3516,0.93758 7.05258,0.93758 h 6.80134 z m -29.41762,-3.29401 c 0.7487,-0.38716 1.38229,-1.18623 1.69722,-2.1405 0.5535,-1.67712 0.35191,-6.78361 -0.33557,-8.50021 l -0.42031,-1.0495 -15.9583,0.008 -15.958315,0.008 -0.566605,2.08346 c -1.092688,4.01787 -0.06174,9.40954 1.898332,9.92794 0.383506,0.10142 6.94138,0.20616 14.573078,0.23274 11.5155,0.0402 14.07901,-0.0567 15.07047,-0.56945 z M 76.745173,218.54993 c 3.485935,-0.45264 6.324126,-1.22069 6.324126,-1.7114 0,-0.37345 -2.176508,-0.97994 -4.959703,-1.38203 -1.491486,-0.21548 -1.749157,-0.1622 -1.378093,0.2849 0.867397,1.04514 -0.09638,1.66011 -2.355969,1.5033 -1.437404,-0.0997 -2.196715,0.0217 -2.331275,0.37293 -0.119378,0.31146 -0.964112,0.52087 -2.101196,0.52087 -1.570987,0 -1.959817,-0.15733 -2.236276,-0.90462 -0.221732,-0.59943 -0.436376,-0.74002 -0.6362,-0.41671 -0.165854,0.26837 -1.151857,0.48794 -2.191108,0.48794 -1.559018,0 -1.928901,-0.15056 -2.114599,-0.86059 -0.197872,-0.75672 -0.432139,-0.82636 -1.940288,-0.57688 -0.943386,0.15608 -2.277775,0.52026 -2.965317,0.80935 l -1.250084,0.52561 1.123697,0.44919 c 2.841782,1.13599 13.355496,1.63267 19.012285,0.89814 z m 71.098747,-0.0376 c 6.21198,-0.76184 7.09449,-1.51862 2.81359,-2.41273 -2.88637,-0.60282 -2.86555,-0.60566 -3.1353,0.42588 -0.20949,0.80109 -0.45486,0.86857 -2.53155,0.69636 -1.66821,-0.13828 -2.35793,-0.0387 -2.51208,0.36303 -0.25151,0.65546 -3.80512,0.77147 -4.19722,0.13702 -0.14159,-0.22918 -1.26673,-0.41669 -2.50017,-0.41669 -2.38276,0 -3.10648,-0.47684 -2.26415,-1.49177 0.44892,-0.54092 0.27731,-0.58738 -1.31839,-0.35685 -3.00466,0.4341 -4.99982,1.02993 -4.75813,1.42097 1.03693,1.67781 12.53838,2.59934 20.4034,1.63478 z m -74.358603,-2.99339 c 0.35626,-0.13182 0.132292,-0.24555 -0.52087,-0.26431 -0.79273,-0.0227 -1.145904,0.17548 -1.145904,0.64318 0,0.48266 0.148987,0.55826 0.52087,0.2643 0.286476,-0.22649 0.802132,-0.51591 1.145904,-0.64317 z m 65.004383,0.32784 c 0,-0.43729 -0.40678,-0.61053 -1.35426,-0.5767 -0.8769,0.0313 -1.0605,0.11907 -0.52087,0.24879 0.45836,0.11025 1.01153,0.36977 1.22924,0.5767 0.54281,0.51591 0.64589,0.47621 0.64589,-0.24879 z m -40.98151,-0.64897 c 0.924613,-0.35152 1.035408,-0.51756 0.548005,-0.82122 -1.060701,-0.66083 -4.176375,-0.96476 -4.684188,-0.45694 -0.60097,0.60095 -6.746658,0.61709 -7.861127,0.0206 -0.510774,-0.27336 -1.515503,-0.32596 -2.576945,-0.13497 l -1.739754,0.31312 1.875118,0.35431 c 1.578815,0.2983 8.0644,0.8882 12.161195,1.1061 0.615332,0.0328 1.640299,-0.13874 2.277696,-0.38111 z m 12.64627,-0.38316 c 0,-0.91149 1.31317,-1.92312 2.91686,-2.24706 3.457,-0.69829 3.33356,-0.62075 3.33356,-2.09369 0,-1.23964 -0.15135,-1.42866 -1.33248,-1.6649 -3.2032,-0.64064 -4.06198,-2.46134 -2.42631,-5.14399 0.63647,-1.04389 1.20185,-1.40851 2.50784,-1.61734 0.92737,-0.14836 1.76766,-0.40157 1.86732,-0.56283 0.0997,-0.16127 -0.0298,-0.98044 -0.28748,-1.82039 l -0.46871,-1.52719 H 103.8827 91.500353 l -0.203352,0.93756 c -0.111818,0.51566 -0.328069,1.23135 -0.480536,1.59041 -0.228126,0.53723 0.260521,0.73597 2.759099,1.12225 3.639772,0.56268 4.911432,1.66178 4.911432,4.24498 0,1.47707 -0.127095,1.64913 -1.675199,2.26857 -0.921369,0.36866 -1.952698,0.6703 -2.291823,0.6703 -0.426265,0 -0.616609,0.44778 -0.616609,1.45049 0,1.21172 0.171476,1.48609 1.041739,1.66677 0.572952,0.11891 1.557396,0.32275 2.187643,0.45285 1.704761,0.35195 3.021043,1.34238 3.021043,2.27321 0,0.77483 0.29723,0.82379 5.00033,0.82379 4.70311,0 5.00034,-0.049 5.00034,-0.82379 z m 14.79266,-0.0994 c 3.89674,-0.44369 4.06324,-0.49995 2.56751,-0.86745 -1.08958,-0.26772 -1.92602,-0.24419 -2.62395,0.0739 -1.2708,0.57901 -7.50929,0.61878 -7.86077,0.0501 -0.34783,-0.56284 -2.18074,-0.47312 -3.95859,0.19376 l -1.45843,0.54708 1.04174,0.44351 c 1.13401,0.48279 5.58206,0.32328 12.29249,-0.4408 z m -54.908208,0.25478 c -0.138435,-0.13844 -0.49786,-0.15324 -0.798668,-0.0329 -0.3324,0.13308 -0.233669,0.23175 0.251749,0.25175 0.439274,0.0181 0.685385,-0.0805 0.546919,-0.21886 z m 9.905185,-1.83172 c 0.899052,-0.45836 2.016891,-0.83594 2.484088,-0.83908 2.088518,-0.0142 2.724592,-0.46176 2.724592,-1.91803 0,-1.13946 -0.162388,-1.40983 -0.846781,-1.40983 -1.427419,0 -3.800365,-1.19458 -4.016774,-2.0221 -0.161648,-0.61815 -0.742301,-0.83933 -2.756027,-1.0498 -8.135019,-0.85028 -18.151771,-5.42385 -24.153386,-11.02824 -1.088625,-1.01657 -1.979299,-2.13772 -1.979299,-2.49143 0,-1.66183 5.280245,-12.04112 8.736493,-17.17318 1.414567,-2.10044 2.51209,-3.87063 2.438935,-3.93373 -0.07308,-0.0632 -0.714504,-0.41023 -1.425214,-0.77139 l -1.292181,-0.65663 -1.711863,2.99964 c -0.941528,1.64979 -2.375089,4.43903 -3.185694,6.19829 -2.579166,5.59751 -6.477349,16.77903 -6.477349,18.57959 0,0.22359 0.850955,0.50244 1.890978,0.61968 3.265825,0.3681 7.105548,2.60594 10.843169,6.31951 1.864424,1.85242 4.039468,4.49312 4.833427,5.86822 l 1.443577,2.50017 4.8954,0.26806 c 2.692464,0.14742 5.009155,0.38184 5.148188,0.52087 0.383144,0.38315 0.634263,0.32255 2.405721,-0.58059 z m 57.226063,0.13041 3.88916,-0.25692 0.98024,-1.5528 c 0.53912,-0.85402 1.25248,-2.20435 1.58521,-3.0007 0.33273,-0.79635 1.92232,-2.76526 3.53239,-4.37533 3.27673,-3.27673 6.92661,-5.35775 10.1459,-5.7848 1.78998,-0.23745 2.01035,-0.37245 1.78209,-1.09165 -0.14332,-0.45138 -0.59752,-1.97358 -1.00946,-3.38265 -1.54273,-5.27716 -7.27156,-18.27955 -9.9919,-22.67801 -0.83037,-1.34261 -0.86423,-1.35439 -2.08228,-0.72453 l -1.23818,0.6403 2.02898,3.01633 c 2.50991,3.73135 5.37012,9.07173 7.13906,13.32954 0.73791,1.77615 1.49657,3.22938 1.68592,3.22938 0.18934,0 0.54396,0.37314 0.78804,0.82922 0.37522,0.70109 0.16913,1.12718 -1.33379,2.75765 -4.85499,5.26705 -13.57728,9.52819 -23.76983,11.61239 -0.76535,0.15654 -1.14591,0.49701 -1.14591,1.02531 0,0.71389 -1.48196,1.49174 -4.47946,2.35118 -0.28648,0.0822 -0.52087,0.70928 -0.52087,1.39364 0,1.1134 0.16435,1.27187 1.56261,1.50659 2.29946,0.38601 4.22362,1.02827 4.52068,1.50892 0.14363,0.23244 0.66192,0.30588 1.15171,0.16322 0.4898,-0.14268 2.64067,-0.37498 4.77969,-0.51628 z m -45.012597,-1.90128 0.1293,-1.56261 H 89.344839 86.40283 v 1.42372 c 0,1.70136 0.34733,1.88704 3.333547,1.78205 L 92.0282,212.93 Z m 31.539477,0.1041 v -1.45844 l -2.8127,-0.12316 -2.81269,-0.12316 v 1.44276 c 0,1.72125 0.34242,1.90625 3.33356,1.8011 l 2.29183,-0.0806 z m -82.169476,-0.0287 c -2.383719,-4.04919 -5.020936,-5.78039 -8.829129,-5.79594 -2.478576,-0.009 -4.491388,0.95208 -5.631449,2.69204 -1.017107,1.5523 -0.836623,1.59961 1.307931,0.34283 3.716596,-2.17808 8.593459,-1.13091 12.236113,2.62736 1.691547,1.74523 1.881544,1.77294 0.916534,0.13371 z m 128.937026,-2.62268 c 3.60741,-1.86547 6.76644,-1.74207 9.90356,0.38683 l 1.5734,1.06774 -0.85526,-1.38093 c -1.39412,-2.25099 -3.20221,-3.25606 -5.85752,-3.25606 -3.85752,0 -6.62105,1.81478 -8.99845,5.90926 l -0.80297,1.3829 1.90122,-1.73561 c 1.04567,-0.95459 2.45689,-2.02296 3.13602,-2.37415 z m -124.782338,-4.9314 c 2.614948,-1.86202 7.507701,-1.34028 12.884456,1.37389 1.329775,0.67127 2.417769,1.13736 2.417769,1.03575 0,-0.43292 -6.211142,-3.97349 -8.035926,-4.58076 -2.56477,-0.85351 -5.827667,-0.84689 -7.64508,0.0157 -0.787045,0.37347 -2.074124,1.43042 -2.860192,2.34877 l -1.429214,1.6697 0.922109,1.13211 0.922093,1.13209 0.778683,-1.61258 c 0.42828,-0.88693 1.348673,-2.01845 2.045302,-2.5145 z m 49.471197,3.69477 c 1.617904,-0.42049 1.893938,-0.65206 2.012261,-1.68813 0.128355,-1.12442 0.06221,-1.1834 -1.041723,-0.92734 -0.64839,0.1504 -3.710312,0.43749 -6.804268,0.638 -3.093956,0.2005 -6.094158,0.54838 -6.667109,0.77307 -1.014604,0.39787 -0.99832,0.41995 0.625034,0.84759 3.714879,0.9786 8.885557,1.13395 11.875805,0.35681 z m 31.884661,-0.37012 1.65926,-0.49402 -2.29182,-0.31665 c -1.26049,-0.17414 -4.16694,-0.50159 -6.45876,-0.72766 -2.29183,-0.22607 -4.79138,-0.5409 -5.55457,-0.69963 -1.3349,-0.27764 -1.38237,-0.24353 -1.25008,0.89847 0.11733,1.01235 0.41352,1.26441 2.01265,1.71258 2.18785,0.61316 9.32323,0.38913 11.88332,-0.37309 z m 38.88143,-0.31731 0.91814,-1.24184 -1.4746,-1.6322 c -3.69598,-4.091 -8.64762,-4.01909 -15.51846,0.22535 -1.66156,1.02643 -3.02104,1.94938 -3.02104,2.05099 0,0.10158 1.08801,-0.36448 2.41779,-1.03575 7.32473,-3.69751 12.89507,-3.24893 14.94776,1.20372 0.41837,0.90752 0.77229,1.65489 0.78649,1.6608 0.0142,0.006 0.43896,-0.54807 0.94392,-1.23107 z m -70.766091,-3.23372 c 0.846262,-0.32361 -1.309631,-0.82848 -3.809846,-0.89218 -1.331743,-0.0339 -2.006245,0.13717 -2.16424,0.54882 -0.126308,0.32897 -0.0063,0.68705 0.267939,0.79575 0.580953,0.23081 4.792747,-0.10315 5.706147,-0.45239 z m 23.833521,-0.21773 c -0.49901,-0.60127 -4.38916,-0.45449 -4.01466,0.15151 0.12741,0.20615 1.18113,0.37484 2.34157,0.37484 1.65235,0 2.01518,-0.11418 1.67309,-0.52633 z m -30.655617,-8.95446 c -0.94904,-1.83524 -1.862424,-2.43876 -7.57369,-5.00433 -7.70058,-3.45921 -12.146359,-6.70423 -13.621954,-9.94281 -0.24819,-0.54475 -0.586811,-0.99045 -0.752476,-0.99045 -0.677967,0 -0.670864,1.69065 0.01417,3.21927 1.181166,2.63823 5.442004,5.35312 13.502309,8.60329 4.191809,1.69027 6.781101,3.12342 7.923146,4.38535 1.069852,1.18217 1.219232,1.10286 0.509137,-0.27032 z m 38.616267,-3.88396 c 10.13917,-4.02769 14.50628,-7.2585 14.43443,-10.67867 -0.023,-1.09376 -0.0554,-1.11456 -0.52087,-0.33322 -1.10254,1.85116 -5.28042,5.58015 -7.88174,7.0349 -1.52032,0.85021 -4.48869,2.28289 -6.5964,3.18374 -3.77653,1.61412 -6.6446,3.41377 -6.6446,4.16935 0,0.21247 0.85335,-0.15481 1.89632,-0.81629 1.04298,-0.66145 3.43377,-1.81335 5.31286,-2.55981 z m -10.95943,-15.80895 c 13.86282,-1.0344 25.0305,-4.01087 31.72775,-8.45625 2.3549,-1.5631 6.80115,-5.65218 6.48723,-5.96612 -0.0921,-0.0921 -1.24532,0.30893 -2.56243,0.89141 -3.18571,1.40888 -7.70195,2.61641 -11.24998,3.00797 -2.79907,0.3089 -2.90177,0.36098 -3.23235,1.63875 -0.42355,1.63722 -2.40257,3.35327 -4.2714,3.70386 -0.77616,0.14568 -4.09898,0.19954 -7.38406,0.11985 -8.14873,-0.1977 -9.09807,-0.89016 -9.09807,-6.6361 0,-5.44772 1.29122,-6.21615 10.44517,-6.21615 4.97238,0 6.60845,0.14395 7.7406,0.68123 1.43169,0.67938 2.64897,2.39504 2.64897,3.73352 0,0.62042 0.36574,0.67698 3.02103,0.46715 5.09474,-0.40258 11.53202,-2.81272 15.77899,-5.9077 1.79243,-1.30625 1.98852,-1.63942 2.86984,-4.87594 1.19359,-4.38333 1.20786,-7.78931 0.0545,-13.03382 -0.50107,-2.2786 -0.97748,-4.20934 -1.05868,-4.29056 -0.0813,-0.0813 -0.27764,0.56428 -0.43652,1.43438 -0.51117,2.79978 -2.97633,7.30437 -5.23364,9.56346 -4.13968,4.14296 -9.25032,6.01748 -16.37282,6.00534 -10.29293,-0.0175 -19.01063,-5.00048 -23.05103,-13.17568 -1.496,-3.02694 -1.61515,-3.53156 -1.61515,-6.8403 0,-3.1779 0.1471,-3.87032 1.33274,-6.27203 2.56661,-5.1992 6.86983,-9.57206 11.65478,-11.84341 4.39847,-2.08789 6.62361,-2.52269 12.84754,-2.51047 5.11534,0.009 6.1336,0.13088 8.26876,0.98117 3.24846,1.29365 6.34448,3.8702 8.5032,7.07648 1.03366,1.53525 1.76883,2.31099 1.76582,1.86332 -0.003,-0.42185 -0.9311,-5.97267 -2.06284,-12.33515 l -2.05772,-11.568126 -1.93096,-2.509429 c -2.25533,-2.930968 -5.53365,-5.756345 -9.59213,-8.266854 -1.59176,-0.984646 -4.39423,-2.719438 -6.22767,-3.855094 -11.31268,-7.007152 -26.28284,-12.324826 -35.907662,-12.75506 -4.574449,-0.204476 -4.674266,-0.189392 -5.72955,0.865892 -0.936472,0.936467 -1.074009,1.424938 -1.074009,3.814531 0,1.960735 -0.165491,2.804042 -0.58163,2.963729 -0.319895,0.122764 -2.335652,-0.614692 -4.479466,-1.638778 -4.282398,-2.045679 -8.958444,-3.610909 -10.787417,-3.610909 -1.59595,0 -2.618649,1.081739 -2.283839,2.415691 0.274365,1.093149 2.426116,4.440603 3.136746,4.879799 0.226205,0.139805 0.411304,0.603691 0.411304,1.030852 0,0.575532 -1.128438,1.315698 -4.357521,2.858192 -7.462596,3.564806 -12.601461,7.596578 -16.258305,12.755699 -3.596556,5.074085 -3.681917,5.371945 -7.065089,24.657435 l -3.13399,17.86512 0.626342,4.792 c 1.280416,9.79604 3.28948,14.55904 8.503138,20.15879 6.262468,6.72623 18.157062,10.95023 34.602954,12.28818 6.300769,0.5126 20.122444,0.53859 26.668474,0.0501 z m -15.41771,-19.31505 c 0,-1.25448 1.3721,-3.00762 3.02147,-3.86055 2.21686,-1.14639 6.14582,-0.005 6.14582,1.78547 0,0.65086 -1.07927,0.75726 -1.45843,0.14379 -0.8042,-1.30121 -5.44068,0.18116 -6.44684,2.06118 -0.61524,1.14957 -1.26202,1.08301 -1.26202,-0.12978 z m -37.502525,-5.51135 c -6.131277,-1.62743 -10.353262,-5.03234 -12.986998,-10.47363 -1.485942,-3.06993 -1.732888,-3.99139 -1.91153,-7.13253 -0.246095,-4.32719 0.475764,-7.63251 2.628633,-12.03627 1.99067,-4.07198 4.772179,-6.84355 8.776574,-8.74524 2.921504,-1.38742 3.587926,-1.53566 7.657223,-1.70331 8.949908,-0.36877 15.477811,1.9418 20.837778,7.37555 5.34732,5.42092 7.645474,10.70647 6.70886,15.4297 -1.593383,8.03514 -9.053805,15.1985 -18.033542,17.31546 -3.346666,0.78899 -10.652369,0.7731 -13.676998,-0.0298 z m 16.455594,-10.24233 c 2.645248,-2.08073 3.568539,-7.28543 1.766733,-9.95914 -1.245344,-1.84795 -9.153465,-5.5868 -10.402683,-4.91822 -1.135053,0.60746 -0.744365,1.67341 0.969467,2.64503 l 1.489879,0.84466 -0.5973,1.4529 c -0.92118,2.24075 -0.539926,6.60075 0.740617,8.46959 1.709201,2.4944 4.01345,3.054 6.033287,1.46518 z m 20.838581,7.0868 c -1.481549,-0.8174 -3.125218,-2.56793 -3.125218,-3.32842 0,-1.18419 1.48821,-1.6723 5.827688,-1.91142 3.75986,-0.20718 4.12413,-0.15761 4.95601,0.67427 0.84335,0.84335 0.85896,0.9731 0.25719,2.1368 -1.19328,2.30756 -5.65438,3.67636 -7.91567,2.42877 z m 33.72865,19.14368 c 0.88198,-1.2592 0.85689,-4.82026 -0.041,-5.81237 -0.61214,-0.67641 -1.42244,-0.76202 -7.2125,-0.76202 -7.96608,0 -8.15992,0.0866 -8.01369,3.58115 0.16149,3.85905 0.28518,3.91935 8.03958,3.91935 6.32608,0 6.60383,-0.0356 7.22757,-0.92611 z m 29.16945,-18.02829 c 0.6897,-1.29514 0.72129,-1.57741 0.21184,-1.89227 -0.80577,-0.498 -1.0747,-0.10835 -1.39568,2.02189 -0.31218,2.07195 0.0315,2.03431 1.18384,-0.12962 z M 39.606238,143.56856 c 2.66684,-1.62606 2.183674,0.32695 8.044918,-32.51943 1.768324,-9.90969 2.833954,-16.927062 2.678164,-17.63631 -0.628672,-2.862321 -4.191714,-5.222467 -7.069246,-4.682634 -1.492604,0.28001 -3.673948,1.86725 -4.380483,3.187417 -0.347693,0.649682 -5.555444,29.654317 -6.427534,35.798237 -0.146467,1.03132 -0.652359,3.99175 -1.124391,6.57873 l -0.858215,4.70362 0.98572,1.91433 c 1.661828,3.22739 5.280291,4.40647 8.151067,2.65604 z m 130.949742,-0.0576 c 1.8685,-1.05015 2.93448,-2.72085 2.94053,-4.60866 0.005,-1.47558 -0.61759,-5.38592 -4.63186,-29.10433 -1.37697,-8.13597 -2.70131,-15.540204 -2.94298,-16.453875 -0.57618,-2.178491 -2.75741,-4.222071 -4.89127,-4.582582 -2.30087,-0.38873 -5.02371,0.861962 -6.27131,2.880622 -1.24578,2.01572 -1.18401,2.604367 2.2548,21.489395 1.52324,8.36515 3.21842,17.7011 3.7671,20.74656 1.17364,6.51428 1.34203,7.12873 2.2388,8.16921 2.04588,2.3737 4.92282,2.93247 7.53619,1.46366 z m -38.91724,-4.33336 c 2.30221,-2.44108 2.80184,-6.61338 1.23558,-10.31811 -0.24279,-0.57429 0.0142,-0.86652 1.19463,-1.35986 1.02296,-0.42741 1.50388,-0.89726 1.50388,-1.46923 0,-1.82285 -1.66298,-1.56 -7.4442,1.17663 -2.73403,1.2942 -3.15902,1.65641 -3.89469,3.31954 -1.84847,4.17877 0.85993,10.09922 4.62258,10.10473 1.07177,0.002 1.73799,-0.34653 2.78222,-1.4537 z M 28.663377,132.40362 c 0.382892,-2.23453 1.058449,-5.84414 1.501219,-8.02137 0.627081,-3.08355 3.581248,-19.57857 5.268984,-29.42014 0.202013,-1.178079 0.107408,-1.316134 -1.063237,-1.55025 -1.684775,-0.336955 -5.649939,0.413261 -7.692926,1.455523 -2.416556,1.232835 -5.113871,4.231021 -6.039272,6.712917 -0.446156,1.19656 -1.215011,4.61323 -1.708556,7.59259 -0.49356,2.97937 -1.171291,7.03777 -1.506054,9.01866 -0.334778,1.9809 -0.608686,4.44875 -0.608686,5.48413 0,3.86582 2.720135,8.65416 6.104378,10.74575 1.330909,0.82254 4.053816,1.97591 4.784652,2.02667 0.144892,0.009 0.576606,-1.80995 0.959498,-4.04448 z m 152.064243,2.45921 c 3.22068,-1.71744 5.68609,-5.18226 6.54833,-9.20281 0.3548,-1.65433 0.30198,-3.04517 -0.25004,-6.58375 -1.68689,-10.81331 -2.72343,-16.05425 -3.55961,-17.998 -1.01319,-2.35523 -4.21575,-5.5904 -6.46393,-6.529742 -2.14979,-0.89824 -5.40397,-1.435514 -6.89209,-1.137889 -1.24616,0.249234 -1.28785,0.325498 -1.07599,1.968691 0.24427,1.894479 2.68323,15.68707 4.3181,24.41927 1.04528,5.5831 3.02546,16.35653 3.04587,16.57156 0.0302,0.31873 2.55041,-0.5587 4.32936,-1.50733 z M 42.376755,86.463062 c 0.461464,0 0.642783,-0.800854 0.778304,-3.43773 0.09717,-1.890752 0.119063,-3.513886 0.04851,-3.606963 -0.136859,-0.180625 -3.887206,7.577554 -3.887206,8.041168 0,0.151254 0.553218,-0.01102 1.22939,-0.360731 0.676171,-0.349657 1.500116,-0.635744 1.831005,-0.635744 z M 164.9337,86.775584 c -0.15434,-0.51566 -1.49202,-3.285654 -2.97264,-6.155543 -4.22715,-8.19355 -9.76513,-15.468998 -16.27319,-21.378689 -1.72322,-1.56479 -3.27087,-2.689866 -3.43921,-2.500168 -0.57843,0.651814 -2.24031,3.877561 -2.06212,4.002658 0.0981,0.06884 1.51597,1.289772 3.15092,2.713176 1.63494,1.423404 3.2288,2.588155 3.54191,2.588336 1.50865,8.76e-4 5.72889,2.550488 7.71122,4.658688 3.37973,3.594284 4.84671,7.06295 5.38718,12.737984 0.27681,2.906421 0.32916,3.021269 1.3798,3.027178 0.60064,0.0033 1.56084,0.266264 2.13381,0.584186 1.49604,0.83013 1.75878,0.779523 1.44232,-0.277806 z M 135.53736,72.759035 c 2.17706,-1.545455 6.48456,-2.963758 9.00117,-2.963758 0.98676,0 2.98277,0.372604 4.43558,0.828014 3.3543,1.051461 3.35586,1.051175 1.42008,-0.26423 -5.93377,-4.032093 -14.80313,-2.502642 -19.62724,3.38456 -1.55509,1.897773 -1.58799,2.000017 -0.82351,2.559017 0.71575,0.523369 0.94592,0.439639 2.27529,-0.827701 0.81344,-0.775485 2.30681,-1.997641 3.31863,-2.715902 z M 70.4539,73.85805 c -0.228519,-0.974024 -0.481166,-2.013993 -0.561455,-2.311048 -0.08032,-0.297048 -1.393337,-1.123808 -2.917912,-1.837235 -3.576461,-1.673632 -7.731228,-2.028634 -11.151458,-0.952839 -2.764941,0.869684 -4.246978,2.108208 -1.639905,1.370459 0.875948,-0.247875 2.94656,-0.455256 4.601364,-0.460848 2.627137,-0.0088 3.393456,0.180245 6.042075,1.491095 1.668333,0.82569 3.679539,2.16953 4.46934,2.98631 0.789801,0.816783 1.466917,1.485058 1.504715,1.485058 0.0378,0 -0.118276,-0.796929 -0.346764,-1.770952 z m 56.98539,0.129395 c 0.44102,-1.389534 4.75663,-5.359738 7.0408,-6.477281 1.20092,-0.587551 3.36083,-1.308431 4.79979,-1.601955 l 2.61632,-0.533681 -1.69664,-1.53281 c -1.55202,-1.402169 -1.84981,-1.511814 -3.49379,-1.28648 -1.49735,0.205234 -2.45428,-0.03296 -5.73617,-1.427829 -10.46043,-4.445882 -18.24602,-6.082077 -28.94068,-6.082077 -10.693727,0 -18.480455,1.636273 -28.937976,6.080918 -3.051245,1.296832 -4.290918,1.625432 -5.513473,1.461453 -1.382928,-0.185488 -1.796247,-0.0161 -3.355863,1.375407 l -1.778687,1.586951 1.250084,0.282998 c 2.138994,0.484238 4.516004,1.472389 6.219788,2.585642 1.51281,0.988466 1.786199,1.034436 3.626134,0.609727 2.466716,-0.569388 6.577796,0.371713 11.442705,2.619444 1.762953,0.814533 3.248754,1.48097 3.301781,1.48097 0.05307,0 0.221101,-0.779803 0.373505,-1.732891 0.625475,-3.911568 2.721947,-5.350918 7.793768,-5.350918 6.511514,0 20.883104,4.029536 28.241644,7.918448 1.92385,1.016734 2.43047,1.021152 2.74696,0.02395 z m -70.408386,-8.1733 c 1.487344,-0.223044 2.375498,-0.755301 4.461056,-2.673487 l 2.603986,-2.395 -0.826512,-1.547758 c -1.563838,-2.928491 -1.466776,-2.968358 -7.322146,3.007405 -2.959096,3.019936 -5.380172,5.652837 -5.380172,5.850893 0,0.198054 1.03651,-0.162723 2.303351,-0.801733 1.266841,-0.639008 3.139046,-1.287153 4.160437,-1.44032 z m 14.786175,-7.085632 c 4.81174,-2.115596 10.277714,-3.850002 16.044211,-5.090981 4.52065,-0.972866 5.879765,-1.076098 14.16763,-1.076098 8.29813,0 9.64136,0.102306 14.16761,1.079131 5.54627,1.196948 9.32443,2.39422 15.44795,4.895352 2.28912,0.934978 4.43819,1.569726 4.86066,1.435638 0.95471,-0.303014 4.89882,-6.340051 4.90032,-7.500644 0.002,-1.340923 -1.64267,-2.581538 -5.79381,-4.371192 -19.37866,-8.354598 -41.931245,-9.097115 -61.917973,-2.03858 -7.890561,2.786636 -11.042411,4.630662 -11.042411,6.460481 0,1.031796 3.783656,7.055964 4.648092,7.400469 0.925968,0.369034 1.020541,0.344048 4.517721,-1.193576 z"
       />
	</g>
</svg>
