<svg id="sleeping-panda"
        viewBox="0 0 210 297">
    <g id="layer1" >
        <path id="path1539"
                d="m 117.72965,209.70418 c -1.99828,-0.6006 -5.05477,-1.82209 -6.79219,-2.71441 -3.02473,-1.55344 -3.557,-1.62238 -12.527369,-1.62238 -5.95923,0 -10.759339,0.3162 -13.190629,0.86891 -6.428257,1.46138 -20.093187,2.35102 -30.163173,1.9638 -18.073127,-0.69494 -29.371041,-3.72855 -36.192789,-9.71813 -2.391385,-2.09968 -6.433402,-9.81217 -7.708942,-14.70929 -0.490053,-1.88146 -1.2650287,-3.85529 -1.722169,-4.38629 -1.106628,-1.2855 -2.2137372,-4.67623 -2.2137372,-6.78001 0,-4.07206 2.9915342,-6.59906 7.8121442,-6.59906 h 2.48203 l 0.0043,-4.08739 c 0.01236,-11.87243 6.093851,-24.48655 14.935693,-30.97917 2.726329,-2.00197 4.28388,-3.65873 5.05149,-5.37322 1.432505,-3.19962 5.222087,-5.92972 9.448869,-6.80719 3.120749,-0.64788 7.433381,-0.37633 9.194423,0.57893 0.474999,0.25766 1.595773,-0.33366 2.818963,-1.48728 5.383117,-5.07692 18.345802,-4.16924 24.43727,1.71116 l 2.006511,1.93698 5.82081,-3.02771 c 8.064233,-4.19459 13.805415,-8.00005 18.532755,-12.28416 7.12843,-6.460073 19.03216,-10.325107 33.39848,-10.844173 7.12943,-0.257611 9.47386,-0.100243 14.74266,0.988813 l 6.26513,1.295126 2.61171,-2.407389 c 1.47916,-1.363443 3.71742,-2.705144 5.16154,-3.094009 5.24482,-1.412282 12.3052,1.914299 14.54808,6.85452 1.42004,3.127762 1.47137,5.737952 0.1927,9.794432 l -0.98535,3.12594 2.85773,3.88194 c 5.92932,8.05444 9.75465,18.07273 13.74357,35.99366 1.9005,8.53826 2.02031,9.75505 1.99733,20.28558 -0.0183,8.03059 -0.3246,12.79848 -1.08448,16.83916 -1.49729,7.96177 -2.82013,13.65785 -3.38359,14.56955 -0.5428,0.87827 -4.78873,1.46925 -19.7291,2.74605 -12.20984,1.04341 -15.02409,0.71694 -17.29796,-2.00678 -1.53395,-1.83745 -1.65994,-1.87099 -7.02874,-1.87099 -3.00673,0 -6.33282,-0.30189 -7.3913,-0.67089 -1.84526,-0.64327 -2.02476,-0.55694 -4.361,2.09714 -1.5011,1.70536 -3.98,3.52789 -6.45698,4.74729 -3.6244,1.7843 -4.6204,1.99421 -10.11091,2.13112 -4.48045,0.11169 -7.0509,-0.13686 -9.7237,-0.94018 z m -38.355942,-5.29594 c 4.11038,-0.52754 7.703283,-1.17976 7.984231,-1.44939 0.697211,-0.66915 3.145796,-16.69934 4.041336,-26.4575 0.441,-4.80535 0.615748,-13.10839 0.439682,-20.89113 -0.306622,-13.55346 -0.837903,-16.89601 -3.683444,-23.17453 l -1.355973,-2.99187 -1.644144,3.36053 c -2.619067,5.35316 -3.822664,6.32776 -8.423044,6.82042 -7.63022,0.81714 -15.799312,-1.82777 -19.129139,-6.19338 -1.078691,-1.41425 -1.628637,-3.02102 -1.818787,-5.314 -0.255581,-3.08199 -0.372414,-3.28678 -1.874987,-3.28678 -2.804878,0 -10.496493,2.42984 -14.890062,4.70387 -5.594305,2.89551 -12.043278,9.36433 -14.641306,14.68638 -3.7941,7.77219 -5.633917,20.1733 -3.621929,24.41324 1.273775,2.68429 1.239498,4.34659 -0.152837,7.41222 -1.095354,2.41174 -3.790302,5.09022 -5.140141,5.10876 -2.209913,0.0304 -2.278467,1.00934 -0.406501,5.8051 2.688127,6.88672 5.097805,9.86568 10.098324,12.48404 4.988626,2.61213 8.897349,3.77574 16.579433,4.93573 8.097093,1.22262 28.215613,1.23775 37.639293,0.0284 z M 41.337079,187.78167 c -7.32657,-1.44952 -12.190948,-5.43986 -13.931935,-11.42864 -2.383869,-8.20023 1.703427,-20.02792 7.969233,-23.06115 3.343967,-1.61879 6.2168,-1.37192 11.001772,0.94542 3.668168,1.77648 9.717344,7.96097 11.609093,11.8688 3.564235,7.36274 2.5873,14.61976 -2.578698,19.15556 -3.353915,2.94478 -7.851091,3.75028 -14.069465,2.52001 z m 113.194471,7.17784 c 4.72157,-1.53674 5.85434,-2.12325 5.55527,-2.87634 -4.94662,-12.45653 -3.71118,-38.47696 2.21533,-46.65828 4.04044,-5.57766 12.21066,-8.88575 20.50788,-8.30361 5.95668,0.41793 8.46845,1.22684 11.86844,3.82207 1.53925,1.17497 2.88057,2.04954 2.98064,1.94348 0.53837,-0.57035 -3.14829,-11.30746 -5.67993,-16.54237 -8.29781,-17.15824 -21.36978,-26.518423 -40.14318,-28.744528 -10.29654,-1.220929 -24.77285,1.241548 -34.13432,5.806408 -6.99908,3.41291 -7.00515,3.43113 -3.06629,9.21572 7.64257,11.22383 10.16318,29.65297 7.00138,51.18978 -0.67839,4.62081 -1.15377,8.45484 -1.05642,8.52004 1.92156,1.28705 7.58871,3.30617 10.01642,3.5687 9.13415,0.98774 17.10711,9.26289 17.10711,17.75552 0,1.77856 0.20186,3.23375 0.44838,3.23375 0.24659,0 3.1173,-0.86866 6.37929,-1.93034 z M 10.094966,123.77364 c -4.2459182,-0.14235 -5.9040139,-0.41265 -5.9040139,-0.9624 0,-0.42045 1.3365947,-2.9309 2.970211,-5.57878 1.6336143,-2.64788 2.8437509,-5.01895 2.6891912,-5.26903 -0.5591543,-0.90472 -2.6039348,-0.42697 -3.2372417,0.75638 -1.5737953,2.94066 -3.5197876,0.5333 -2.1735028,-2.6888 l 0.8421652,-2.0156 6.872451,0.31156 c 3.779847,0.17142 6.998429,0.42482 7.152403,0.56324 0.153981,0.13846 -1.004122,2.65477 -2.573543,5.59191 -1.569424,2.93714 -2.853499,5.51339 -2.853499,5.72498 0,0.93251 2.80938,0.26783 3.492711,-0.82635 1.216465,-1.94787 2.562689,-1.52003 2.562689,0.81447 0,2.13441 -1.568446,4.12502 -3.075382,3.90312 -0.473345,-0.0698 -3.517433,-0.21583 -6.764639,-0.3247 z m 21.772456,-14.53366 c -5.216405,-0.15563 -6.609134,-0.38415 -6.896062,-1.13188 -0.371076,-0.967 1.156832,-4.10438 4.147544,-8.51649 0.943689,-1.392188 1.715795,-2.959024 1.715795,-3.481844 0,-1.434505 -2.032602,-1.140551 -3.592145,0.519501 -0.759602,0.80856 -1.760827,1.3244 -2.224943,1.146296 -1.306906,-0.501513 -0.998453,-3.596162 0.518616,-5.203164 1.328875,-1.40766 1.541603,-1.434619 8.62894,-1.093473 8.541118,0.411134 8.348597,0.07049 4.186086,7.406337 -1.46973,2.590207 -2.672235,5.127637 -2.672235,5.638767 0,1.4821 2.217841,1.07731 3.579092,-0.65323 1.553702,-1.97522 3.081844,-1.54068 3.081844,0.87632 0,1.91302 -2.080762,5.02243 -3.223034,4.81638 -0.392136,-0.0707 -3.654408,-0.21627 -7.249498,-0.32352 z m 14.559926,-9.653908 c -0.582833,-0.152424 -1.059695,-0.692731 -1.059695,-1.200949 0,-0.853142 2.620191,-5.480228 5.903691,-10.425552 0.74953,-1.128879 1.362787,-2.423227 1.362787,-2.876312 0,-1.408483 -2.855057,-0.93155 -4.130594,0.690029 -2.543479,3.233525 -4.656795,0.71374 -2.819173,-3.361369 0.575375,-1.275947 1.352602,-2.4135 1.727174,-2.527864 0.374575,-0.114433 4.359696,-0.06225 8.855828,0.115806 9.727415,0.385157 9.512275,0.02426 4.847609,8.130764 -1.699242,2.953027 -3.008238,5.788053 -2.908876,6.300093 0.323971,1.669481 1.678097,1.479729 3.521313,-0.493434 1.094487,-1.171653 2.165546,-1.797486 2.715256,-1.586541 1.34609,0.516527 1.136605,4.170935 -0.347235,6.057312 -1.24391,1.581392 -1.323031,1.594895 -8.93171,1.525274 -4.222174,-0.03868 -8.153544,-0.194764 -8.736375,-0.347165 z"
                />
    </g>
</svg>