<svg id="panda-toilet" viewBox="0 0 210 297" >
  <g
     id="layer1">
    <path
       id="path1555"
       d="m 101.28631,237.52738 c -3.156721,-1.60349 -5.843871,-4.72691 -6.691051,-7.77737 -0.29372,-1.05755 -0.53532,-4.83465 -0.5369,-8.39353 l -0.002,-6.47069 -1.54949,-0.91531 c -0.85223,-0.50341 -3.00105,-2.41145 -4.77518,-4.24008 l -3.2257,-3.32482 -3.27844,0.5348 c -4.02289,0.65623 -9.49398,-0.006 -12.64065,-1.52868 -5.72088,-2.76943 -6.20357,-11.68548 -0.82763,-15.28726 1.73525,-1.16255 1.75017,-1.24386 0.8025,-4.37042 -2.49053,-8.21673 -0.81534,-16.36911 4.54007,-22.09447 1.29157,-1.3808 3.16627,-2.95102 4.166,-3.48941 2.13003,-1.14711 2.20549,-1.54788 0.65359,-3.47053 l -1.15897,-1.43581 -5.42045,1.60205 c -8.54053,2.52421 -7.71828,2.61176 -10.67173,-1.1362 -5.26926,-6.68671 -12.05777,-12.94668 -18.62461,-17.17458 l -3.7427,-2.40963 -0.006,-3.45958 c -0.01,-6.12656 -0.30816,-6.96769 -2.97082,-8.38022 -6.31608,-3.35066 -10.47756,-9.97397 -10.86138,-17.28667 -0.18653,-3.55236 -0.0502,-4.51824 0.90015,-6.3811 0.6227,-1.220559 1.90459,-2.658109 2.88743,-3.237981 1.98238,-1.169649 2.06423,-0.44028 -0.79095,-7.048026 -1.59742,-3.696928 -1.03308,-4.173456 3.00892,-2.540805 4.78473,1.932626 10.5271,5.740808 14.5864,9.673292 2.98001,2.88693 3.58753,3.29307 3.23298,2.161381 -0.24013,-0.76644 -0.43659,-3.60045 -0.43659,-6.297777 v -4.904226 l 3.0045,-5.861844 c 1.98109,-3.865142 3.23415,-7.067032 3.67868,-9.400032 l 0.67418,-3.538165 -1.54985,-1.69904 c -0.85242,-0.934471 -2.24324,-3.1593 -3.09074,-4.944091 -2.82625,-5.951945 -1.86087,-13.194323 2.34297,-17.577351 3.01097,-3.139297 5.72857,-4.367745 10.2402,-4.628923 5.04648,-0.29212 7.84951,0.450802 11.59203,3.072454 l 2.85313,1.998614 3.45379,-1.019658 c 10.66559,-3.148802 22.442551,-3.178207 32.856611,-0.08216 4.78467,1.422489 4.92314,1.434156 5.78032,0.487007 0.48301,-0.533737 2.40101,-1.719688 4.26217,-2.63549 3.05913,-1.505212 3.83088,-1.664419 8.0392,-1.658411 3.86344,0.0055 5.08748,0.218248 7.1966,1.250787 3.24872,1.590438 5.94702,4.296984 7.5174,7.540358 1.8503,3.82157 1.78686,9.702707 -0.14985,13.880487 -0.78051,1.68375 -2.21377,4.031122 -3.185,5.216373 l -1.76587,2.155034 0.71749,2.719906 c 1.76973,6.708669 1.36462,17.251402 -0.93271,24.274388 -1.46471,4.477689 -4.63266,9.002859 -8.42501,12.034569 l -3.10752,2.48421 1.84613,3.57763 1.84611,3.57759 19.67637,0.004 c 19.19997,0.004 19.70972,0.0303 21.05369,1.08732 1.51038,1.18808 3.92427,5.5426 3.92427,7.07919 0,1.14874 -1.5476,2.67835 -2.70987,2.67835 -0.99546,0 -1.01035,0.0671 -2.98022,13.4221 -3.46287,23.47701 -4.12006,27.00721 -5.45135,29.28262 -1.57033,2.68395 -4.88925,4.7185 -8.36964,5.13068 -2.52423,0.29898 -2.58005,0.34308 -2.53305,2.00133 0.0265,0.9326 -0.24986,2.05462 -0.61398,2.49335 -0.44222,0.53285 -0.71286,2.99056 -0.8151,7.40192 -0.28601,12.34127 -3.27155,18.65082 -10.56794,22.33401 -1.64881,0.83234 -3.19119,1.93127 -3.42751,2.44209 -0.23635,0.51082 -0.55594,4.2003 -0.71027,8.19883 -0.26858,6.9593 -0.34736,7.37797 -1.84294,9.79483 -0.96618,1.56137 -2.52602,3.12092 -4.08785,4.0871 l -2.52554,1.56236 -13.72221,0.14984 -13.72225,0.14985 -2.83574,-1.44044 z m 30.08372,-0.84599 c 2.43606,-1.02082 4.76231,-3.15481 5.84686,-5.36363 0.73825,-1.50351 1.0144,-3.59337 1.2232,-9.25745 0.25455,-6.90436 0.34225,-7.39351 1.5603,-8.7026 0.70982,-0.76289 2.46017,-1.90788 3.88966,-2.5444 4.03447,-1.79652 7.05271,-6.09264 8.53835,-12.15342 0.68746,-2.80457 1.0182,-13.57009 0.43481,-14.15348 -0.16564,-0.16565 -7.29147,-0.14789 -15.83513,0.0394 l -15.53395,0.34055 0.09,5.20903 c 0.12214,7.06787 -0.63791,9.51166 -3.85854,12.40728 -3.09025,2.77838 -7.40605,4.34918 -13.08723,4.76328 -4.958781,0.36143 -9.294271,-0.43616 -11.869241,-2.18358 l -1.85481,-1.25871 -2.0468,1.0442 c -2.02202,1.03154 -2.03658,1.05981 -1.20166,2.33403 1.09421,1.66997 8.10603,6.60628 11.76047,8.27933 1.565431,0.71669 4.307771,1.62043 6.094101,2.00831 l 3.24781,0.70526 -2.34365,0.0409 c -1.289,0.0226 -3.72822,-0.33537 -5.42048,-0.79547 -1.692251,-0.46009 -3.624241,-0.95652 -4.293381,-1.10317 l -1.21653,-0.26665 0.20293,6.39459 c 0.16839,5.30627 0.39357,6.75692 1.32298,8.52362 1.23245,2.34275 3.676071,4.62626 6.069541,5.67186 2.24409,0.98033 25.9491,0.99781 28.28045,0.0209 z M 94.571719,203.65411 c 0,-0.0925 -0.63885,-0.73131 -1.41967,-1.41964 l -1.41964,-1.25151 1.25153,1.41963 c 1.16973,1.32689 1.58778,1.65639 1.58778,1.25152 z m -26.01773,-1.50963 c -1.40902,-2.19376 -1.5544,-5.69643 -0.34953,-8.42025 l 1.09295,-2.47085 -1.09593,0.9918 c -2.37419,2.14863 -3.27302,5.67904 -1.76458,6.93094 0.4259,0.35347 0.77435,1.06223 0.77435,1.57504 0,0.51282 0.36507,1.29745 0.81125,1.74362 1.15959,1.1596 1.39963,1.00138 0.53149,-0.3503 z m 23.95279,-4.74156 c 0,-1.2592 0.23418,-2.94343 0.52039,-3.74271 l 0.52038,-1.45326 -1.29475,1.44844 c -1.5334,1.71545 -1.90592,6.03698 -0.52039,6.03698 0.57193,0 0.77437,-0.59855 0.77437,-2.28945 z m -19.98262,-9.89433 c -0.0592,-0.53912 -0.48656,-2.60635 -0.94979,-4.59387 -1.54728,-6.63842 -0.15512,-13.10894 3.98054,-18.49974 l 1.64913,-2.14966 -2.18591,2.06493 c -1.20225,1.13573 -2.92792,3.56948 -3.83486,5.40836 -1.50497,3.05146 -1.64894,3.77265 -1.64894,8.25975 0,5.32271 1.33718,11.10337 2.47665,10.7066 0.34141,-0.11882 0.57235,-0.65724 0.51318,-1.19637 z m 25.40044,0.43943 c -1.93107,-4.69938 -2.39423,-12.79188 -0.97401,-17.01773 0.45658,-1.35858 1.64848,-3.63168 2.64868,-5.05132 l 1.818471,-2.58118 -1.644951,1.54379 c -2.20337,2.06786 -4.55747,7.09542 -4.96128,10.59556 -0.34022,2.94905 0.37331,9.66291 1.28056,12.04916 0.28548,0.75082 0.89809,1.36513 1.3614,1.36513 0.5995,0 0.73531,-0.26046 0.47113,-0.90341 z m 55.626951,-5.8874 c 1.08608,-0.5684 1.18097,-2.14465 0.17912,-2.97609 -0.77942,-0.64684 -31.91691,-0.61362 -32.56389,0.0348 -0.1836,0.18399 -0.18457,1.12927 -0.002,2.10077 l 0.33135,1.76634 15.57615,-0.22649 c 8.56688,-0.12448 15.98268,-0.43924 16.47956,-0.69928 z m -9.52118,-6.76094 c 1.17944,-0.78111 2.59251,-2.29848 3.14011,-3.37191 0.82149,-1.61022 2.12214,-6.80392 2.12214,-8.47398 0,-0.23583 -0.96163,0.20761 -2.13695,0.98541 -1.66796,1.10381 -2.90023,1.4573 -5.61495,1.61067 -3.42335,0.19355 -3.50927,0.23421 -5.46664,2.594 -2.45047,2.95426 -3.60211,3.92627 -7.62402,6.43485 l -3.16236,1.97247 8.2991,-0.16565 c 8.05987,-0.16077 8.36095,-0.20659 10.44357,-1.58587 z m 18.16811,0.16253 c 0.99377,-0.49457 2.43891,-1.80775 3.21146,-2.91818 1.44356,-2.0749 2.4033,-7.21531 6.06361,-32.47684 1.56141,-10.77599 2.47882,-9.55034 -7.14861,-9.55034 h -8.19824 l -0.86716,5.80764 c -3.29964,22.09865 -5.02837,32.88058 -5.50792,34.35236 -0.30475,0.93528 -1.31931,2.70302 -2.2546,3.92831 l -1.70051,2.22779 7.29758,-0.23577 c 5.53911,-0.17893 7.73297,-0.45245 9.10439,-1.13497 z m -29.10767,-6.14548 c 4.48375,-4.47718 7.39289,-11.92428 7.41685,-18.98628 0.0117,-3.44429 -1.26673,-10.86701 -2.65675,-15.4256 l -1.10188,-3.61364 -0.64453,3.37468 c -0.85959,4.50064 -1.8277,6.68355 -4.0599,9.15435 -2.67482,2.9607 -6.39846,4.43945 -10.37516,4.12025 -3.86939,-0.3106 -6.08527,-1.40422 -8.80946,-4.34777 -1.47075,-1.58917 -2.36319,-2.17252 -2.96834,-1.9403 -1.12708,0.4325 -1.09129,1.44624 0.1984,5.62182 0.58506,1.8942 0.9916,3.77648 0.90341,4.18282 -0.12936,0.5958 -1.90917,0.78318 -9.19444,0.96807 -8.078331,0.20497 -21.753331,1.73791 -22.542331,2.5269 -0.16195,0.16195 0.1721,0.93465 0.7421,1.7172 0.90884,1.24763 1.32956,1.40482 3.41671,1.27646 2.58197,-0.15881 3.05562,0.20966 1.2187,0.948 -0.82704,0.33243 0.17639,0.47619 3.4846,0.4992 2.55534,0.0176 6.5469,0.40963 8.8701,0.87078 4.110111,0.81585 4.270151,0.81012 5.936701,-0.21206 1.85004,-1.13476 7.56448,-2.94755 7.9804,-2.53163 0.1399,0.1399 -0.57422,0.5279 -1.58699,0.86215 -1.78522,0.58918 -2.52055,1.56012 -1.18156,1.56012 1.29848,0 7.90676,3.50266 10.5139,5.57278 1.46075,1.15987 3.77452,3.62019 5.14172,5.46739 l 2.48583,3.3586 2.02542,-1.13362 c 1.114,-0.62351 3.26792,-2.37429 4.7865,-3.89067 z m -63.556481,-13.7803 c 7.99952,-2.60769 18.98394,-4.30334 30.586921,-4.72163 4.89776,-0.17657 8.90579,-0.46008 8.90668,-0.63008 7.9e-4,-0.16993 -0.49755,-1.99328 -1.10767,-4.05175 -1.00841,-3.40234 -1.23157,-3.74298 -2.45376,-3.7456 -6.098671,-0.0136 -10.894781,-5.0905 -10.894781,-11.53385 0,-5.08793 2.48017,-8.95418 7.145951,-11.1395 l 2.58137,-1.20905 0.3251,-4.44783 c 0.17892,-2.44629 0.54554,-6.0023 0.81492,-7.90222 0.77379,-5.45709 0.79982,-5.37619 -1.96229,-6.09738 -3.719881,-0.97126 -14.478721,-1.271729 -19.106361,-0.533589 -5.11037,0.815119 -12.7946,3.259189 -17.41728,5.539779 -4.40675,2.17406 -11.61563,6.91211 -11.6143,7.6335 8e-4,0.48782 7.91672,40.85992 8.53874,43.54925 0.20815,0.89997 0.50461,1.11394 1.1613,0.8382 0.48499,-0.20366 2.50793,-0.90036 4.49546,-1.54825 z m -1.52231,-3.98298 c -1.69632,-7.83753 -2.31658,-11.3799 -2.06417,-11.78833 0.96226,-1.557 14.07619,-6.56243 14.40385,-5.4978 0.69755,2.26633 2.95837,13.8781 2.74384,14.09262 -0.31514,0.31515 -13.60637,4.35503 -14.32804,4.35503 -0.27724,0 -0.61723,-0.5227 -0.75548,-1.16152 z m -0.0263,-19.78644 c 1.75047,-1.38853 8.6341,-4.70499 11.58383,-5.58098 4.83435,-1.43563 4.61263,-0.8922 -0.48478,1.18816 -2.69733,1.10085 -6.53037,2.72386 -8.51789,3.60667 -1.98749,0.88283 -3.14901,1.23659 -2.58116,0.78615 z m -2.38139,-8.66484 c 0.90451,-1.09041 8.29771,-4.62227 11.93981,-5.70386 5.26974,-1.56496 4.34383,-0.79606 -2.33114,1.93578 -3.69109,1.51066 -7.52413,3.17068 -8.51787,3.68896 -1.58699,0.82766 -1.71971,0.83729 -1.0908,0.079 z m 21.93255,-11.13604 c -0.57261,-3.45462 -0.87799,-6.38196 -0.6786,-6.50519 0.75115,-0.46424 9.19779,-0.88281 10.99834,-0.54503 l 1.87754,0.35224 v 6.17143 6.17142 l -2.96834,0.004 c -1.63262,0.002 -4.14274,0.14556 -5.5781,0.31813 l -2.60973,0.31362 -1.04111,-6.28111 z m -22.90669,2.49396 c 1.55036,-1.36132 6.2601,-3.56622 10.79713,-5.05478 5.8206,-1.90968 5.14967,-1.14314 -1.24678,1.42448 -3.40716,1.36768 -7.2402,2.99898 -8.51789,3.6251 l -2.32305,1.13842 z m 84.254501,38.6374 c -1.09783,-2.48185 -3.17136,-4.25898 -5.56015,-4.76539 -1.46191,-0.30992 -1.47958,-0.29156 -0.48476,0.50331 0.56786,0.45372 1.84555,1.34518 2.8393,1.98106 0.99374,0.63587 2.26587,2.00628 2.82694,3.04535 1.38151,2.55846 1.62821,2.06049 0.37867,-0.76433 z m -87.600221,-1.0278 c -0.14731,-0.63885 -1.54624,-7.78226 -3.10859,-15.87423 -1.56237,-8.092 -3.22657,-16.6873 -3.69824,-19.10071 -1.35184,-6.91669 -4.87353,-12.96577 -10.87032,-18.67159 -4.31741,-4.107921 -13.53837,-9.919941 -14.38888,-9.069425 -0.19954,0.199533 0.31075,1.855552 1.134,3.68005 1.23233,2.731135 1.75819,3.371035 2.97622,3.621596 1.28448,0.264218 2.42413,1.260409 6.1649,5.388849 0.42564,0.46973 2.19027,2.09008 3.9214,3.60074 1.73113,1.51068 3.87584,3.83372 4.76605,5.16237 1.41234,2.10787 1.0328,1.84014 -2.97882,-2.10139 -2.52856,-2.48439 -4.70894,-4.51759 -4.84529,-4.51822 -0.13639,-5.3e-4 -0.1717,1.5994 -0.0789,3.55564 0.13464,2.83143 -0.0531,3.99221 -0.92012,5.69195 -1.06817,2.09376 -1.07394,2.25216 -0.29821,8.16727 0.43509,3.31766 0.79108,7.68809 0.79108,9.71207 v 3.67996 l 4.25893,2.78513 c 2.61783,1.71192 6.64603,5.19019 10.45376,9.02661 3.40715,3.43282 6.3735,6.28275 6.59185,6.33317 0.21835,0.0503 0.27642,-0.431 0.12895,-1.06984 z m -6.20468,-10.55005 c -1.1357,-0.98997 -3.80723,-3.09444 -5.93668,-4.67658 -5.0238,-3.73258 -5.28029,-3.9954 -2.97407,-3.04727 2.75055,1.13078 5.9311,3.44905 8.87963,6.47227 2.98829,3.06399 3.00774,3.84624 0.0312,1.25158 z m -4.06534,-12.09977 c -1.89608,-1.46376 -3.3356,-2.77317 -3.19893,-2.90983 0.38478,-0.38482 4.53606,2.20247 5.93272,3.69756 2.19864,2.3536 0.82124,1.95672 -2.73379,-0.78773 z m -1.73219,-8.5941 c -1.769,-1.30603 -3.11526,-2.47568 -2.99167,-2.59927 0.34099,-0.34102 4.52672,2.22698 5.64626,3.46403 1.74657,1.92996 0.64466,1.57099 -2.65459,-0.86476 z m 103.336211,21.19267 c 0.79201,-5.59916 1.55409,-10.4776 1.69352,-10.84094 0.1993,-0.5194 -1.48059,-0.66063 -7.8586,-0.66063 -7.51476,0 -8.08638,0.0665 -7.76271,0.90341 0.50042,1.29391 2.73076,10.36792 3.08929,12.56859 0.26511,1.62709 0.55791,1.93326 2.36746,2.47542 2.30015,0.68914 5.44208,3.1974 5.92971,4.73377 0.17462,0.55038 0.49393,1.00068 0.70946,1.00068 0.21552,0 1.03985,-4.58114 1.83187,-10.1803 z M 98.162649,127.82461 c 0.0546,-0.88567 3.461291,-4.17632 5.394371,-5.21073 1.78027,-0.95264 2.94753,-1.13113 7.3975,-1.13113 4.64856,0 5.08291,-0.0728 3.61363,-0.60602 -0.9185,-0.33331 -3.29616,-0.61858 -5.28367,-0.63396 -7.46224,-0.0578 -12.701371,4.36225 -12.612911,10.64071 l 0.035,2.47269 0.71672,-2.58119 c 0.39421,-1.41964 0.72697,-2.74731 0.73952,-2.95037 z m 55.353361,0.8257 c 0.19336,-0.11844 -0.2893,-1.77955 -1.07254,-3.69141 l -1.42406,-3.47615 -8.34878,-0.14184 c -4.59182,-0.078 -8.34877,-0.048 -8.34877,0.0667 0,0.43006 2.75194,6.29698 3.25444,6.93818 0.39083,0.49871 2.43397,0.64937 8.0559,0.59398 4.14273,-0.0408 7.69046,-0.17111 7.88381,-0.28945 z m 22.60218,-0.43393 c 0.83192,-1.00242 -1.60921,-5.59443 -3.41023,-6.41503 -0.78272,-0.35663 -4.81577,-0.57671 -10.56847,-0.57671 h -9.30274 l 0.36404,1.16152 c 0.2002,0.63886 0.91958,2.38114 1.59861,3.87178 l 1.2346,2.71022 h 9.73011 c 7.88951,0 9.84817,-0.14223 10.35408,-0.75178 z M 114.44684,116.8341 c 7.31703,-1.81952 15.04562,-5.77226 19.13675,-9.78741 5.07081,-4.97659 7.10593,-9.9705 7.89552,-19.374535 1.46108,-17.401297 -6.08875,-31.161725 -21.20277,-38.644386 -7.45752,-3.692089 -11.04443,-4.403665 -22.349031,-4.433632 -8.71509,-0.023 -10.32639,0.110233 -14.45458,1.196274 -7.55676,1.987978 -13.21146,5.139098 -18.06823,10.068615 -3.81369,3.870838 -7.15175,8.962516 -8.22944,12.552735 -0.33272,1.108297 -0.2618,1.127085 3.17023,0.839668 4.80285,-0.402206 8.74719,0.516972 12.42843,2.896272 5.5528,3.58893 6.97736,7.853199 4.48146,13.41478 -1.68448,3.753549 -5.05128,7.032284 -9.4284,9.18174 -2.47364,1.214739 -3.59183,1.44303 -7.0684,1.44303 -3.5483,0 -4.45701,-0.193752 -6.45293,-1.37595 -1.27767,-0.756766 -2.83604,-1.860224 -3.46302,-2.452116 -0.62694,-0.591899 -1.26578,-1.076163 -1.41963,-1.076163 -0.15374,0 -0.27969,1.268973 -0.27969,2.819918 0,4.268891 1.67155,8.10174 5.08637,11.66298 l 2.91528,3.04026 4.3627,-2.6203 c 2.39951,-1.44118 6.16236,-3.32473 8.36188,-4.18571 3.97129,-1.55446 3.99693,-1.57657 3.67916,-3.172909 l -0.31996,-1.60754 1.25033,1.35277 c 1.22858,1.329269 1.29295,1.339979 3.69999,0.615989 1.34729,-0.405219 2.67687,-1.16142 2.95463,-1.680419 0.41811,-0.781251 0.15375,-1.176141 -1.53662,-2.294741 -2.60165,-1.721665 -3.21832,-3.711266 -1.56523,-5.049878 2.10285,-1.702784 10.34181,-0.974325 11.57659,1.023581 0.64176,1.038413 -0.70639,3.157426 -2.75213,4.325779 -1.14666,0.654878 -2.08662,1.364908 -2.08882,1.577858 -0.002,0.212939 2.98698,0.387181 6.64258,0.387181 3.65557,0 7.43054,0.147108 8.38878,0.326959 l 1.742321,0.32699 -2.064951,-1.528979 c -6.82154,-5.051005 -9.86842,-13.060326 -7.06098,-18.561138 1.28886,-2.525323 2.20723,-3.319621 6.02851,-5.214011 6.787911,-3.365079 14.152391,-3.628189 20.066131,-0.716857 11.94871,5.882325 12.94821,20.580361 1.81171,26.641626 -2.31553,1.260269 -3.55416,1.549499 -7.67343,1.791889 l -4.91218,0.28904 -0.60638,4.388 c -0.3335,2.41338 -0.62389,6.30452 -0.64529,8.64694 l -0.0388,4.25893 1.41964,-0.004 c 0.7808,-0.002 3.7427,-0.58237 6.582,-1.28843 z m -59.108911,-6.88661 c 0,-0.23993 -0.46461,-0.85669 -1.03248,-1.3706 -1.13622,-1.02827 -1.32071,-0.72885 -0.49806,0.80829 0.5387,1.00656 1.53054,1.37096 1.53054,0.56231 z m -24.2163,-10.12542 c 2.46376,-0.897919 2.63114,-1.047049 1.49309,-1.330309 -2.77631,-0.691052 -6.17857,2.012869 -6.18403,4.914729 -0.002,0.74232 0.26213,0.5291 0.9571,-0.77437 0.74161,-1.39097 1.58809,-2.02801 3.73384,-2.81005 z m 5.43175,1.54364 c -0.49674,-0.75812 -1.33884,-1.30306 -2.00581,-1.29801 -1.02276,0.007 -0.96448,0.12721 0.52812,1.08316 0.92277,0.59096 1.67778,1.32269 1.67778,1.62606 0,0.30336 0.1477,0.40396 0.32804,0.22354 0.18048,-0.18048 -0.0571,-0.91607 -0.52813,-1.63475 z m 46.35792,-10.394913 c 1.30732,-0.501644 0.39569,-1.23648 -1.53398,-1.23648 -1.68131,0 -2.20028,0.43647 -1.4322,1.204545 0.42894,0.428932 1.89062,0.444685 2.96618,0.03202 z M 104.27701,89.11483 c 0.86794,-0.86795 0.77299,-3.772789 -0.14828,-4.537414 -1.87006,-1.552006 -4.03219,1.734299 -2.58957,3.93599 0.88244,1.346776 1.7926,1.546706 2.73788,0.601424 z M 70.385319,86.933086 c 0.70309,-1.543063 0.22489,-3.683688 -0.92114,-4.123449 -1.18944,-0.456443 -2.76909,1.124627 -2.76909,2.771558 0,2.63642 2.66083,3.611179 3.69023,1.351891 z M 59.269149,44.28599 c 4.05344,-1.337742 10.29926,-0.196028 13.17759,2.408824 0.63326,0.573106 1.13942,0.658773 1.77864,0.301053 0.77766,-0.435198 0.61175,-0.704096 -1.27962,-2.074197 -5.39721,-3.90972 -13.03759,-3.389489 -17.95358,1.222441 l -2.49356,2.339358 2.42937,-1.783273 c 1.33617,-0.980786 3.28967,-2.067177 4.34116,-2.414206 z m 64.976351,2.611624 c 1.61033,-1.779409 6.33755,-3.226243 9.81824,-3.005005 2.97953,0.18945 4.3935,0.680496 7.74352,2.689607 l 1.54871,0.928812 -1.54871,-1.343079 c -2.98354,-2.587407 -4.79446,-3.153401 -10.06657,-3.146326 -4.99265,0.0055 -6.92308,0.589805 -10.06658,3.040593 -0.89155,0.695088 -0.92679,0.875687 -0.25812,1.323104 1.14276,0.764645 1.79843,0.651634 2.82951,-0.487706 z"/>
  </g>
</svg>
