<svg
   id="panda-wakeup" viewBox="0 0 210 297" >
  <g
     id="layer1">
    <path
       id="path847"
       d="M 53.521086,266.21212 C 44.924544,262.28547 37.87895,244.32856 36.468536,222.75085 36.244249,219.3195 35.997755,211.918 35.920777,206.30304 c -0.07696,-5.61492 -0.330888,-13.02098 -0.564264,-16.4579 -0.510952,-7.52471 0.669816,-16.06432 3.253152,-23.52721 2.705158,-7.81494 2.875296,-6.89726 -2.244387,-12.10551 -8.296866,-8.44043 -13.882764,-17.00122 -19.406542,-29.74195 -4.558356,-10.51391 -6.33372,-22.27838 -4.290404,-28.430232 1.150029,-3.462368 3.525755,-6.410633 5.987377,-7.430265 5.919788,-2.452061 17.176194,2.66087 25.328087,11.504617 l 2.293819,2.48852 0.367523,-5.228535 c 0.202143,-2.875682 0.874725,-7.235026 1.494636,-9.68743 1.641324,-6.49327 6.742444,-16.293774 11.17242,-21.464949 l 3.683697,-4.30005 -1.169257,-2.958919 c -3.542133,-8.963723 -1.886553,-17.939407 4.483952,-24.309934 8.087005,-8.086987 20.588699,-8.839452 29.841469,-1.796115 2.35307,1.791163 6.169805,7.348316 6.697695,9.751803 l 0.3469,1.579373 6.63987,0.0086 c 8.26071,0.01287 13.32997,0.847865 21.66977,3.573687 11.86014,3.876409 21.84767,9.360057 30.0646,16.506915 l 3.15339,2.742735 3.66715,-1.158624 c 5.56597,-1.758537 12.59025,-1.343983 17.69019,1.044005 4.59092,2.14964 8.19129,5.682341 10.38815,10.192851 1.36332,2.799091 1.60943,4.020031 1.64114,8.141411 0.0345,4.500028 -0.11619,5.159213 -2.09861,9.171976 -2.42551,4.90978 -6.21944,8.74027 -10.68663,10.78965 l -2.77452,1.27284 v 4.119 c 0,4.79166 -1.27923,13.86592 -2.55898,18.15239 -1.38538,4.64024 -4.60458,11.82184 -6.61843,14.76484 -4.56681,6.67388 -11.20784,12.13678 -17.08978,14.05804 -1.618,0.52849 -3.0274,1.03335 -3.13201,1.12191 -0.10467,0.0885 1.05421,2.03212 2.57517,4.31906 12.33417,18.54603 18.04787,44.50274 12.58926,57.19163 -2.11685,4.92074 -6.71492,7.8279 -11.38922,7.20094 -2.89374,-0.38812 -7.55644,-2.68248 -10.40824,-5.12155 l -2.2514,-1.92557 -0.10674,6.30189 c -0.29648,17.49058 -7.78814,33.71034 -18.04244,39.0627 -3.51861,1.83659 -8.88677,1.71293 -12.28188,-0.28291 -5.33398,-3.13561 -9.04473,-10.40513 -10.38059,-20.33601 l -0.35033,-2.60439 -6.926465,0.0253 c -5.32477,0.0193 -8.09372,-0.2659 -11.97414,-1.23352 -2.77624,-0.69231 -5.159405,-1.14701 -5.295931,-1.01049 -0.136549,0.13655 -0.949773,2.24645 -1.807219,4.68868 -2.06083,5.86986 -3.771629,9.44515 -6.331363,13.23147 -5.461784,8.07898 -11.234498,10.76081 -17.249228,8.01345 z m 48.776204,-30.38175 c 11.05129,-1.98374 20.78425,-7.17556 28.43779,-15.16951 3.78008,-3.94819 8.71154,-11.13268 8.71154,-12.69156 0,-0.53401 -2.99891,-6.82247 -6.66421,-13.97436 l -6.66418,-13.00339 -5.38807,-2.59323 C 97.636425,167.28348 67.847366,158.49535 52.289837,158.20762 l -6.141889,-0.11361 -1.840788,3.68657 c -3.309142,6.62727 -4.309825,11.61075 -4.327681,21.55228 -0.01929,10.29378 0.912601,14.60848 4.956811,22.97016 7.464586,15.43355 21.330888,25.85518 39.495285,29.6839 3.92124,0.82652 12.82359,0.7485 17.865715,-0.15648 z m 45.08962,-80.30034 c 6.76504,-0.70218 11.08953,-2.69871 16.19976,-7.47907 9.76384,-9.13361 14.70434,-22.19013 14.65637,-38.73314 -0.0193,-6.99949 -0.20751,-8.54514 -1.57912,-13.044807 -1.91661,-6.287182 -5.70849,-14.401476 -9.14691,-19.573635 -10.65384,-16.025631 -41.12047,-30.079264 -62.23212,-28.706385 -7.262895,0.472303 -16.125675,3.369873 -27.092112,8.857379 -7.141371,3.573472 -8.709169,4.616106 -11.910467,7.920854 -6.39565,6.602316 -12.963324,19.766069 -14.771057,29.606038 -0.824842,4.489847 -0.793203,14.163606 0.05466,16.732876 1.357252,4.1125 3.77495,7.49639 9.280142,12.98882 10.383934,10.35984 27.012029,19.95859 44.854174,25.8925 7.50651,2.49652 12.41892,3.68568 22.68659,5.4918 3.93316,0.69185 12.58006,0.71314 19.00005,0.0467 z m -6.57713,-18.18235 c -4.6898,-1.361 -9.88412,-8.65345 -10.98427,-15.42115 -0.99164,-6.10004 0.86569,-13.29887 4.40564,-17.07577 6.89578,-7.357343 18.41291,-3.40634 22.54597,7.73449 1.57852,4.25492 1.46592,12.03332 -0.23721,16.38864 -2.6591,6.79993 -9.18415,10.27349 -15.73013,8.37379 z m -0.79601,-19.73652 c 0,-1.74653 -1.26988,-3.23896 -2.24381,-2.63704 -0.79277,0.48995 -0.74742,1.76699 0.11169,3.14246 1.03097,1.65086 2.13222,1.38981 2.13222,-0.50542 z m -26.56073,13.49961 c -2.01541,-0.42645 -4.97476,-2.88962 -5.51437,-4.5898 -0.30062,-0.9472 -0.4585,-0.96197 -1.96345,-0.18371 -2.50025,1.29294 -5.54766,1.06891 -7.690285,-0.56536 -2.82068,-2.15143 -4.02795,-7.09584 -1.73258,-7.09584 0.44718,0 1.09644,0.81293 1.4428,1.80647 1.44484,4.14469 4.713845,5.11587 7.977195,2.36994 l 1.77702,-1.49528 -1.41382,-1.48235 c -2.82919,-2.9663 -3.51039,-7.41733 -1.34422,-8.78337 2.27714,-1.43603 3.78001,-1.58458 6.88864,-0.6809 5.98664,1.74038 8.33101,5.89666 5.02182,8.90316 -1.77337,1.61114 -4.21092,2.76534 -5.84013,2.76534 -0.80747,0 -1.10765,0.38965 -1.10765,1.43786 0,2.20955 1.60015,4.15788 4.00707,4.87902 1.82398,0.54646 2.41145,0.50182 3.59423,-0.27318 1.49835,-0.98176 3.17485,-0.7336 3.17485,0.46991 0,1.80759 -4.03557,3.204 -7.27712,2.51811 z M 77.058441,109.66425 c -5.973786,-1.28566 -9.188075,-5.09707 -9.188075,-10.895039 0,-4.261572 1.662611,-7.786406 5.473445,-11.603951 4.195421,-4.202794 8.551335,-6.157858 14.264304,-6.402209 5.12408,-0.219162 7.69762,0.681564 10.54115,3.689356 3.975675,4.205368 3.574565,11.035015 -1.00036,17.033063 -1.763,2.31142 -7.82092,6.63272 -10.44865,7.45334 -2.83549,0.88548 -7.327652,1.22347 -9.641814,0.72544 z M 89.320155,99.092726 c 1.40461,-1.404583 1.56856,-2.55787 0.41818,-2.941341 -0.94784,-0.315948 -3.60526,2.103337 -3.60526,3.282197 0,1.524198 1.48038,1.365848 3.18708,-0.340856 z"
       style="fill:#000000;" />
  </g>
</svg>
